<svg width="44" height="44" viewBox="0 0 44 44" fill="none" xmlns="http://www.w3.org/2000/svg">
<path d="M7.18438 0.137569C5.70625 0.498508 4.37422 1.71882 3.90156 3.14538C3.74688 3.63523 3.73828 4.13366 3.73828 22.0001C3.73828 39.8665 3.74688 40.3649 3.90156 40.8548C4.24531 41.8946 5.11328 42.9173 6.11016 43.4415C7.25313 44.0344 6.24766 44.0087 22.232 43.9829L36.6523 43.9571L37.2023 43.7594C38.5602 43.2696 39.6688 42.1524 40.0984 40.8548C40.2531 40.3649 40.2617 39.8665 40.2617 22.0001C40.2617 4.13366 40.2531 3.63523 40.0984 3.14538C39.6688 1.84773 38.5602 0.730541 37.2023 0.240696L36.6523 0.0430412L22.1719 0.0258522C9.9 0.0172577 7.61406 0.0344467 7.18438 0.137569ZM36.7211 2.01101C37.2883 2.22585 38.0016 2.90476 38.2508 3.45476L38.457 3.91023V22.0001V40.0899L38.2508 40.5454C37.9844 41.1298 37.2797 41.7829 36.6781 41.9977C36.2398 42.1438 35.5695 42.1524 22 42.1524C8.43047 42.1524 7.76016 42.1438 7.32188 41.9977C6.72031 41.7829 6.01562 41.1298 5.74922 40.5454L5.54297 40.0899V22.043C5.54297 4.50319 5.55156 3.98757 5.70625 3.57507C5.88672 3.10241 6.39375 2.50945 6.85781 2.21726C7.51953 1.80476 7.16719 1.81335 22.1719 1.83054C35.7156 1.84773 36.3258 1.85632 36.7211 2.01101Z" fill="#833AB4"/>
<path d="M17.9609 14.6696C13.0195 14.936 9.19531 18.9149 9.19531 23.8047C9.19531 30.5852 16.225 35.0196 22.3008 32.0719C25.3687 30.5852 27.3023 27.6375 27.4742 24.2344C27.6633 20.2125 25.1969 16.5688 21.3555 15.1852C20.3672 14.8329 18.9578 14.618 17.9609 14.6696ZM17.4453 20.0063V23.418L14.9961 25.8672L12.5383 28.3165L12.3664 28.1016C12.2719 27.9813 12.0055 27.4915 11.7648 27.0188C10.6648 24.8016 10.768 22.2235 12.0312 20.1008C12.7187 18.9407 14.0937 17.6946 15.2625 17.1789C15.8297 16.9211 16.9211 16.5946 17.2133 16.5946L17.4453 16.586V20.0063ZM20.1008 16.7235C21.3812 17.0329 22.7734 17.8664 23.6758 18.8375C24.9906 20.2555 25.6352 21.8797 25.6352 23.8047C25.6352 25.8415 24.9219 27.5946 23.5039 29.004C22.0859 30.4219 20.35 31.1352 18.3047 31.1352C16.818 31.1352 15.5031 30.7485 14.3344 29.9665L13.8187 29.6227L16.5172 26.9243L19.207 24.2344L19.2328 20.4102C19.25 16.9211 19.2672 16.586 19.3961 16.586C19.4734 16.586 19.7914 16.6461 20.1008 16.7235Z" fill="#833AB4"/>
<path d="M29.7086 14.8672C29.382 15.125 29.2617 15.5547 29.425 15.9242C29.6484 16.4656 29.8117 16.5 32.0977 16.5C33.8422 16.5 34.1688 16.4828 34.375 16.3539C34.8734 16.0617 34.9594 15.357 34.5555 14.9445L34.3063 14.6953H32.1149C30.0524 14.6953 29.9149 14.7039 29.7086 14.8672Z" fill="#833AB4"/>
<path d="M29.7086 20.3672C29.382 20.625 29.2617 21.0547 29.425 21.4242C29.6484 21.9656 29.8117 22 32.0977 22C33.8422 22 34.1688 21.9828 34.375 21.8539C34.8734 21.5617 34.9594 20.857 34.5555 20.4445L34.3063 20.1953H32.1149C30.0524 20.1953 29.9149 20.2039 29.7086 20.3672Z" fill="#833AB4"/>
<path d="M29.7086 25.8672C29.382 26.125 29.2617 26.5547 29.425 26.9242C29.6484 27.4656 29.8117 27.5 32.0977 27.5C33.8422 27.5 34.1688 27.4828 34.375 27.3539C34.8734 27.0617 34.9594 26.357 34.5555 25.9445L34.3063 25.6953H32.1149C30.0524 25.6953 29.9149 25.7039 29.7086 25.8672Z" fill="#833AB4"/>
<path d="M29.7086 31.3672C29.382 31.625 29.2617 32.0547 29.425 32.4242C29.6484 32.9656 29.8117 33 32.0977 33C33.8422 33 34.1688 32.9828 34.375 32.8539C34.8734 32.5617 34.9594 31.857 34.5555 31.4445L34.3063 31.1953H32.1149C30.0524 31.1953 29.9149 31.2039 29.7086 31.3672Z" fill="#833AB4"/>
<path d="M9.44445 36.9445C9.04055 37.357 9.12648 38.0617 9.62492 38.3539C9.84836 38.4914 10.8366 38.5 21.9999 38.5C33.1632 38.5 34.1515 38.4914 34.3749 38.3539C34.8734 38.0617 34.9593 37.357 34.5554 36.9445L34.3062 36.6953H21.9999H9.69367L9.44445 36.9445Z" fill="#833AB4"/>
</svg>
