<svg width="44" height="44" viewBox="0 0 44 44" fill="none" xmlns="http://www.w3.org/2000/svg">
<path d="M6.25612 2.44062C5.4655 2.76719 4.88972 3.34297 4.57175 4.13359C4.43425 4.48594 4.42566 5.33672 4.39987 16.5602L4.38269 28.6172H2.42331C1.02253 28.6258 0.438156 28.6516 0.335031 28.7289C0.068625 28.9266 -0.0173125 29.2188 0.03425 29.6828C0.154562 30.6367 0.807687 31.5477 1.67566 31.9773L2.10534 32.1836L13.1483 32.2266L24.1913 32.2695L24.2171 36.8156C24.2342 41.3531 24.2342 41.3703 24.4233 41.568C24.5522 41.7141 24.7069 41.7656 24.9475 41.7656C25.2827 41.7656 25.3514 41.7055 27.3194 39.7461L29.3475 37.7352L31.3671 39.7461C33.2577 41.6281 33.4124 41.7656 33.7046 41.7656C33.8764 41.7656 34.0999 41.6969 34.2116 41.6023L34.4178 41.4391L34.4608 36.85L34.5038 32.2695L36.0077 32.2266C37.4428 32.1836 37.5288 32.1664 37.9671 31.943C38.8092 31.5047 39.3507 30.7656 39.5311 29.8289C39.5827 29.5281 39.6171 25.2055 39.6171 17.6086V5.84375H41.5764C42.9772 5.83516 43.5616 5.80938 43.6647 5.73203C43.9311 5.53437 44.0171 5.24219 43.9655 4.77813C43.8452 3.82422 43.2092 2.94765 42.3155 2.49219L41.8944 2.27734L24.3202 2.26015L6.74597 2.23438L6.25612 2.44062ZM38.4569 3.8414C38.1561 4.5375 38.1647 4.36562 38.1561 16.6031V28.6172H36.6952H35.2342V29.3477V30.0781H36.5663C37.8639 30.0781 37.8983 30.0867 37.7952 30.2414C37.7436 30.3359 37.5546 30.4906 37.3741 30.5852C37.0905 30.7484 36.9186 30.7656 35.7585 30.7656H34.4608V30.4219V30.0781H33.7303H32.9999V34.693V39.3164L31.3499 37.6664C30.3358 36.6523 29.6053 35.9992 29.4592 35.9648C29.3389 35.9305 29.1413 35.9562 29.0296 36.0078C28.9264 36.068 28.1272 36.8156 27.2678 37.6664L25.6952 39.2219V34.65V30.0781H24.9647H24.2342V30.4219V30.7656H13.4061C2.73269 30.7656 2.56941 30.7656 2.23425 30.5938C2.04519 30.4992 1.85612 30.3445 1.80456 30.25C1.71003 30.0781 1.74441 30.0781 12.5897 30.0781H23.4608V29.3477V28.6172H14.6522H5.84362L5.86081 16.6461L5.88659 4.675L6.10144 4.35703C6.21316 4.19375 6.44519 3.97031 6.61706 3.87578C6.91784 3.70391 6.95222 3.69531 22.7217 3.69531C37.735 3.69531 38.5171 3.70391 38.4569 3.8414ZM41.8085 3.91016C42.0147 4.02187 42.1952 4.17656 42.2296 4.25391C42.2725 4.36562 42.1178 4.38281 41.078 4.38281C40.4163 4.38281 39.8749 4.34844 39.8749 4.31406C39.8749 4.27109 39.9436 4.17656 40.0296 4.09922C40.528 3.64375 41.2327 3.56641 41.8085 3.91016Z" fill="#634794"/>
<path d="M16.1562 7.34766V8.07812H22H27.8438V7.34766V6.61719H22H16.1562V7.34766Z" fill="#634794"/>
<path d="M8.76562 11.7305V12.4609H22H35.2344V11.7305V11H22H8.76562V11.7305Z" fill="#634794"/>
<path d="M8.76562 14.6523V15.3828H22H35.2344V14.6523V13.9219H22H8.76562V14.6523Z" fill="#634794"/>
<path d="M28.2389 16.9641L27.4569 17.7805L26.5975 17.6086C25.0248 17.2992 24.81 17.4109 24.6639 18.6484C24.4834 20.075 24.6037 19.8945 23.5037 20.4102C22.1201 21.0633 22.0858 21.1836 22.8506 22.5672L23.3576 23.4781L22.885 24.3031C22.3694 25.2055 22.2662 25.5664 22.4295 25.8672C22.4897 25.9875 22.8936 26.2281 23.5037 26.5203C24.6123 27.0359 24.4834 26.8469 24.6639 28.3164C24.8186 29.5453 24.9904 29.6484 26.4428 29.3477L27.4569 29.1414L28.2303 29.9578C28.9522 30.7055 29.0295 30.7656 29.3389 30.7656C29.6483 30.7656 29.7256 30.7055 30.4303 29.9664L31.1951 29.1586L32.235 29.3648C33.7647 29.657 33.8592 29.5883 34.0483 27.9383C34.1428 27.0875 34.1772 26.9586 34.3319 26.8984C34.4264 26.8641 34.8733 26.6578 35.3287 26.443C35.9904 26.125 36.1795 25.9961 36.2654 25.7898C36.3943 25.4719 36.3514 25.3344 35.7756 24.3031L35.3115 23.4695L35.7842 22.6102C36.0506 22.1375 36.2912 21.6477 36.317 21.5016C36.3943 21.1148 36.0764 20.8313 35.0623 20.3672L34.16 19.9547L34.0568 19.0781C33.9193 17.8922 33.8764 17.7203 33.6615 17.5742C33.4123 17.4023 33.0084 17.4109 32.0115 17.6172C31.5475 17.7117 31.1608 17.7805 31.1522 17.7719C31.1436 17.7547 30.8514 17.4367 30.5076 17.0586C29.399 15.8641 29.3045 15.8555 28.2389 16.9641ZM30.7311 19.293C30.8256 19.3187 31.2725 19.2672 31.7194 19.1727C32.1662 19.0781 32.5358 19.018 32.5444 19.0266C32.5615 19.0352 32.6217 19.4391 32.6904 19.9117C32.7506 20.393 32.8365 20.8313 32.8709 20.8828C32.9053 20.943 33.3006 21.1664 33.7389 21.3727C34.1858 21.5789 34.5467 21.768 34.5467 21.7937C34.5467 21.8195 34.3748 22.1375 34.16 22.5156C33.9279 22.9195 33.7733 23.3062 33.7733 23.4695C33.7733 23.6242 33.9279 24.0109 34.16 24.4234C34.3748 24.8016 34.5467 25.1281 34.5467 25.1453C34.5467 25.1711 34.1858 25.3516 33.7475 25.5578C32.8279 25.9875 32.8022 26.0133 32.6647 27.1477C32.6131 27.543 32.5615 27.8781 32.5444 27.8953C32.5358 27.9039 32.149 27.8438 31.6764 27.7492C31.049 27.6289 30.7826 27.6117 30.6451 27.6805C30.5506 27.732 30.2154 28.0414 29.9061 28.3766L29.3475 28.9781L28.7459 28.3594C28.4194 28.0156 28.067 27.7062 27.9639 27.6719C27.8522 27.6289 27.4654 27.6633 26.9756 27.7578C26.5287 27.8438 26.142 27.8867 26.1162 27.8609C26.0819 27.8266 26.0217 27.4398 25.9787 27.0016C25.91 26.443 25.8412 26.1508 25.7295 26.0305C25.6436 25.9359 25.2397 25.7039 24.8272 25.5148L24.0881 25.1625L24.5006 24.4234C24.7326 24.0109 24.9217 23.5812 24.9217 23.4609C24.9217 23.3406 24.7326 22.9109 24.5006 22.4984L24.0795 21.7594L24.8873 21.3984C25.824 20.9688 25.9014 20.857 25.9959 19.8086C26.0303 19.4305 26.0733 19.0953 26.0904 19.0695C26.1076 19.0352 26.4772 19.0867 26.9154 19.1812C27.3537 19.2672 27.8092 19.3187 27.9209 19.293C28.0412 19.2586 28.4022 18.9492 28.7373 18.5969L29.3389 17.9523L29.949 18.5969C30.2756 18.9492 30.6279 19.2586 30.7311 19.293Z" fill="#634794"/>
<path d="M28.8321 19.8602C27.5689 20.0406 26.572 20.7883 26.0134 21.9828C25.8071 22.4297 25.7384 22.6961 25.7126 23.2461C25.6524 24.4234 26.0048 25.3172 26.8556 26.1164C28.0759 27.268 29.8806 27.4398 31.2985 26.5289C33.1118 25.3687 33.5243 22.9109 32.1923 21.218C31.3845 20.1953 30.1212 19.6797 28.8321 19.8602ZM30.4821 21.6219C31.8399 22.4125 31.8485 24.4578 30.5079 25.3086C29.8806 25.7039 28.9439 25.7469 28.2993 25.4031C27.6462 25.068 27.1649 24.2344 27.1564 23.4609C27.1564 22.7133 27.4915 22.1203 28.2134 21.5703C28.4712 21.3812 29.2962 21.2437 29.7259 21.3297C29.9321 21.3641 30.2759 21.5016 30.4821 21.6219Z" fill="#634794"/>
<path d="M9.53906 24.1914V24.9219H14.3086H19.0781V24.1914V23.4609H14.3086H9.53906V24.1914Z" fill="#634794"/>
</svg>
