<svg width="112" height="190" viewBox="0 0 112 190" fill="none" xmlns="http://www.w3.org/2000/svg">
<path d="M29.9335 184.752H35.2215L37.7369 165.86L29.9326 165.86L29.9335 184.752Z" fill="#FFB6B6"/>
<path d="M28.585 183.153L38.9988 183.153H38.9992C40.7593 183.153 42.4473 183.801 43.6918 184.953C44.9364 186.106 45.6357 187.67 45.6358 189.3V189.5L28.5853 189.5L28.585 183.153Z" fill="#2F2E41"/>
<path d="M48.0492 184.752H53.3372L55.8527 165.86L48.0483 165.86L48.0492 184.752Z" fill="#FFB6B6"/>
<path d="M46.7002 183.153L57.114 183.153H57.1145C58.8745 183.153 60.5625 183.801 61.8071 184.953C63.0517 186.106 63.7509 187.67 63.751 189.3V189.5L46.7005 189.5L46.7002 183.153Z" fill="#2F2E41"/>
<path d="M68.1432 102.452L55.2256 176.356L46.5991 175.956L46.8131 108.097L68.1432 102.452Z" fill="#2E2941"/>
<path d="M33.3185 79.873L64.6608 80.2762L68.1432 102.452L46.8131 111.726L37.5414 174.358L29.3463 173.959L26.3535 96.4044L33.3185 79.873Z" fill="#2E2941"/>
<path d="M52.0368 22.618C57.3259 22.618 61.6136 18.6465 61.6136 13.7475C61.6136 8.84842 57.3259 4.87695 52.0368 4.87695C46.7476 4.87695 42.46 8.84842 42.46 13.7475C42.46 18.6465 46.7476 22.618 52.0368 22.618Z" fill="#FFB9B9"/>
<path d="M56.5195 27.7378L62.049 34.311L59.4369 84.7112L38.9776 84.3081L35.4951 40.3592L39.848 29.0694L41.4232 26.5393L56.5195 27.7378Z" fill="#E4E4E4"/>
<path d="M65.9668 53.2616L70.7552 70.1962L65.9668 87.1308L73.8024 96.8077L80.7673 66.1642C80.7673 66.1642 75.5436 41.1655 75.1083 38.3431C74.673 35.5206 73.8024 35.1174 73.8024 35.1174L70.3199 35.5206L65.9668 53.2616Z" fill="#2E2941"/>
<path d="M31.1425 59.7126L28.0952 64.9546L27.2244 73.8249L28.9656 83.905L22.8715 93.1788L16.7773 67.7768L23.3067 35.1172H25.9188L31.1425 59.7126Z" fill="#2E2941"/>
<path d="M43.7546 16.0451L43.5278 19.6309C43.5278 19.6309 40.7188 13.7474 40.2835 7.69938C39.8482 1.65134 47.2485 0.441726 51.6016 0.0385199C55.9546 -0.364686 63.3549 2.45773 63.3549 5.68336C63.3549 8.90899 55.5193 8.1026 52.4722 7.29619C49.425 6.48978 48.1191 13.3442 48.1191 13.3442L46.3778 13.7475L43.7546 16.0451Z" fill="#2F2E41"/>
<path d="M67.2729 58.9062L65.5317 74.2279L69.0141 83.5016L71.1907 92.3721C71.1907 92.3721 71.1907 100.839 62.4845 101.243C53.7783 101.646 28.5304 100.839 28.5304 100.839C28.5304 100.839 25.0479 100.436 22.0008 93.9849C18.9536 87.5336 28.0951 81.4856 28.0951 81.4856L30.707 73.0183L29.8364 62.535L23.742 35.1171L41.8073 26.4482L46.378 67.7766L56.1725 27.6579L59.4373 29.8755L73.3672 35.1171L67.2729 58.9062Z" fill="#2E2941"/>
<path d="M111.168 189.881H0V189.039H111.333L111.168 189.881Z" fill="#3F3D56"/>
</svg>
