<svg width="24" height="17" viewBox="0 0 24 17" fill="none" xmlns="http://www.w3.org/2000/svg">
<path d="M22.2295 0H1.77051C0.793945 0 0 0.796875 0 1.77637V15.2236C0 16.2031 0.793945 17 1.77051 17H22.2295C23.2061 17 24 16.2031 24 15.2236V1.77637C24 0.796875 23.2061 0 22.2295 0ZM14.6667 8.50029L22.5 3.16104V13.839L14.6667 8.50029ZM22.2295 1.41667C22.283 1.41667 22.3373 1.44722 22.3844 1.49287L12 8.57096L1.6156 1.49287C1.66272 1.44722 1.71698 1.41667 1.77051 1.41667H22.2295ZM1.5 13.839V3.16104L9.33282 8.49994L1.5 13.839ZM1.77051 15.5833C1.71698 15.5833 1.66272 15.5527 1.6156 15.5071L10.6143 9.37343L11.5615 10.019C11.584 10.0344 11.61 10.0407 11.6337 10.0534C11.6568 10.0658 11.6784 10.0763 11.7026 10.0863C11.7986 10.1259 11.8981 10.1528 11.999 10.1528C11.9994 10.1528 11.9996 10.1525 12 10.1525C12.0004 10.1525 12.0006 10.1528 12.001 10.1528C12.1019 10.1528 12.2014 10.1259 12.2974 10.0863C12.3216 10.0763 12.3432 10.0658 12.3663 10.0534C12.39 10.0407 12.416 10.0344 12.4385 10.019L13.3852 9.37371L22.3844 15.5071C22.3373 15.5527 22.283 15.5833 22.2295 15.5833H1.77051Z" fill="#3F3D56"/>
</svg>
