<svg width="30" height="30" viewBox="0 0 30 30" fill="none" xmlns="http://www.w3.org/2000/svg">
<path d="M30 28.125C30 29.16 29.16 30 28.125 30H1.875C0.84 30 0 29.16 0 28.125V1.875C0 0.84 0.84 0 1.875 0H28.125C29.16 0 30 0.84 30 1.875V28.125Z" fill="#3F3D56"/>
<path d="M20.625 30V18.75H24.375L25.3125 14.0625H20.625V12.1875C20.625 10.3125 21.5644 9.375 23.4375 9.375H25.3125V4.6875C24.375 4.6875 23.2125 4.6875 21.5625 4.6875C18.1172 4.6875 15.9375 7.38844 15.9375 11.25V14.0625H12.1875V18.75H15.9375V30H20.625Z" fill="white"/>
</svg>
