<svg width="217" height="188" viewBox="0 0 217 188" fill="none" xmlns="http://www.w3.org/2000/svg">
<path d="M79.0298 187.517H59.1131C58.4401 187.516 57.7949 187.265 57.319 186.819C56.8432 186.372 56.5755 185.767 56.5747 185.135V146.288C56.5755 145.657 56.8432 145.051 57.319 144.605C57.7949 144.158 58.4401 143.907 59.1131 143.906H79.0298C79.7028 143.907 80.348 144.158 80.8238 144.605C81.2997 145.051 81.5674 145.657 81.5682 146.288V185.135C81.5674 185.767 81.2997 186.372 80.8238 186.819C80.348 187.265 79.7028 187.516 79.0298 187.517Z" fill="#D6359B"/>
<path d="M174.149 187.883H154.267C153.595 187.883 152.951 187.701 152.476 187.378C152.001 187.056 151.734 186.618 151.733 186.162V60.359C151.734 59.9026 152.001 59.465 152.476 59.1423C152.951 58.8195 153.595 58.638 154.267 58.6375H174.149C174.821 58.638 175.465 58.8195 175.94 59.1423C176.415 59.465 176.683 59.9026 176.683 60.359V186.162C176.683 186.618 176.415 187.056 175.94 187.378C175.465 187.701 174.821 187.883 174.149 187.883Z" fill="#D6359B"/>
<path d="M127.461 188H107.539C106.866 188 106.221 187.894 105.745 187.707C105.269 187.52 105.001 187.266 105 187.001V113.999C105.001 113.734 105.269 113.48 105.745 113.293C106.221 113.106 106.866 113 107.539 113H127.461C128.134 113 128.779 113.106 129.255 113.293C129.731 113.48 129.999 113.734 130 113.999V187.001C129.999 187.266 129.731 187.52 129.255 187.707C128.779 187.894 128.134 188 127.461 188Z" fill="#D6359B"/>
<path d="M97.3614 82.1861C97.4336 81.6516 97.3801 81.1088 97.2046 80.5958C97.0291 80.0829 96.7359 79.6123 96.3457 79.2171C95.9554 78.822 95.4776 78.512 94.9458 78.3089C94.414 78.1058 93.8413 78.0146 93.2679 78.0418L86.3258 66.0913L84.7637 71.222L89.5198 82.1744C89.6322 83.0753 90.0928 83.9062 90.8144 84.5097C91.536 85.1132 92.4685 85.4473 93.435 85.4487C94.4016 85.4502 95.3352 85.1188 96.0588 84.5175C96.7825 83.9162 97.2459 83.0867 97.3614 82.1861Z" fill="#FFB9B9"/>
<path d="M43.874 126.372L47.7406 129.021L60.4697 116.285L54.7626 112.375L43.874 126.372Z" fill="#FFB9B9"/>
<path d="M52.5771 137.499L40.4241 129.173L43.8521 124.767L51.3096 129.876C52.5549 130.729 53.3881 132.012 53.6258 133.441C53.8635 134.871 53.4863 136.331 52.5771 137.499L52.5771 137.499Z" fill="#2F2E41"/>
<path d="M64.3318 140.394L69.1196 140.394L71.3972 123.064L64.3311 123.064L64.3318 140.394Z" fill="#FFB9B9"/>
<path d="M78.3535 144.566L63.3064 144.566L63.3062 139.111L72.5396 139.11C74.0815 139.11 75.5602 139.685 76.6506 140.708C77.7409 141.731 78.3534 143.119 78.3535 144.566Z" fill="#2F2E41"/>
<path d="M78.7108 72.8027C78.7108 72.8027 81.0539 94.0583 75.1961 108.717L70.9004 136.569H63.4804L64.2615 103.587L61.5278 74.2686C61.5278 74.2686 66.9951 61.0755 78.7108 72.8027Z" fill="#2F2E41"/>
<path d="M53.3267 74.2685L61.1371 99.5553L45.9067 122.277L53.5219 128.324L70.9001 102.854L65.8234 71.7031L53.3267 74.2685Z" fill="#2F2E41"/>
<path d="M73.245 20.5654C78.5423 20.5654 82.8366 16.5356 82.8366 11.5645C82.8366 6.59335 78.5423 2.56348 73.245 2.56348C67.9476 2.56348 63.6533 6.59335 63.6533 11.5645C63.6533 16.5356 67.9476 20.5654 73.245 20.5654Z" fill="#FFB9B9"/>
<path d="M65.2375 23.9467C65.2375 23.9467 71.0953 20.282 77.7342 28.3444L79.4915 79.1013C79.4915 79.1013 74.4147 72.5047 63.8706 78.7348C53.3265 84.9649 50.9834 78.0018 50.9834 78.0018C50.9834 78.0018 43.5635 25.5959 65.2375 23.9467Z" fill="#CCCCCC"/>
<path d="M77.2621 28.2164C78.9468 28.3018 80.5384 28.9689 81.7306 30.0893C82.9228 31.2097 83.6314 32.7042 83.7201 34.2853L84.9592 56.3797L93.1602 77.2688L88.4739 80.9336L73.2436 56.0133L70.1253 35.5298C69.9824 34.5909 70.0631 33.634 70.3615 32.728C70.66 31.8219 71.1688 30.9892 71.8513 30.2898C72.5338 29.5903 73.3731 29.0416 74.3087 28.6831C75.2443 28.3246 76.253 28.1652 77.2621 28.2164Z" fill="#CDCDCD"/>
<path d="M66.1969 18.3161C67.7649 19.8835 70.677 19.0421 70.8813 16.9007C70.8973 16.7344 70.8962 16.5671 70.8778 16.4011C70.7724 15.4526 70.1884 14.5914 70.3283 13.5899C70.3599 13.3406 70.4589 13.1031 70.6158 12.8998C71.8653 11.3296 74.7985 13.6021 75.9778 12.1806C76.7009 11.309 75.8509 9.93672 76.4058 8.96255C77.1382 7.67681 79.3074 8.31107 80.6678 7.60694C82.1814 6.8235 82.0908 4.64426 81.0945 3.31874C79.8794 1.70222 77.749 0.83963 75.6452 0.715304C73.5413 0.590977 71.452 1.12469 69.4878 1.843C67.2561 2.65914 65.0431 3.78708 63.6698 5.62855C61.9997 7.86797 61.839 10.8787 62.6742 13.4972C63.1823 15.0902 64.9164 17.0361 66.1969 18.3161Z" fill="#2F2E41"/>
<path d="M216.603 187.883H0.396553C0.291274 187.883 0.190408 187.834 0.116072 187.748C0.041736 187.661 0 187.544 0 187.422C0 187.3 0.041736 187.183 0.116072 187.096C0.190408 187.01 0.291274 186.961 0.396553 186.96H216.603C216.709 186.961 216.81 187.01 216.884 187.096C216.958 187.183 217 187.3 217 187.422C217 187.544 216.958 187.661 216.884 187.748C216.81 187.834 216.709 187.883 216.603 187.883Z" fill="#3F3D56"/>
</svg>
