<svg width="218" height="188" viewBox="0 0 218 188" fill="none" xmlns="http://www.w3.org/2000/svg">
<path d="M79.8274 187.517H59.8949C59.2214 187.516 58.5757 187.265 58.0994 186.819C57.6232 186.372 57.3553 185.767 57.3545 185.135V146.288C57.3553 145.657 57.6232 145.051 58.0994 144.605C58.5757 144.158 59.2214 143.907 59.8949 143.906H79.8274C80.5009 143.907 81.1466 144.158 81.6229 144.605C82.0991 145.051 82.367 145.657 82.3678 146.288V185.135C82.367 185.767 82.0991 186.372 81.6229 186.819C81.1466 187.265 80.5009 187.516 79.8274 187.517Z" fill="#A7156D"/>
<path d="M175.023 187.883H155.124C154.452 187.883 153.807 187.701 153.332 187.378C152.857 187.056 152.589 186.618 152.588 186.162V60.359C152.589 59.9026 152.857 59.465 153.332 59.1423C153.807 58.8195 154.452 58.638 155.124 58.6375H175.023C175.695 58.638 176.34 58.8195 176.815 59.1423C177.291 59.465 177.558 59.9026 177.559 60.359V186.162C177.558 186.618 177.291 187.056 176.815 187.378C176.34 187.701 175.695 187.883 175.023 187.883Z" fill="#A7156D"/>
<path d="M128.297 188H108.359C107.686 188 107.04 187.894 106.563 187.707C106.087 187.52 105.819 187.266 105.818 187.001V113.999C105.819 113.734 106.087 113.48 106.563 113.293C107.04 113.106 107.686 113 108.359 113H128.297C128.971 113 129.617 113.106 130.093 113.293C130.57 113.48 130.837 113.734 130.838 113.999V187.001C130.837 187.266 130.57 187.52 130.093 187.707C129.617 187.894 128.971 188 128.297 188Z" fill="#A7156D"/>
<path d="M98.1736 82.1861C98.246 81.6516 98.1924 81.1088 98.0168 80.5958C97.8412 80.0829 97.5477 79.6123 97.1571 79.2171C96.7666 78.822 96.2883 78.512 95.7562 78.3089C95.224 78.1058 94.6508 78.0146 94.077 78.0418L87.1293 66.0913L85.5659 71.222L90.3258 82.1744C90.4383 83.0753 90.8993 83.9062 91.6215 84.5097C92.3437 85.1132 93.2768 85.4473 94.2442 85.4487C95.2115 85.4502 96.1458 85.1188 96.8701 84.5175C97.5943 83.9162 98.0581 83.0867 98.1736 82.1861Z" fill="#FFB9B9"/>
<path d="M44.6436 126.372L48.5132 129.021L61.2523 116.285L55.5407 112.375L44.6436 126.372Z" fill="#FFB9B9"/>
<path d="M53.3535 137.499L41.1908 129.173L44.6215 124.767L52.085 129.876C53.3313 130.729 54.1651 132.012 54.403 133.441C54.6409 134.871 54.2634 136.331 53.3535 137.499L53.3535 137.499Z" fill="#2F2E41"/>
<path d="M65.118 140.394L69.9096 140.394L72.1889 123.064L65.1172 123.064L65.118 140.394Z" fill="#FFB9B9"/>
<path d="M79.1504 144.566L64.0913 144.566L64.0911 139.111L73.3319 139.11C74.875 139.11 76.3549 139.685 77.4461 140.708C78.5373 141.731 79.1503 143.119 79.1504 144.566Z" fill="#2F2E41"/>
<path d="M79.5081 72.8027C79.5081 72.8027 81.8531 94.0583 75.9906 108.717L71.6915 136.569H64.2657L65.0473 103.587L62.3115 74.2686C62.3115 74.2686 67.7832 61.0755 79.5081 72.8027Z" fill="#2F2E41"/>
<path d="M54.104 74.2685L61.9207 99.5553L46.6782 122.277L54.2994 128.324L71.6915 102.854L66.6107 71.7031L54.104 74.2685Z" fill="#2F2E41"/>
<path d="M74.0378 20.5654C79.3393 20.5654 83.6371 16.5356 83.6371 11.5645C83.6371 6.59335 79.3393 2.56348 74.0378 2.56348C68.7362 2.56348 64.4385 6.59335 64.4385 11.5645C64.4385 16.5356 68.7362 20.5654 74.0378 20.5654Z" fill="#FFB9B9"/>
<path d="M66.0242 23.9467C66.0242 23.9467 71.8867 20.282 78.5308 28.3444L80.2896 79.1013C80.2896 79.1013 75.2087 72.5047 64.6563 78.7348C54.1038 84.9649 51.7588 78.0018 51.7588 78.0018C51.7588 78.0018 44.333 25.5959 66.0242 23.9467Z" fill="#CCCCCC"/>
<path d="M78.0583 28.2164C79.7444 28.3018 81.3372 28.9689 82.5304 30.0893C83.7235 31.2097 84.4327 32.7042 84.5214 34.2853L85.7616 56.3797L93.9691 77.2688L89.2791 80.9336L74.0366 56.0133L70.9159 35.5298C70.7729 34.5909 70.8536 33.634 71.1523 32.728C71.451 31.8219 71.9602 30.9892 72.6432 30.2898C73.3263 29.5903 74.1662 29.0416 75.1026 28.6831C76.0389 28.3246 77.0484 28.1652 78.0583 28.2164Z" fill="#CDCDCD"/>
<path d="M66.9842 18.3161C68.5535 19.8835 71.4679 19.0421 71.6724 16.9007C71.6884 16.7344 71.6873 16.5671 71.6689 16.4011C71.5634 15.4526 70.979 14.5914 71.1189 13.5899C71.1506 13.3406 71.2497 13.1031 71.4067 12.8998C72.6572 11.3296 75.5927 13.6021 76.7729 12.1806C77.4966 11.309 76.6459 9.93672 77.2013 8.96255C77.9343 7.67681 80.1052 8.31107 81.4667 7.60694C82.9814 6.8235 82.8908 4.64426 81.8937 3.31874C80.6777 1.70222 78.5456 0.83963 76.4401 0.715304C74.3345 0.590977 72.2435 1.12469 70.2778 1.843C68.0444 2.65914 65.8296 3.78708 64.4552 5.62855C62.7837 7.86797 62.6229 10.8787 63.4588 13.4972C63.9673 15.0902 65.7027 17.0361 66.9842 18.3161Z" fill="#2F2E41"/>
<path d="M217.51 187.883H1.13173C1.02637 187.883 0.925422 187.834 0.851027 187.748C0.776632 187.661 0.734863 187.544 0.734863 187.422C0.734863 187.3 0.776632 187.183 0.851027 187.096C0.925422 187.01 1.02637 186.961 1.13173 186.96H217.51C217.616 186.961 217.717 187.01 217.791 187.096C217.865 187.183 217.907 187.3 217.907 187.422C217.907 187.544 217.865 187.661 217.791 187.748C217.717 187.834 217.616 187.883 217.51 187.883Z" fill="#3F3D56"/>
</svg>
