<svg width="44" height="44" viewBox="0 0 44 44" fill="none" xmlns="http://www.w3.org/2000/svg">
<g clip-path="url(#clip0_1755:243)">
<path d="M4.108 0.146091C3.97909 0.232029 3.84159 0.352345 3.80722 0.429688C3.76425 0.498436 3.72128 9.91719 3.6955 21.3555L3.65253 42.1523L2.10565 42.1953C1.25487 42.2211 0.498623 42.2727 0.421279 42.307C0.343935 42.35 0.215029 42.5047 0.129092 42.6594C-0.0685647 43.0203 0.00877908 43.4672 0.30956 43.7508L0.532998 43.957H22.0002H43.4674L43.6908 43.7508C43.9916 43.4672 44.0689 43.0203 43.8713 42.668C43.6822 42.2984 43.4244 42.1953 42.7541 42.1953H42.1955V26.125C42.1955 8.78281 42.2213 9.65937 41.7572 9.33281C41.5767 9.2125 40.9752 9.19531 35.7416 9.19531C30.0439 9.19531 29.9236 9.19531 29.7088 9.36719C29.3822 9.625 29.2619 10.0547 29.4252 10.4242C29.6658 11.0172 29.4939 11 35.1916 11H40.3049V26.5977V42.1953H33.0002H25.6955V21.5273C25.6955 3.85 25.6783 0.807812 25.5752 0.558594C25.326 -0.0343742 26.0478 0 14.6353 0C5.12206 0.00859451 4.32284 0.0171852 4.108 0.146091ZM23.8049 22V42.1953H14.6525H5.50019V22V1.80469H14.6525H23.8049V22Z" fill="#634794"/>
<path d="M9.60801 5.64624C9.4877 5.72358 9.3416 5.87827 9.29004 5.98999C9.16113 6.27358 9.16113 10.2353 9.29004 10.5189C9.53066 11.0345 10.3385 11.129 10.751 10.6908L10.9572 10.4673V8.24155V6.01577L10.7338 5.79233C10.4502 5.50874 9.92598 5.43999 9.60801 5.64624Z" fill="#634794"/>
<path d="M18.7688 5.66328C18.6227 5.75781 18.4595 5.95547 18.3993 6.11016C18.2532 6.53984 18.2704 10.0633 18.4251 10.4414C18.554 10.7422 18.9321 11 19.2501 11C19.5681 11 19.9462 10.7422 20.0751 10.4414C20.1696 10.218 20.1954 9.69375 20.1954 8.25C20.1954 6.14453 20.1438 5.86953 19.6884 5.6375C19.3446 5.45703 19.0954 5.46563 18.7688 5.66328Z" fill="#634794"/>
<path d="M9.44453 14.9445L9.19531 15.1937V17.3851C9.19531 19.4476 9.20391 19.5851 9.36719 19.7914C9.625 20.118 10.0547 20.2383 10.4242 20.075C10.9656 19.8516 11 19.6883 11 17.4023C11 15.6578 10.9828 15.3312 10.8539 15.125C10.5617 14.6266 9.85703 14.5406 9.44453 14.9445Z" fill="#634794"/>
<path d="M18.743 14.8328C18.3563 15.1078 18.3047 15.4086 18.3047 17.4539C18.3047 19.5852 18.3563 19.8172 18.8633 20.0578C19.018 20.1352 19.1898 20.1953 19.25 20.1953C19.5078 20.1953 19.9375 19.9031 20.0578 19.6367C20.2469 19.2414 20.2555 15.7008 20.075 15.2625C19.9203 14.893 19.6367 14.6953 19.25 14.6953C19.0781 14.6953 18.8547 14.7555 18.743 14.8328Z" fill="#634794"/>
<path d="M9.74531 23.9251C9.20391 24.1657 9.19531 24.2173 9.19531 26.6235V28.8063L9.44453 29.0555C9.85703 29.4595 10.5617 29.3735 10.8539 28.8751C10.9828 28.6688 11 28.3423 11 26.5977C11 24.329 10.9656 24.1485 10.4414 23.9251C10.0891 23.779 10.0805 23.779 9.74531 23.9251Z" fill="#634794"/>
<path d="M18.8461 23.9422C18.3563 24.1828 18.3047 24.4234 18.3047 26.5461C18.3047 28.5914 18.3563 28.8922 18.743 29.1672C18.8547 29.2445 19.0781 29.3047 19.25 29.3047C19.4219 29.3047 19.6453 29.2445 19.757 29.1672C20.1438 28.8922 20.1953 28.5914 20.1953 26.5461C20.1953 24.4148 20.1438 24.1828 19.6367 23.9422C19.2844 23.7703 19.1898 23.7703 18.8461 23.9422Z" fill="#634794"/>
<path d="M9.60801 33.1462C9.4877 33.2236 9.3416 33.3783 9.29004 33.49C9.16113 33.7736 9.16113 37.7353 9.29004 38.0189C9.53066 38.5345 10.3385 38.629 10.751 38.1908L10.9572 37.9673V35.7415V33.5158L10.7338 33.2923C10.4502 33.0087 9.92598 32.94 9.60801 33.1462Z" fill="#634794"/>
<path d="M18.7688 33.1633C18.3563 33.4125 18.3047 33.6875 18.3047 35.7672C18.3047 37.8555 18.3563 38.1305 18.8117 38.3625C19.1383 38.5344 19.3617 38.5344 19.6883 38.3625C20.1438 38.1305 20.1953 37.8555 20.1953 35.75C20.1953 33.6446 20.1438 33.3696 19.6883 33.1375C19.3445 32.9571 19.0953 32.9657 18.7688 33.1633Z" fill="#634794"/>
<path d="M29.743 14.8328C29.3562 15.1078 29.3047 15.4086 29.3047 17.4539C29.3047 19.5852 29.3562 19.8172 29.8633 20.0578C30.018 20.1352 30.1898 20.1953 30.25 20.1953C30.5078 20.1953 30.9375 19.9031 31.0578 19.6367C31.2469 19.2414 31.2555 15.7008 31.075 15.2625C30.9203 14.893 30.6367 14.6953 30.25 14.6953C30.0781 14.6953 29.8547 14.7555 29.743 14.8328Z" fill="#634794"/>
<path d="M35.243 14.8328C34.8563 15.1078 34.8047 15.4086 34.8047 17.4539C34.8047 19.5852 34.8563 19.8172 35.3633 20.0578C35.518 20.1352 35.6898 20.1953 35.75 20.1953C36.0078 20.1953 36.4375 19.9031 36.5578 19.6367C36.7469 19.2414 36.7555 15.7008 36.575 15.2625C36.4203 14.893 36.1367 14.6953 35.75 14.6953C35.5781 14.6953 35.3547 14.7555 35.243 14.8328Z" fill="#634794"/>
<path d="M29.8461 23.9422C29.3563 24.1828 29.3047 24.4234 29.3047 26.5461C29.3047 28.5914 29.3563 28.8922 29.743 29.1672C29.8547 29.2445 30.0781 29.3047 30.25 29.3047C30.4219 29.3047 30.6453 29.2445 30.757 29.1672C31.1438 28.8922 31.1953 28.5914 31.1953 26.5461C31.1953 24.4148 31.1438 24.1828 30.6367 23.9422C30.2844 23.7703 30.1898 23.7703 29.8461 23.9422Z" fill="#634794"/>
<path d="M35.3461 23.9422C34.8563 24.1828 34.8047 24.4234 34.8047 26.5461C34.8047 28.5914 34.8563 28.8922 35.243 29.1672C35.3547 29.2445 35.5781 29.3047 35.75 29.3047C35.9219 29.3047 36.1453 29.2445 36.257 29.1672C36.6438 28.8922 36.6953 28.5914 36.6953 26.5461C36.6953 24.4148 36.6438 24.1828 36.1367 23.9422C35.7844 23.7703 35.6898 23.7703 35.3461 23.9422Z" fill="#634794"/>
<path d="M29.7688 33.1633C29.3563 33.4125 29.3047 33.6875 29.3047 35.7672C29.3047 37.8555 29.3563 38.1305 29.8117 38.3625C30.1383 38.5344 30.3617 38.5344 30.6883 38.3625C31.1438 38.1305 31.1953 37.8555 31.1953 35.75C31.1953 33.6446 31.1438 33.3696 30.6883 33.1375C30.3445 32.9571 30.0953 32.9657 29.7688 33.1633Z" fill="#634794"/>
<path d="M35.2688 33.1633C34.8563 33.4125 34.8047 33.6875 34.8047 35.7672C34.8047 37.8555 34.8563 38.1305 35.3117 38.3625C35.6383 38.5344 35.8617 38.5344 36.1883 38.3625C36.6438 38.1305 36.6953 37.8555 36.6953 35.75C36.6953 33.6446 36.6438 33.3696 36.1883 33.1375C35.8445 32.9571 35.5953 32.9657 35.2688 33.1633Z" fill="#634794"/>
</g>
<defs>
<clipPath id="clip0_1755:243">
<rect width="44" height="44" fill="white"/>
</clipPath>
</defs>
</svg>
