<svg width="45" height="44" viewBox="0 0 45 44" fill="none" xmlns="http://www.w3.org/2000/svg">
<path d="M18.8454 0.0945778C18.3292 0.283722 17.8388 0.713604 17.5721 1.19507L17.3139 1.65934L17.2709 4.28161C17.2451 6.10431 17.1935 6.95547 17.1247 7.08443C16.944 7.40255 16.4277 7.79803 16.075 7.89261C15.8255 7.96139 15.619 7.95279 15.3178 7.88401C14.9479 7.78944 14.7328 7.60889 13.098 6.00114C11.4805 4.41058 11.2396 4.20424 10.8266 4.06667C10.2501 3.87753 9.536 3.92911 9.00255 4.19564C8.76164 4.316 7.89265 5.11558 6.58485 6.42242C4.21877 8.77816 4.05529 9.0189 4.12413 10.0334C4.14994 10.3429 4.23598 10.7384 4.32202 10.9018C4.40806 11.0651 5.25985 11.9937 6.21488 12.9652C7.7894 14.5558 7.96148 14.7707 8.05612 15.1404C8.12495 15.4413 8.13356 15.6477 8.06473 15.897C7.97008 16.2495 7.5743 16.7653 7.25596 16.9459C7.1269 17.0147 6.27511 17.0663 4.45108 17.0921L1.82688 17.135L1.36226 17.393C0.880445 17.6595 0.450248 18.1496 0.260962 18.6654C0.123299 19.0523 0.123299 24.9331 0.260962 25.32C0.450248 25.8358 0.880445 26.3259 1.36226 26.5924L1.82688 26.8503L4.45108 26.8933C6.27511 26.9191 7.1269 26.9707 7.25596 27.0395C7.5743 27.22 7.97008 27.7359 8.06473 28.0884C8.13356 28.3377 8.12495 28.5441 8.05612 28.845C7.96148 29.2147 7.7894 29.4296 6.21488 31.0202C5.25985 31.9917 4.40806 32.9203 4.32202 33.0836C4.23598 33.247 4.14994 33.6425 4.12413 33.952C4.05529 34.9665 4.21877 35.2072 6.58485 37.563C7.89265 38.8698 8.76164 39.6694 9.00255 39.7897C9.536 40.0563 10.2501 40.1079 10.8266 39.9187C11.2396 39.7812 11.4805 39.5748 13.098 37.9843C14.7328 36.3765 14.9479 36.1959 15.3178 36.1014C15.619 36.0326 15.8255 36.024 16.075 36.0928C16.4277 36.1873 16.944 36.5828 17.1247 36.901C17.1935 37.0299 17.2451 37.8811 17.2709 39.7038L17.3139 42.326L17.5721 42.7903C17.8388 43.2718 18.3292 43.7017 18.8454 43.8908C19.2068 44.0198 24.8682 44.0456 25.3844 43.908C25.9265 43.779 26.4857 43.3234 26.7783 42.7903L27.0364 42.326L27.0794 39.7038C27.1052 37.8811 27.1568 37.0299 27.2257 36.901C27.4064 36.5828 27.9226 36.1873 28.2754 36.0928C28.5249 36.024 28.7314 36.0326 29.0325 36.1014C29.4025 36.1959 29.6176 36.3765 31.2523 37.9843C32.8699 39.5748 33.1108 39.7812 33.5238 39.9187C34.1002 40.1079 34.8143 40.0563 35.3478 39.7897C35.5887 39.6694 36.4663 38.8612 37.7655 37.563C40.1316 35.2072 40.295 34.9665 40.2262 33.952C40.2004 33.6425 40.1144 33.247 40.0283 33.0836C39.9423 32.9203 39.0905 31.9917 38.1355 31.0202C36.5609 29.4296 36.3889 29.2147 36.2942 28.845C36.2254 28.5441 36.2168 28.3377 36.2856 28.0884C36.3803 27.7359 36.776 27.22 37.0944 27.0395C37.2234 26.9707 38.0752 26.9191 39.8993 26.8933L42.5235 26.8503L42.9881 26.5924C43.4699 26.3259 43.9001 25.8358 44.0894 25.32C44.227 24.9331 44.227 19.0523 44.0894 18.6654C43.9001 18.1496 43.4699 17.6595 42.9881 17.393L42.5235 17.135L39.8993 17.0921C38.0752 17.0663 37.2234 17.0147 37.0944 16.9459C36.776 16.7653 36.3803 16.2495 36.2856 15.897C36.2168 15.6477 36.2254 15.4413 36.2942 15.1404C36.3889 14.7707 36.5609 14.5558 38.1355 12.9652C39.0905 11.9937 39.9423 11.0651 40.0283 10.9018C40.1144 10.7384 40.2004 10.3429 40.2262 10.0334C40.295 9.0189 40.1316 8.77816 37.7655 6.42242C36.4577 5.11558 35.5887 4.316 35.3478 4.19564C34.8143 3.92911 34.1002 3.87753 33.5238 4.06667C33.1108 4.20424 32.8699 4.41058 31.2523 6.00114C29.6176 7.60889 29.4025 7.78944 29.0325 7.88401C28.7314 7.95279 28.5249 7.96139 28.2754 7.89261C27.9226 7.79803 27.4064 7.40255 27.2257 7.08443C27.1568 6.95547 27.1052 6.10431 27.0794 4.28161L27.0364 1.65934L26.7783 1.19507C26.5116 0.713604 26.0211 0.283722 25.5049 0.0945778C25.3156 0.025795 24.3003 3.8147e-06 22.1752 3.8147e-06C20.05 3.8147e-06 19.0347 0.025795 18.8454 0.0945778ZM25.1952 1.77971L25.4016 1.94306L25.4447 4.55674L25.4877 7.16181L25.7372 7.70346C26.3395 9.0103 27.8538 9.80128 29.2132 9.51756C30.1252 9.33701 30.4608 9.08768 32.2934 7.28218C33.8507 5.73461 34.0486 5.57125 34.3153 5.57125C34.5734 5.57125 34.7799 5.7518 36.604 7.5745C38.428 9.39719 38.6087 9.60353 38.6087 9.86146C38.6087 10.128 38.4452 10.3257 36.8965 11.8819C35.0897 13.7132 34.8402 14.0485 34.6595 14.9598C34.3755 16.3183 35.1671 17.8314 36.4749 18.4333L37.0169 18.6826L39.6239 18.7256L42.2395 18.7686L42.403 18.9749C42.5579 19.1641 42.5665 19.3446 42.5665 21.9927C42.5665 24.6408 42.5579 24.8213 42.403 25.0105L42.2395 25.2168L39.6239 25.2598L37.0169 25.3028L36.4749 25.5521C36.1049 25.7241 35.7866 25.9562 35.4768 26.3001C34.866 26.9621 34.6251 27.5639 34.6251 28.4839C34.6165 29.0857 34.6509 29.2491 34.8918 29.7649C35.1327 30.2808 35.3908 30.5817 36.8879 32.0949C38.4452 33.6597 38.6087 33.8574 38.6087 34.1239C38.6087 34.3819 38.428 34.5882 36.604 36.4109C34.7799 38.2336 34.5734 38.4141 34.3153 38.4141C34.0486 38.4141 33.8507 38.2508 32.2934 36.7032C30.4608 34.8977 30.1252 34.6484 29.2132 34.4678C27.8538 34.1841 26.3395 34.9751 25.7372 36.2819L25.4877 36.8236L25.4447 39.4286L25.4016 42.0423L25.1952 42.2057C25.0059 42.3604 24.8252 42.369 22.1752 42.369C19.5252 42.369 19.3445 42.3604 19.1552 42.2057L18.9487 42.0423L18.9057 39.4286L18.8627 36.8236L18.6131 36.2905C18.355 35.7231 17.7097 35.0267 17.1935 34.7687C16.6687 34.4936 15.7652 34.3561 15.1802 34.4592C14.251 34.6312 13.924 34.8719 12.0569 36.7032C10.4996 38.2422 10.2931 38.4141 10.035 38.4141C9.77691 38.4141 9.56181 38.2336 7.74638 36.4109C5.92235 34.5882 5.74166 34.3819 5.74166 34.1239C5.74166 33.8574 5.90514 33.6597 7.45385 32.1035C9.26067 30.2722 9.51019 29.9369 9.69087 29.0255C9.9748 27.6671 9.18324 26.1539 7.87544 25.5521L7.33339 25.3028L4.7264 25.2598L2.11081 25.2168L1.94733 25.0105C1.79246 24.8213 1.78386 24.6408 1.78386 21.9927C1.78386 19.3446 1.79246 19.1641 1.94733 18.9749L2.11081 18.7686L4.7264 18.7256L7.33339 18.6826L7.87544 18.4333C8.24541 18.2613 8.56375 18.0292 8.8735 17.6853C9.48437 17.0233 9.72528 16.4214 9.72528 15.5015C9.73389 14.8997 9.69947 14.7363 9.45856 14.2205C9.21765 13.7046 8.95953 13.4037 7.46245 11.8905C5.90514 10.3257 5.74166 10.128 5.74166 9.86146C5.74166 9.60353 5.92235 9.39719 7.74638 7.5745C9.57041 5.7518 9.77691 5.57125 10.035 5.57125C10.3017 5.57125 10.4996 5.73461 12.0569 7.28218C13.8896 9.08768 14.2251 9.33701 15.1372 9.51756C16.4966 9.80128 18.0109 9.0103 18.6131 7.70346L18.8627 7.16181L18.9057 4.55674L18.9487 1.94306L19.1552 1.77971C19.3445 1.62495 19.5252 1.61635 22.1752 1.61635C24.8252 1.61635 25.0059 1.62495 25.1952 1.77971Z" fill="#634794"/>
<path d="M21.0136 14.7362C20.592 14.805 19.5939 15.1145 19.1121 15.3295C17.658 15.9743 16.1524 17.4789 15.5157 18.9233C15.008 20.0496 14.9048 20.5741 14.9048 21.9927C14.9048 23.4114 15.008 23.9358 15.5157 25.0621C16.1524 26.5065 17.658 28.0111 19.1121 28.656C20.2306 29.1546 20.7555 29.2578 22.1751 29.2578C23.5948 29.2578 24.1196 29.1546 25.2381 28.656C26.6922 28.0111 28.1979 26.5065 28.8346 25.0621C29.3422 23.9358 29.4454 23.4114 29.4454 21.9927C29.4454 20.8406 29.411 20.5741 29.2389 20.0152C28.6797 18.2355 27.7074 16.8857 26.262 15.9141C25.5565 15.4412 25.3069 15.3209 24.3863 15.02C23.6894 14.7878 23.4571 14.7534 22.4332 14.7276C21.7965 14.7104 21.1598 14.719 21.0136 14.7362ZM23.5862 16.4902C24.61 16.7481 25.3844 17.1952 26.1759 17.9948C27.3031 19.1211 27.8537 20.4279 27.8537 21.9927C27.8537 23.5575 27.3031 24.8644 26.1759 25.9907C25.0488 27.117 23.741 27.6672 22.1751 27.6672C20.6092 27.6672 19.3014 27.117 18.1743 25.9907C16.7202 24.5377 16.161 22.5516 16.6686 20.5827C17.1676 18.6138 18.768 17.006 20.7296 16.4902C21.5814 16.2666 22.7258 16.2666 23.5862 16.4902Z" fill="#634794"/>
</svg>
