<svg width="44" height="44" viewBox="0 0 44 44" fill="none" xmlns="http://www.w3.org/2000/svg">
<path d="M18.6729 0.0945778C18.1571 0.283722 17.6671 0.713604 17.4005 1.19507L17.1426 1.65934L17.0996 4.28161C17.0739 6.10431 17.0223 6.95547 16.9535 7.08443C16.773 7.40255 16.2571 7.79803 15.9047 7.89261C15.6553 7.96139 15.449 7.95279 15.1481 7.88401C14.7784 7.78944 14.5635 7.60889 12.9301 6.00114C11.3138 4.41058 11.0731 4.20424 10.6604 4.06667C10.0844 3.87753 9.37085 3.92911 8.83783 4.19564C8.59711 4.316 7.7288 5.11558 6.42204 6.42242C4.05784 8.77816 3.89449 9.0189 3.96327 10.0334C3.98906 10.3429 4.07503 10.7384 4.161 10.9018C4.24697 11.0651 5.09809 11.9937 6.05236 12.9652C7.62564 14.5558 7.79758 14.7707 7.89215 15.1404C7.96092 15.4413 7.96952 15.6477 7.90074 15.897C7.80617 16.2495 7.41071 16.7653 7.09261 16.9459C6.96366 17.0147 6.11254 17.0663 4.28996 17.0921L1.66784 17.135L1.2036 17.393C0.722157 17.6595 0.292302 18.1496 0.103165 18.6654C-0.0343884 19.0523 -0.0343884 24.9331 0.103165 25.32C0.292302 25.8358 0.722157 26.3259 1.2036 26.5924L1.66784 26.8503L4.28996 26.8933C6.11254 26.9191 6.96366 26.9707 7.09261 27.0395C7.41071 27.22 7.80617 27.7359 7.90074 28.0884C7.96952 28.3377 7.96092 28.5441 7.89215 28.845C7.79758 29.2147 7.62564 29.4296 6.05236 31.0202C5.09809 31.9917 4.24697 32.9203 4.161 33.0836C4.07503 33.247 3.98906 33.6425 3.96327 33.952C3.89449 34.9665 4.05784 35.2072 6.42204 37.563C7.7288 38.8698 8.59711 39.6694 8.83783 39.7897C9.37085 40.0563 10.0844 40.1079 10.6604 39.9187C11.0731 39.7812 11.3138 39.5748 12.9301 37.9843C14.5635 36.3765 14.7784 36.1959 15.1481 36.1014C15.449 36.0326 15.6553 36.024 15.9047 36.0928C16.2571 36.1873 16.773 36.5828 16.9535 36.901C17.0223 37.0299 17.0739 37.8811 17.0996 39.7038L17.1426 42.326L17.4005 42.7903C17.6671 43.2718 18.1571 43.7017 18.6729 43.8908C19.034 44.0198 24.6909 44.0456 25.2067 43.908C25.7483 43.779 26.3072 43.3234 26.5995 42.7903L26.8574 42.326L26.9004 39.7038C26.9261 37.8811 26.9777 37.0299 27.0465 36.901C27.227 36.5828 27.7429 36.1873 28.0954 36.0928C28.3447 36.024 28.551 36.0326 28.8519 36.1014C29.2216 36.1959 29.4365 36.3765 31.07 37.9843C32.6862 39.5748 32.9269 39.7812 33.3396 39.9187C33.9156 40.1079 34.6292 40.0563 35.1622 39.7897C35.4029 39.6694 36.2798 38.8612 37.578 37.563C39.9422 35.2072 40.1055 34.9665 40.0367 33.952C40.0109 33.6425 39.925 33.247 39.839 33.0836C39.753 32.9203 38.9019 31.9917 37.9476 31.0202C36.3744 29.4296 36.2024 29.2147 36.1079 28.845C36.0391 28.5441 36.0305 28.3377 36.0993 28.0884C36.1938 27.7359 36.5893 27.22 36.9074 27.0395C37.0363 26.9707 37.8875 26.9191 39.71 26.8933L42.3322 26.8503L42.7964 26.5924C43.2778 26.3259 43.7077 25.8358 43.8968 25.32C44.0344 24.9331 44.0344 19.0523 43.8968 18.6654C43.7077 18.1496 43.2778 17.6595 42.7964 17.393L42.3322 17.135L39.71 17.0921C37.8875 17.0663 37.0363 17.0147 36.9074 16.9459C36.5893 16.7653 36.1938 16.2495 36.0993 15.897C36.0305 15.6477 36.0391 15.4413 36.1079 15.1404C36.2024 14.7707 36.3744 14.5558 37.9476 12.9652C38.9019 11.9937 39.753 11.0651 39.839 10.9018C39.925 10.7384 40.0109 10.3429 40.0367 10.0334C40.1055 9.0189 39.9422 8.77816 37.578 6.42242C36.2712 5.11558 35.4029 4.316 35.1622 4.19564C34.6292 3.92911 33.9156 3.87753 33.3396 4.06667C32.9269 4.20424 32.6862 4.41058 31.07 6.00114C29.4365 7.60889 29.2216 7.78944 28.8519 7.88401C28.551 7.95279 28.3447 7.96139 28.0954 7.89261C27.7429 7.79803 27.227 7.40255 27.0465 7.08443C26.9777 6.95547 26.9261 6.10431 26.9004 4.28161L26.8574 1.65934L26.5995 1.19507C26.3329 0.713604 25.8429 0.283722 25.3271 0.0945778C25.1379 0.025795 24.1235 3.8147e-06 22 3.8147e-06C19.8765 3.8147e-06 18.8621 0.025795 18.6729 0.0945778ZM25.0176 1.77971L25.2239 1.94306L25.2669 4.55674L25.3099 7.16181L25.5592 7.70346C26.161 9.0103 27.6741 9.80128 29.0324 9.51756C29.9437 9.33701 30.279 9.08768 32.1102 7.28218C33.6663 5.73461 33.864 5.57125 34.1305 5.57125C34.3884 5.57125 34.5948 5.7518 36.4174 7.5745C38.2399 9.39719 38.4205 9.60353 38.4205 9.86146C38.4205 10.128 38.2571 10.3257 36.7097 11.8819C34.9043 13.7132 34.6549 14.0485 34.4744 14.9598C34.1907 16.3183 34.9816 17.8314 36.2884 18.4333L36.83 18.6826L39.4349 18.7256L42.0485 18.7686L42.2118 18.9749C42.3666 19.1641 42.3751 19.3446 42.3751 21.9927C42.3751 24.6408 42.3666 24.8213 42.2118 25.0105L42.0485 25.2168L39.4349 25.2598L36.83 25.3028L36.2884 25.5521C35.9187 25.7241 35.6006 25.9562 35.2911 26.3001C34.6807 26.9621 34.44 27.5639 34.44 28.4839C34.4314 29.0857 34.4658 29.2491 34.7065 29.7649C34.9472 30.2808 35.2052 30.5817 36.7011 32.0949C38.2571 33.6597 38.4205 33.8574 38.4205 34.1239C38.4205 34.3819 38.2399 34.5882 36.4174 36.4109C34.5948 38.2336 34.3884 38.4141 34.1305 38.4141C33.864 38.4141 33.6663 38.2508 32.1102 36.7032C30.279 34.8977 29.9437 34.6484 29.0324 34.4678C27.6741 34.1841 26.161 34.9751 25.5592 36.2819L25.3099 36.8236L25.2669 39.4286L25.2239 42.0423L25.0176 42.2057C24.8284 42.3604 24.6479 42.369 22 42.369C19.3521 42.369 19.1716 42.3604 18.9824 42.2057L18.7761 42.0423L18.7331 39.4286L18.6901 36.8236L18.4408 36.2905C18.1829 35.7231 17.5381 35.0267 17.0223 34.7687C16.4979 34.4936 15.5952 34.3561 15.0106 34.4592C14.0821 34.6312 13.7554 34.8719 11.8898 36.7032C10.3337 38.2422 10.1274 38.4141 9.86948 38.4141C9.61157 38.4141 9.39664 38.2336 7.58265 36.4109C5.76006 34.5882 5.57952 34.3819 5.57952 34.1239C5.57952 33.8574 5.74287 33.6597 7.29035 32.1035C9.09574 30.2722 9.34506 29.9369 9.5256 29.0255C9.8093 27.6671 9.01837 26.1539 7.71161 25.5521L7.16999 25.3028L4.56506 25.2598L1.95154 25.2168L1.7882 25.0105C1.63345 24.8213 1.62485 24.6408 1.62485 21.9927C1.62485 19.3446 1.63345 19.1641 1.7882 18.9749L1.95154 18.7686L4.56506 18.7256L7.16999 18.6826L7.71161 18.4333C8.08128 18.2613 8.39937 18.0292 8.70887 17.6853C9.31927 17.0233 9.55999 16.4214 9.55999 15.5015C9.56858 14.8997 9.53419 14.7363 9.29347 14.2205C9.05276 13.7046 8.79484 13.4037 7.29894 11.8905C5.74287 10.3257 5.57952 10.128 5.57952 9.86146C5.57952 9.60353 5.76006 9.39719 7.58265 7.5745C9.40524 5.7518 9.61157 5.57125 9.86948 5.57125C10.136 5.57125 10.3337 5.73461 11.8898 7.28218C13.721 9.08768 14.0563 9.33701 14.9676 9.51756C16.3259 9.80128 17.839 9.0103 18.4408 7.70346L18.6901 7.16181L18.7331 4.55674L18.7761 1.94306L18.9824 1.77971C19.1716 1.62495 19.3521 1.61635 22 1.61635C24.6479 1.61635 24.8284 1.62495 25.0176 1.77971Z" fill="#634794"/>
<path d="M20.8393 14.7364C20.418 14.8052 19.4208 15.1147 18.9393 15.3297C17.4864 15.9745 15.9819 17.4791 15.3457 18.9235C14.8385 20.0498 14.7354 20.5742 14.7354 21.9928C14.7354 23.4114 14.8385 23.9359 15.3457 25.0622C15.9819 26.5066 17.4864 28.0112 18.9393 28.656C20.057 29.1546 20.5814 29.2578 21.9999 29.2578C23.4184 29.2578 23.9429 29.1546 25.0605 28.656C26.5134 28.0112 28.0179 26.5066 28.6541 25.0622C29.1613 23.9359 29.2645 23.4114 29.2645 21.9928C29.2645 20.8407 29.2301 20.5742 29.0581 20.0154C28.4993 18.2357 27.5278 16.8858 26.0835 15.9143C25.3786 15.4414 25.1293 15.3211 24.2094 15.0202C23.513 14.788 23.2809 14.7536 22.2578 14.7278C21.6216 14.7107 20.9854 14.7192 20.8393 14.7364ZM23.4098 16.4904C24.4329 16.7483 25.2066 17.1954 25.9976 17.9949C27.1238 19.1212 27.674 20.4281 27.674 21.9928C27.674 23.5576 27.1238 24.8644 25.9976 25.9907C24.8713 27.117 23.5646 27.6673 21.9999 27.6673C20.4352 27.6673 19.1285 27.117 18.0023 25.9907C16.5493 24.5377 15.9905 22.5517 16.4978 20.5828C16.9964 18.614 18.5955 17.0062 20.5556 16.4904C21.4067 16.2668 22.5501 16.2668 23.4098 16.4904Z" fill="#634794"/>
</svg>
