<svg width="44" height="44" viewBox="0 0 44 44" fill="none" xmlns="http://www.w3.org/2000/svg">
<g clip-path="url(#clip0)">
<path d="M6.44515 5.62876C5.25062 5.92095 4.27952 6.83189 3.85843 8.06079C3.70374 8.51626 3.69515 8.93736 3.69515 18.3217V28.1014L1.87327 30.8342L0.0428027 33.5584L0.0170215 34.2459C-0.00016602 34.6241 0.0256152 35.1655 0.0771777 35.4491C0.352178 36.9444 1.52093 38.1303 3.00765 38.4139C3.63499 38.5342 40.3647 38.5342 40.992 38.4139C42.453 38.1389 43.6389 36.953 43.9139 35.5006C44.0514 34.7788 44.0256 33.8077 43.8623 33.4897C43.785 33.3436 42.9514 32.0717 42.0147 30.6624L40.3045 28.1014V18.3217C40.3045 8.93736 40.2959 8.51626 40.1412 8.06079C39.7116 6.8147 38.7405 5.91236 37.5116 5.62017C36.7639 5.4483 7.16702 5.45689 6.44515 5.62876ZM37.3826 7.48501C37.778 7.66548 38.1475 8.04361 38.3366 8.4647C38.4912 8.79126 38.4998 9.27251 38.4998 18.1499V27.4999H21.9998H5.49983V18.1499C5.49983 9.10923 5.50843 8.79986 5.67171 8.4647C5.9553 7.87173 6.28186 7.57954 6.84905 7.42486C7.17561 7.33892 10.2522 7.32173 22.1717 7.33032C35.6725 7.34751 37.1076 7.3647 37.3826 7.48501ZM40.1155 31.1264L41.3358 32.9569L33.7905 32.9999L26.2537 33.0428L25.9959 33.2319C25.8584 33.3264 25.6264 33.5327 25.4889 33.6788L25.2311 33.9452H21.9998H18.7686L18.5108 33.6788C18.3733 33.5327 18.1498 33.3264 18.0037 33.2319L17.7459 33.0428L10.2092 32.9999L2.6639 32.9569L3.88421 31.1264L5.09593 29.3045H21.9998H38.9037L40.1155 31.1264ZM17.3162 35.1483C17.9264 35.767 17.7631 35.7499 21.9998 35.7499C26.2365 35.7499 26.0733 35.767 26.6834 35.1483L27.0186 34.8045H34.5553C38.7061 34.8045 42.1178 34.8303 42.135 34.8733C42.1522 34.9077 42.135 35.1053 42.0834 35.3116C41.9717 35.8702 41.3444 36.4717 40.7428 36.6006C40.1069 36.7381 3.8928 36.7381 3.25686 36.6006C2.6553 36.4717 2.02796 35.8702 1.91624 35.3116C1.86468 35.1053 1.84749 34.9077 1.86468 34.8647C1.88187 34.8303 5.29358 34.8045 9.44436 34.8045H16.9811L17.3162 35.1483Z" fill="#634794"/>
</g>
<defs>
<clipPath id="clip0">
<rect width="44" height="44" fill="white"/>
</clipPath>
</defs>
</svg>
