<svg width="185" height="463" viewBox="0 0 185 463" fill="none" xmlns="http://www.w3.org/2000/svg">
<path d="M109.263 50.7917C105.112 44.7666 99.2465 39.1917 98.8751 31.7568C98.5346 24.9377 103.073 18.1673 101.159 11.6434C99.6872 6.62728 94.8319 3.60057 90.0875 1.99778C81.0041 -1.02675 71.2836 -0.607493 62.4346 3.1905L62.9149 2.81103C57.5141 0.655638 51.201 2.88074 46.9518 7.00199C42.7022 11.1232 40.1768 16.8357 38.2174 22.5602C36.2575 28.2847 34.7392 34.2187 32.0166 39.5854C29.2934 44.9522 25.1245 49.8329 19.624 51.6876C21.4654 55.8027 27.2218 57.2145 30.5979 54.3789C31.4604 53.5942 32.2356 52.6963 32.907 51.7045C35.1586 48.637 37.4103 45.5695 39.6622 42.502C41.979 47.1186 38.5178 53.4903 41.3657 57.7643C42.8342 59.9683 45.5162 60.8053 48.0072 61.4057C67.4762 66.0597 87.6722 65.2204 106.78 58.9634C108.316 58.4564 110.01 57.7581 110.647 56.2008C111.383 54.403 110.354 52.3761 109.263 50.7917Z" fill="#2F2E41"/>
<path d="M164.465 70.3048C164.344 70.9036 164.265 71.5122 164.228 72.125L121.675 99.6283L111.332 92.9573L100.306 109.13L117.592 122.933C118.988 124.048 120.67 124.626 122.384 124.579C124.099 124.532 125.753 123.864 127.1 122.674L170.979 83.8903C172.96 84.7116 175.116 84.8379 177.162 84.2525C179.208 83.6671 181.046 82.3977 182.433 80.6132C183.819 78.8287 184.687 76.6137 184.923 74.2627C185.158 71.9117 184.749 69.5361 183.749 67.4521C182.75 65.368 181.208 63.6741 179.329 62.5958C177.449 61.5175 175.321 61.1058 173.228 61.4154C171.134 61.7251 169.175 62.7415 167.61 64.3294C166.044 65.9173 164.948 68.0015 164.465 70.3048Z" fill="#FFB7B7"/>
<path d="M120.253 100.931L106.5 120.901C106.108 121.469 105.612 121.936 105.045 122.27C104.478 122.605 103.854 122.798 103.214 122.837C102.575 122.876 101.935 122.761 101.339 122.498C100.743 122.235 100.204 121.832 99.7597 121.315L84.1903 103.201C81.6032 100.943 79.9217 97.6272 79.5147 93.9813C79.1077 90.3355 80.0086 86.6577 82.0196 83.7553C84.0306 80.8529 86.9874 78.9631 90.2408 78.5007C93.4943 78.0383 96.7786 79.0411 99.3727 81.289L118.9 93.5222C119.459 93.8727 119.944 94.354 120.322 94.9334C120.7 95.5127 120.962 96.1766 121.091 96.8797C121.219 97.5828 121.211 98.3087 121.066 99.0079C120.921 99.707 120.644 100.363 120.253 100.931H120.253Z" fill="#A7156D"/>
<path d="M101.325 448.882L113.47 448.881L119.247 396.4L101.323 396.402L101.325 448.882Z" fill="#FFB7B7"/>
<path d="M98.2275 444.44L122.144 444.438H122.145C126.188 444.439 130.064 446.238 132.923 449.44C135.781 452.642 137.387 456.986 137.387 461.514V462.069L98.2283 462.071L98.2275 444.44Z" fill="#2F2E41"/>
<path d="M18.1153 448.882L30.2599 448.881L36.037 396.4L18.1133 396.402L18.1153 448.882Z" fill="#FFB7B7"/>
<path d="M15.0176 444.44L38.9344 444.438H38.9354C42.9776 444.439 46.8542 446.238 49.7125 449.44C52.5709 452.642 54.1768 456.986 54.1771 461.514V462.069L15.0183 462.071L15.0176 444.44Z" fill="#2F2E41"/>
<path d="M94.0321 43.3725C95.2969 30.4636 86.9815 18.85 75.4591 17.433C63.9367 16.0159 53.5707 25.332 52.3058 38.241C51.041 51.1499 59.3564 62.7635 70.8787 64.1805C82.4011 65.5976 92.7673 56.2815 94.0321 43.3725Z" fill="#FFB7B7"/>
<path d="M85.4495 72.0579L97.8143 78.9206C97.8143 78.9206 111.63 105.819 103.705 131.345C99.8573 143.737 110.692 183.242 110.692 183.242C110.692 183.242 127.479 362.184 127.532 417.412C106.677 421.004 86.8649 425.443 85.8743 414.345C84.8837 403.247 74.0402 272.027 74.0402 272.027C74.0402 272.027 59.1284 417.675 47.2413 419.894C35.3542 422.114 11.5801 418.784 11.5801 418.784C11.5801 418.784 30.4543 205.439 43.3319 192.121L45.3131 181.023L45.2601 81.4032L60.0968 73.4707L85.4495 72.0579Z" fill="#2F2E41"/>
<path d="M41.217 223.291C42.5853 222.462 43.7746 221.306 44.7011 219.906C45.6277 218.506 46.2689 216.896 46.5798 215.188C46.8906 213.48 46.8634 211.716 46.5001 210.022C46.1369 208.327 45.4463 206.742 44.4772 205.379L58.8572 97.9914L40.07 96.981L28.8603 203.924C26.9238 205.899 25.7015 208.603 25.425 211.521C25.1486 214.439 25.8371 217.369 27.3602 219.756C28.8833 222.144 31.1352 223.822 33.6891 224.474C36.243 225.125 38.9215 224.705 41.217 223.291V223.291Z" fill="#FFB7B7"/>
<path d="M58.4484 124.899L35.9795 123.309C35.3402 123.264 34.7171 123.065 34.1526 122.726C33.5882 122.387 33.0956 121.915 32.7086 121.343C32.3215 120.771 32.049 120.113 31.9096 119.412C31.7702 118.712 31.7671 117.986 31.9007 117.284L36.5825 92.69C36.8069 89.0263 38.3192 85.6118 40.7875 83.1955C43.2558 80.7791 46.4787 79.5581 49.7494 79.8002C53.0202 80.0424 56.0717 81.7279 58.2347 84.4871C60.3978 87.2463 61.4958 90.8541 61.2881 94.519L63.1712 119.496C63.2249 120.211 63.1404 120.931 62.9235 121.606C62.7066 122.281 62.3623 122.896 61.9141 123.409C61.4659 123.922 60.9243 124.32 60.3263 124.577C59.7282 124.834 59.0877 124.944 58.4484 124.899L58.4484 124.899Z" fill="#A7156D"/>
<path d="M155.116 462.967H0.406064C0.298369 462.967 0.195085 462.87 0.118933 462.696C0.0427813 462.523 0 462.289 0 462.044C0 461.799 0.0427813 461.564 0.118933 461.391C0.195085 461.218 0.298369 461.121 0.406064 461.121H155.116C155.224 461.121 155.327 461.218 155.404 461.391C155.48 461.564 155.523 461.799 155.523 462.044C155.523 462.289 155.48 462.523 155.404 462.696C155.327 462.87 155.224 462.967 155.116 462.967Z" fill="#CBCBCB"/>
<path d="M95.1666 25.5211C94.3487 21.3645 91.6923 17.9206 88.632 15.3984C83.5871 11.2406 77.4004 9.1968 71.1492 9.6227C64.8979 10.0486 58.9779 12.9173 54.4199 17.7292C51.873 20.2494 50.0369 23.5465 49.1361 27.2172C48.7063 29.0519 48.6834 30.9764 49.0693 32.8233C49.4551 34.6702 50.238 36.3834 51.3499 37.8138L51.7693 38.1081C51.3891 36.3013 52.6418 34.4959 54.1383 33.6988C55.6948 33.0588 57.3195 32.6507 58.9709 32.4849C61.4693 31.9558 63.8373 30.8322 65.9148 29.1897C67.9923 27.5473 69.7309 25.4244 71.0132 22.9645C71.9633 25.9921 73.481 28.7567 75.4643 31.0723C77.4476 33.388 79.8505 35.201 82.5114 36.3894C85.2853 37.6047 92.9043 39.276 95.5453 37.733C98.9141 35.7649 95.9845 29.6779 95.1666 25.5211Z" fill="#2F2E41"/>
</svg>
