<svg width="187" height="464" viewBox="0 0 187 464" fill="none" xmlns="http://www.w3.org/2000/svg">
<path d="M110.301 51.6091C106.111 45.5839 100.189 40.0091 99.8145 32.5742C99.4707 25.7551 104.052 18.9847 102.12 12.4608C100.634 7.44466 95.7329 4.41795 90.9434 2.81516C81.7737 -0.20937 71.9608 0.20989 63.0278 4.00788L63.5127 3.62842C58.0606 1.47302 51.6875 3.69812 47.398 7.81937C43.108 11.9406 40.5586 17.653 38.5806 23.3776C36.602 29.1021 35.0693 35.036 32.3208 40.4028C29.5718 45.7696 25.3633 50.6502 19.8105 52.505C21.6694 56.6201 27.4805 58.0319 30.8887 55.1963C31.7593 54.4116 32.5419 53.5137 33.2197 52.5219C35.4927 49.4544 37.7658 46.3869 40.0391 43.3194C42.3779 47.936 38.8838 54.3077 41.7588 58.5817C43.2412 60.7857 45.9487 61.6227 48.4634 62.2231C68.1173 66.877 88.5052 66.0378 107.794 59.7808C109.345 59.2738 111.055 58.5755 111.698 57.0182C112.441 55.2204 111.402 53.1934 110.301 51.6091Z" fill="#2F2E41"/>
<path d="M166.028 71.1221C165.905 71.721 165.825 72.3296 165.789 72.9423L122.831 100.446L112.39 93.7747L101.259 109.947L118.709 123.75C120.119 124.866 121.817 125.443 123.547 125.396C125.278 125.349 126.948 124.681 128.307 123.491L172.604 84.7077C174.603 85.529 176.78 85.6553 178.845 85.0699C180.911 84.4845 182.767 83.2151 184.166 81.4306C185.565 79.6461 186.442 77.4311 186.68 75.0801C186.917 72.7291 186.504 70.3535 185.495 68.2694C184.486 66.1854 182.93 64.4915 181.033 63.4132C179.135 62.3348 176.987 61.9231 174.874 62.2328C172.76 62.5425 170.782 63.5589 169.202 65.1468C167.622 66.7347 166.515 68.8189 166.028 71.1221Z" fill="#FFB7B7"/>
<path d="M121.395 101.749L107.512 121.719C107.117 122.287 106.616 122.754 106.044 123.088C105.471 123.422 104.841 123.615 104.195 123.654C103.549 123.694 102.904 123.578 102.302 123.315C101.7 123.053 101.156 122.649 100.708 122.132L84.9905 104.019C82.3789 101.761 80.6813 98.4446 80.2705 94.7987C79.8596 91.1529 80.7691 87.4751 82.7992 84.5727C84.8293 81.6703 87.8141 79.7805 91.0985 79.3181C94.3829 78.8557 97.6984 79.8585 100.317 82.1064L120.03 94.3396C120.594 94.69 121.084 95.1713 121.466 95.7507C121.847 96.3301 122.112 96.994 122.242 97.6971C122.371 98.4002 122.363 99.1261 122.217 99.8252C122.071 100.524 121.791 101.18 121.396 101.749H121.395Z" fill="#C13584"/>
<path d="M102.288 449.699L114.548 449.698L120.38 397.218L102.286 397.219L102.288 449.699Z" fill="#FFB7B7"/>
<path d="M99.1606 445.257L123.305 445.256H123.306C127.386 445.256 131.3 447.055 134.185 450.258C137.071 453.46 138.692 457.803 138.692 462.332V462.887L99.1614 462.888L99.1606 445.257Z" fill="#2F2E41"/>
<path d="M18.2881 449.699L30.5481 449.698L36.3801 397.218L18.2861 397.219L18.2881 449.699Z" fill="#FFB7B7"/>
<path d="M15.1606 445.257L39.3047 445.256H39.3057C43.3863 445.256 47.2997 447.055 50.1852 450.258C53.0707 453.46 54.6919 457.803 54.6921 462.332V462.887L15.1614 462.888L15.1606 445.257Z" fill="#2F2E41"/>
<path d="M94.9254 44.1899C96.2022 31.2809 87.8078 19.6674 76.1759 18.2504C64.5441 16.8333 54.0795 26.1494 52.8027 39.0583C51.5258 51.9673 59.9202 63.5809 71.5521 64.9979C83.1839 66.415 93.6485 57.0989 94.9254 44.1899Z" fill="#FFB7B7"/>
<path d="M86.2612 72.8752L98.7434 79.738C98.7434 79.738 112.69 106.636 104.69 132.162C100.806 144.555 111.743 184.06 111.743 184.06C111.743 184.06 128.69 363.002 128.743 418.229C107.69 421.821 87.6899 426.261 86.6899 415.163C85.6899 404.065 74.7434 272.844 74.7434 272.844C74.7434 272.844 59.6899 418.492 47.6899 420.712C35.6899 422.931 11.6899 419.602 11.6899 419.602C11.6899 419.602 30.7434 206.256 43.7434 192.938L45.7434 181.84L45.6899 82.2206L60.6675 74.2881L86.2612 72.8752Z" fill="#2F2E41"/>
<path d="M41.6083 224.109C42.9896 223.279 44.1902 222.124 45.1255 220.724C46.0609 219.324 46.7083 217.713 47.022 216.005C47.3358 214.297 47.3084 212.534 46.9417 210.839C46.5749 209.144 45.8778 207.559 44.8994 206.196L59.4161 98.8088L40.4504 97.7983L29.1342 204.741C27.1793 206.717 25.9454 209.42 25.6663 212.338C25.3872 215.256 26.0823 218.187 27.6199 220.574C29.1575 222.961 31.4307 224.64 34.0089 225.291C36.587 225.943 39.291 225.522 41.6083 224.109Z" fill="#FFB7B7"/>
<path d="M59.0043 125.716L36.3219 124.127C35.6765 124.082 35.0475 123.883 34.4777 123.543C33.9079 123.204 33.4107 122.732 33.0199 122.16C32.6292 121.589 32.3541 120.93 32.2133 120.23C32.0726 119.529 32.0695 118.803 32.2044 118.101L36.9306 93.5074C37.1572 89.8437 38.6838 86.4292 41.1756 84.0129C43.6673 81.5965 46.9209 80.3755 50.2227 80.6176C53.5245 80.8597 56.605 82.5452 58.7886 85.3045C60.9722 88.0637 62.0807 91.6714 61.8709 95.3364L63.7719 120.313C63.8262 121.028 63.7409 121.748 63.5219 122.423C63.3029 123.098 62.9553 123.713 62.5029 124.226C62.0504 124.739 61.5037 125.137 60.9 125.395C60.2962 125.652 59.6497 125.761 59.0043 125.716L59.0043 125.716Z" fill="#C13584"/>
<path d="M156.59 463.784H0.409922C0.301204 463.784 0.196938 463.687 0.120063 463.514C0.0431877 463.341 0 463.106 0 462.861C0 462.617 0.0431877 462.382 0.120063 462.209C0.196938 462.036 0.301204 461.938 0.409922 461.938H156.59C156.699 461.938 156.803 462.036 156.88 462.209C156.957 462.382 157 462.617 157 462.861C157 463.106 156.957 463.341 156.88 463.514C156.803 463.687 156.699 463.784 156.59 463.784Z" fill="#CBCBCB"/>
<path d="M96.0705 26.3385C95.2448 22.1819 92.5631 18.738 89.4738 16.2158C84.381 12.058 78.1356 10.0142 71.8249 10.4401C65.5142 10.866 59.538 13.7346 54.9367 18.5466C52.3657 21.0668 50.5121 24.3639 49.6027 28.0346C49.1689 29.8693 49.1457 31.7938 49.5352 33.6407C49.9247 35.4876 50.7151 37.2008 51.8375 38.6312L52.2609 38.9254C51.8771 37.1187 53.1417 35.3133 54.6525 34.5162C56.2237 33.8762 57.8639 33.468 59.5309 33.3022C62.0531 32.7732 64.4435 31.6495 66.5408 30.0071C68.638 28.3647 70.3932 26.2418 71.6876 23.7819C72.6467 26.8095 74.1789 29.5741 76.181 31.8897C78.1832 34.2054 80.6089 36.0183 83.295 37.2068C86.0953 38.4221 93.7867 40.0934 96.4528 38.5503C99.8536 36.5823 96.8962 30.4952 96.0705 26.3385Z" fill="#2F2E41"/>
</svg>
