<svg width="193" height="183" viewBox="0 0 193 183" fill="none" xmlns="http://www.w3.org/2000/svg">
<path d="M142.674 138.964L45.7769 164.302C42.49 165.157 39.0032 164.654 36.0813 162.902C33.1595 161.15 31.0413 158.293 30.1914 154.957L0.88707 39.3993C0.0446195 36.0616 0.540354 32.5209 2.26552 29.5539C3.99069 26.5869 6.8044 24.4359 10.0894 23.5729L100.237 0L123.31 10.4889L151.877 123.137C152.719 126.475 152.223 130.016 150.498 132.983C148.773 135.95 145.959 138.101 142.674 138.964Z" fill="#F2F2F2"/>
<path d="M11.0078 27.1961C8.66853 27.8106 6.66483 29.3424 5.4363 31.4552C4.20776 33.5681 3.85474 36.0895 4.45467 38.4664L33.759 154.024C34.3642 156.4 35.8726 158.435 37.9533 159.682C40.034 160.93 42.5171 161.288 44.8577 160.679L141.755 135.341C144.095 134.726 146.098 133.194 147.327 131.082C148.555 128.969 148.908 126.447 148.308 124.07L120.184 13.1674L99.9071 3.94946L11.0078 27.1961Z" fill="white"/>
<path d="M123.064 11.0874L108.068 15.0088C106.973 15.295 105.811 15.128 104.837 14.5443C103.864 13.9607 103.159 13.0082 102.877 11.8966L100.025 0.649501C100.012 0.600261 100.013 0.548444 100.029 0.499994C100.044 0.451543 100.072 0.40842 100.11 0.375569C100.149 0.342717 100.195 0.321467 100.245 0.314257C100.294 0.307047 100.345 0.314167 100.391 0.334803L123.105 10.5782C123.156 10.601 123.198 10.6392 123.226 10.6875C123.255 10.7358 123.267 10.7919 123.263 10.8478C123.258 10.9038 123.237 10.957 123.201 10.9999C123.165 11.0428 123.117 11.0734 123.064 11.0874Z" fill="#F2F2F2"/>
<path d="M115.174 109.769L71.0577 121.305C70.7867 121.376 70.5046 121.392 70.2275 121.352C69.9504 121.313 69.6837 121.218 69.4427 121.073C69.2017 120.929 68.991 120.737 68.8228 120.51C68.6546 120.283 68.5321 120.025 68.4623 119.749C68.3926 119.474 68.3768 119.188 68.4161 118.906C68.4553 118.625 68.5487 118.354 68.691 118.109C68.8333 117.864 69.0217 117.651 69.2454 117.48C69.4691 117.309 69.7237 117.185 69.9948 117.114L114.111 105.578C114.382 105.507 114.664 105.491 114.941 105.531C115.218 105.571 115.485 105.665 115.726 105.81C115.967 105.954 116.178 106.146 116.346 106.373C116.514 106.6 116.636 106.859 116.706 107.134C116.776 107.409 116.792 107.695 116.753 107.977C116.713 108.258 116.62 108.529 116.478 108.774C116.335 109.019 116.147 109.232 115.923 109.403C115.7 109.574 115.445 109.698 115.174 109.769Z" fill="#CCCCCC"/>
<path d="M125.481 114.616L72.8517 128.379C72.3043 128.522 71.7234 128.438 71.2366 128.146C70.7499 127.855 70.3973 127.378 70.2563 126.823C70.1153 126.267 70.1976 125.677 70.485 125.183C70.7724 124.688 71.2414 124.33 71.7887 124.187L124.418 110.425C124.966 110.282 125.546 110.366 126.032 110.658C126.519 110.95 126.871 111.426 127.012 111.981C127.153 112.537 127.071 113.127 126.784 113.621C126.497 114.115 126.028 114.473 125.481 114.616Z" fill="#CCCCCC"/>
<path d="M53.0523 135.199C57.2125 135.199 60.5851 131.775 60.5851 127.55C60.5851 123.326 57.2125 119.901 53.0523 119.901C48.8921 119.901 45.5195 123.326 45.5195 127.55C45.5195 131.775 48.8921 135.199 53.0523 135.199Z" fill="#E6E6E6"/>
<path d="M110.483 89.7503L51.8928 105.066C50.1995 105.506 48.4033 105.247 46.8982 104.344C45.3931 103.442 44.302 101.969 43.8643 100.251L31.5859 51.8148C31.1521 50.0954 31.4076 48.2714 32.2965 46.743C33.1854 45.2146 34.6349 44.1067 36.3272 43.6623L94.9178 28.347C96.6111 27.9064 98.4073 28.1659 99.9124 29.0685C101.417 29.9711 102.509 31.4431 102.946 33.1616L115.225 81.5978C115.658 83.3172 115.403 85.1412 114.514 86.6696C113.625 88.198 112.176 89.3059 110.483 89.7503Z" fill="white"/>
<path d="M110.483 89.7503L51.8928 105.066C50.1995 105.506 48.4033 105.247 46.8982 104.344C45.3931 103.442 44.302 101.969 43.8643 100.251L31.5859 51.8148C31.1521 50.0954 31.4076 48.2714 32.2965 46.743C33.1854 45.2146 34.6349 44.1067 36.3272 43.6623L94.9178 28.347C96.6111 27.9064 98.4073 28.1659 99.9124 29.0685C101.417 29.9711 102.509 31.4431 102.946 33.1616L115.225 81.5978C115.658 83.3172 115.403 85.1412 114.514 86.6696C113.625 88.198 112.176 89.3059 110.483 89.7503ZM36.5206 44.425C35.0274 44.8172 33.7484 45.7948 32.9641 47.1433C32.1798 48.4919 31.9543 50.1013 32.3371 51.6185L44.6155 100.055C45.0017 101.571 45.9644 102.87 47.2924 103.666C48.6205 104.463 50.2054 104.692 51.6994 104.303L110.29 88.9875C111.783 88.5954 113.062 87.6178 113.847 86.2692C114.631 84.9207 114.856 83.3113 114.473 81.7941L102.195 33.3579C101.809 31.8416 100.846 30.5428 99.5181 29.7464C98.1901 28.95 96.6052 28.721 95.1111 29.1097L36.5206 44.425Z" fill="#E6E6E6"/>
<path d="M91.9452 44.6332L62.3753 52.3627C62.1168 52.436 61.8405 52.4069 61.6024 52.2813C61.3642 52.1556 61.1818 51.9428 61.0922 51.6859C61.0505 51.5517 61.0362 51.4103 61.0501 51.2703C61.064 51.1302 61.1058 50.9946 61.1731 50.8715C61.2403 50.7484 61.3315 50.6406 61.4412 50.5545C61.5508 50.4684 61.6766 50.4059 61.8108 50.3708L91.911 42.5027C93.127 43.1283 92.807 44.4079 91.9448 44.6333L91.9452 44.6332Z" fill="#F2F2F2"/>
<path d="M93.2806 49.9003L63.7108 57.6296C63.4522 57.7029 63.176 57.6737 62.9378 57.5481C62.6996 57.4225 62.5173 57.2097 62.4277 56.9528C62.386 56.8186 62.3716 56.6772 62.3855 56.5371C62.3994 56.3971 62.4413 56.2614 62.5085 56.1384C62.5757 56.0153 62.667 55.9075 62.7766 55.8214C62.8863 55.7353 63.012 55.6728 63.1462 55.6377L93.2466 47.7698C94.4625 48.3954 94.1425 49.675 93.2803 49.9003L93.2806 49.9003Z" fill="#F2F2F2"/>
<path d="M58.0786 62.2996L49.0542 64.6585C48.7594 64.7353 48.4468 64.6901 48.1848 64.533C47.9228 64.3759 47.7329 64.1196 47.6568 63.8205L44.9154 53.0063C44.8398 52.707 44.8843 52.3895 45.039 52.1235C45.1937 51.8575 45.4461 51.6646 45.7407 51.5873L54.7651 49.2283C55.0598 49.1517 55.3724 49.1969 55.6344 49.354C55.8964 49.5111 56.0863 49.7673 56.1625 50.0664L58.9039 60.8806C58.9795 61.1799 58.935 61.4974 58.7803 61.7634C58.6255 62.0294 58.3732 62.2223 58.0786 62.2996V62.2996Z" fill="#E6E6E6"/>
<path d="M95.9286 60.707L50.7996 72.5034C50.5411 72.5766 50.2648 72.5475 50.0267 72.4219C49.7885 72.2963 49.6061 72.0835 49.5165 71.8266C49.4748 71.6924 49.4605 71.5509 49.4744 71.4109C49.4883 71.2709 49.5301 71.1352 49.5974 71.0122C49.6646 70.8891 49.7558 70.7813 49.8655 70.6952C49.9751 70.6091 50.1009 70.5466 50.2351 70.5115L95.8949 58.5764C97.1108 59.202 96.7908 60.4816 95.9286 60.707L95.9286 60.707Z" fill="#F2F2F2"/>
<path d="M97.2641 65.9753L52.1351 77.7719C51.8766 77.8452 51.6003 77.8161 51.3621 77.6904C51.1239 77.5648 50.9416 77.352 50.852 77.0951C50.8103 76.9609 50.7959 76.8195 50.8098 76.6794C50.8237 76.5394 50.8656 76.4037 50.9328 76.2807C51.0001 76.1576 51.0913 76.0498 51.2009 75.9637C51.3106 75.8776 51.4363 75.8151 51.5706 75.78L97.2304 63.8447C98.4463 64.4703 98.1263 65.75 97.2641 65.9753V65.9753Z" fill="#F2F2F2"/>
<path d="M98.5986 71.2405L53.4696 83.037C53.211 83.1103 52.9348 83.0812 52.6966 82.9556C52.4584 82.83 52.2761 82.6172 52.1865 82.3603C52.1447 82.226 52.1304 82.0846 52.1443 81.9446C52.1582 81.8046 52.2 81.6689 52.2673 81.5458C52.3345 81.4228 52.4258 81.3149 52.5354 81.2288C52.6451 81.1428 52.7708 81.0803 52.905 81.0452L98.5649 69.1099C99.7808 69.7355 99.4608 71.0151 98.5986 71.2405Z" fill="#F2F2F2"/>
<path d="M99.934 76.5083L54.805 88.3051C54.5465 88.3784 54.2702 88.3493 54.032 88.2236C53.7939 88.098 53.6115 87.8852 53.5219 87.6283C53.4802 87.4941 53.4659 87.3527 53.4798 87.2126C53.4936 87.0726 53.5355 86.9369 53.6027 86.8139C53.67 86.6908 53.7612 86.5829 53.8709 86.4969C53.9805 86.4108 54.1063 86.3483 54.2405 86.3132L99.9002 74.3777C101.116 75.0033 100.796 76.283 99.934 76.5083L99.934 76.5083Z" fill="#F2F2F2"/>
<path d="M101.269 81.7737L56.1395 93.5703C55.881 93.6435 55.6047 93.6144 55.3665 93.4888C55.1283 93.3631 54.946 93.1504 54.8564 92.8934C54.8147 92.7592 54.8003 92.6178 54.8142 92.4778C54.8281 92.3378 54.87 92.2021 54.9372 92.079C55.0044 91.956 55.0957 91.8481 55.2053 91.762C55.315 91.676 55.4407 91.6135 55.5749 91.5784L101.235 79.6431C102.451 80.2687 102.131 81.5483 101.269 81.7737Z" fill="#F2F2F2"/>
<path d="M53.6082 130.231C53.4442 130.274 53.2708 130.262 53.1141 130.197L53.1044 130.193L51.0523 129.309C50.9571 129.268 50.8707 129.209 50.7982 129.134C50.7256 129.059 50.6684 128.97 50.6296 128.873C50.5908 128.775 50.5714 128.671 50.5723 128.566C50.5732 128.461 50.5945 128.358 50.635 128.261C50.6755 128.164 50.7343 128.077 50.8081 128.003C50.882 127.93 50.9694 127.872 51.0653 127.832C51.1612 127.793 51.2639 127.774 51.3673 127.775C51.4707 127.776 51.5729 127.798 51.668 127.839L52.9977 128.413L54.7402 124.251C54.7806 124.154 54.8393 124.067 54.913 123.993C54.9867 123.92 55.074 123.862 55.1697 123.823C55.2655 123.783 55.368 123.764 55.4712 123.765C55.5745 123.766 55.6766 123.787 55.7716 123.828L55.7718 123.828L55.7614 123.856L55.7723 123.828C55.9641 123.911 56.1156 124.068 56.1936 124.265C56.2715 124.461 56.2696 124.681 56.1882 124.876L54.1381 129.77C54.0906 129.883 54.0181 129.983 53.9263 130.063C53.8345 130.143 53.7258 130.2 53.6087 130.23L53.6082 130.231Z" fill="white"/>
<path d="M179.84 183H79.7816C76.3885 182.996 73.1354 181.626 70.7361 179.189C68.3368 176.753 66.9872 173.449 66.9834 170.004V50.676C66.9872 47.2304 68.3368 43.9271 70.7361 41.4907C73.1354 39.0543 76.3885 37.6838 79.7816 37.6799H172.87L192.638 53.6805V170.004C192.635 173.449 191.285 176.753 188.886 179.189C186.486 181.626 183.233 182.996 179.84 183Z" fill="#E6E6E6"/>
<path d="M79.7814 41.4211C77.3651 41.4239 75.0485 42.3999 73.3399 44.1349C71.6313 45.8699 70.6702 48.2223 70.6675 50.6759V170.004C70.6702 172.457 71.6313 174.81 73.3399 176.545C75.0485 178.28 77.3651 179.256 79.7814 179.259H179.84C182.256 179.256 184.573 178.28 186.282 176.545C187.99 174.81 188.951 172.457 188.954 170.004V55.4828L171.581 41.4211H79.7814Z" fill="white"/>
<path d="M160.378 76.1187H114.823C114.258 76.1187 113.716 75.8906 113.316 75.4848C112.916 75.0789 112.692 74.5284 112.692 73.9545C112.692 73.3805 112.916 72.83 113.316 72.4242C113.716 72.0183 114.258 71.7903 114.823 71.7903H160.378C160.944 71.7903 161.486 72.0183 161.885 72.4242C162.285 72.83 162.51 73.3805 162.51 73.9545C162.51 74.5284 162.285 75.0789 161.885 75.4848C161.486 75.8906 160.944 76.1187 160.378 76.1187Z" fill="#A7156D"/>
<path d="M169.17 83.4228H114.823C114.258 83.4221 113.717 83.1937 113.318 82.7879C112.919 82.3821 112.695 81.832 112.695 81.2585C112.695 80.685 112.919 80.135 113.318 79.7292C113.717 79.3234 114.258 79.095 114.823 79.0942H169.17C169.45 79.0939 169.727 79.1495 169.986 79.2581C170.245 79.3667 170.481 79.5261 170.679 79.7271C170.877 79.9281 171.034 80.1668 171.142 80.4296C171.249 80.6924 171.304 80.9741 171.304 81.2585C171.304 81.543 171.249 81.8247 171.142 82.0875C171.034 82.3502 170.877 82.589 170.679 82.79C170.481 82.991 170.245 83.1504 169.986 83.2589C169.727 83.3675 169.45 83.4232 169.17 83.4228Z" fill="#A7156D"/>
<path d="M160.379 104.522H114.825C114.26 104.522 113.718 104.75 113.318 105.156C112.918 105.562 112.694 106.112 112.694 106.686C112.694 107.26 112.918 107.811 113.318 108.217C113.718 108.622 114.26 108.85 114.825 108.85H160.379C160.944 108.85 161.486 108.622 161.886 108.217C162.285 107.811 162.51 107.26 162.51 106.686C162.51 106.112 162.285 105.562 161.886 105.156C161.486 104.75 160.944 104.522 160.379 104.522Z" fill="#CCCCCC"/>
<path d="M169.171 111.828H114.825C114.26 111.828 113.718 112.056 113.318 112.462C112.918 112.868 112.694 113.418 112.694 113.992C112.694 114.566 112.918 115.116 113.318 115.522C113.718 115.928 114.26 116.156 114.825 116.156H169.171C169.736 116.156 170.278 115.928 170.678 115.522C171.077 115.116 171.302 114.566 171.302 113.992C171.302 113.418 171.077 112.868 170.678 112.462C170.278 112.056 169.736 111.828 169.171 111.828Z" fill="#CCCCCC"/>
<path d="M160.378 141.585H114.823C114.258 141.585 113.716 141.357 113.316 140.952C112.916 140.546 112.692 139.995 112.692 139.421C112.692 138.847 112.916 138.297 113.316 137.891C113.716 137.485 114.258 137.257 114.823 137.257H160.378C160.944 137.257 161.486 137.485 161.885 137.891C162.285 138.297 162.51 138.847 162.51 139.421C162.51 139.995 162.285 140.546 161.885 140.952C161.486 141.357 160.944 141.585 160.378 141.585Z" fill="#CCCCCC"/>
<path d="M169.17 148.89H114.823C114.258 148.889 113.717 148.661 113.318 148.255C112.919 147.849 112.695 147.299 112.695 146.725C112.695 146.152 112.919 145.602 113.318 145.196C113.717 144.79 114.258 144.562 114.823 144.561H169.17C169.45 144.561 169.727 144.617 169.986 144.725C170.245 144.834 170.481 144.993 170.679 145.194C170.877 145.395 171.034 145.634 171.142 145.897C171.249 146.159 171.304 146.441 171.304 146.725C171.304 147.01 171.249 147.292 171.142 147.554C171.034 147.817 170.877 148.056 170.679 148.257C170.481 148.458 170.245 148.617 169.986 148.726C169.727 148.834 169.45 148.89 169.17 148.89Z" fill="#CCCCCC"/>
<path d="M95.8531 85.2556C100.013 85.2556 103.386 81.8309 103.386 77.6063C103.386 73.3817 100.013 69.957 95.8531 69.957C91.6928 69.957 88.3203 73.3817 88.3203 77.6063C88.3203 81.8309 91.6928 85.2556 95.8531 85.2556Z" fill="#A7156D"/>
<path d="M95.1065 80.5242C94.937 80.5245 94.772 80.4688 94.6365 80.3655L94.628 80.3592L92.8577 78.984C92.7755 78.9202 92.7065 78.8407 92.6546 78.7498C92.6026 78.6589 92.5689 78.5585 92.5552 78.4544C92.5416 78.3503 92.5483 78.2444 92.5749 78.1429C92.6016 78.0414 92.6478 77.9463 92.7107 77.8629C92.7736 77.7795 92.8522 77.7096 92.9418 77.657C93.0314 77.6045 93.1303 77.5705 93.2329 77.5568C93.3355 77.5432 93.4397 77.5502 93.5396 77.5775C93.6395 77.6048 93.7331 77.6519 93.815 77.716L94.9617 78.6089L97.6713 75.0192C97.7341 74.936 97.8125 74.8662 97.9019 74.8137C97.9913 74.7612 98.09 74.7272 98.1924 74.7134C98.2948 74.6997 98.3988 74.7066 98.4986 74.7337C98.5984 74.7608 98.6919 74.8076 98.7739 74.8714L98.7741 74.8715L98.7573 74.8952L98.7745 74.8715C98.9399 75.0006 99.0481 75.1909 99.0753 75.4009C99.1026 75.6108 99.0467 75.8232 98.92 75.9913L95.7329 80.2117C95.6592 80.3089 95.5644 80.3876 95.4559 80.4416C95.3473 80.4957 95.228 80.5236 95.1072 80.5232L95.1065 80.5242Z" fill="white"/>
<path d="M104.16 110.339C104.16 111.344 103.966 112.339 103.587 113.267C103.209 114.195 102.654 115.039 101.955 115.749C101.256 116.46 100.425 117.024 99.5113 117.408C98.5973 117.793 97.6177 117.991 96.6283 117.991C96.5636 117.992 96.4989 117.99 96.4344 117.983C94.9533 117.945 93.5163 117.463 92.3031 116.6C91.09 115.736 90.1547 114.528 89.6143 113.127C89.0738 111.726 88.9522 110.195 89.2646 108.724C89.5771 107.253 90.3097 105.909 91.3709 104.859C92.432 103.809 93.7746 103.1 95.2305 102.821C96.6864 102.542 98.191 102.705 99.5561 103.29C100.921 103.875 102.086 104.856 102.905 106.109C103.724 107.363 104.16 108.835 104.16 110.339Z" fill="#CCCCCC"/>
<path d="M95.8531 150.723C100.013 150.723 103.386 147.298 103.386 143.073C103.386 138.849 100.013 135.424 95.8531 135.424C91.6928 135.424 88.3203 138.849 88.3203 143.073C88.3203 147.298 91.6928 150.723 95.8531 150.723Z" fill="#CCCCCC"/>
<path d="M192.253 54.1953H176.768C175.637 54.1953 174.553 53.7393 173.754 52.9276C172.954 52.1158 172.505 51.0149 172.505 49.8669V38.2527C172.505 38.2019 172.519 38.152 172.546 38.109C172.573 38.0659 172.611 38.0313 172.656 38.0092C172.701 37.987 172.751 37.9782 172.801 37.9838C172.851 37.9894 172.898 38.0091 172.937 38.0407L192.419 53.7127C192.462 53.7476 192.494 53.7953 192.509 53.8493C192.525 53.9032 192.523 53.9607 192.505 54.0137C192.487 54.0668 192.453 54.1128 192.408 54.1453C192.363 54.1778 192.309 54.1953 192.253 54.1953Z" fill="#CCCCCC"/>
<path d="M104.16 110.339C104.16 111.344 103.966 112.339 103.587 113.267C103.209 114.195 102.654 115.039 101.955 115.749C101.256 116.46 100.425 117.024 99.5113 117.408C98.5973 117.793 97.6177 117.991 96.6283 117.991C96.5636 117.992 96.4989 117.99 96.4344 117.983C95.4613 115.518 95.0861 112.852 95.3406 110.209C95.595 107.566 96.4717 105.024 97.8965 102.797C99.6488 103.102 101.238 104.027 102.385 105.407C103.531 106.787 104.159 108.534 104.16 110.339Z" fill="#A7156D"/>
<path d="M112.692 106.688C112.693 106.114 112.918 105.564 113.318 105.158C113.718 104.752 114.26 104.523 114.825 104.522H126.176C126.839 105.892 127.311 107.349 127.576 108.85H114.825C114.26 108.85 113.718 108.623 113.318 108.217C112.918 107.812 112.693 107.262 112.692 106.688Z" fill="#A7156D"/>
<path d="M127.84 111.828C127.841 113.29 127.651 114.745 127.274 116.156H114.825C114.26 116.156 113.718 115.928 113.318 115.522C112.918 115.116 112.694 114.566 112.694 113.992C112.694 113.418 112.918 112.868 113.318 112.462C113.718 112.056 114.26 111.828 114.825 111.828H127.84Z" fill="#A7156D"/>
<path d="M155.927 138.52C155.606 139.055 155.088 139.438 154.488 139.586C153.888 139.733 153.256 139.633 152.729 139.306L125.579 122.49C125.318 122.329 125.091 122.117 124.911 121.866C124.731 121.615 124.601 121.331 124.529 121.029C124.457 120.728 124.445 120.415 124.492 120.108C124.539 119.802 124.645 119.507 124.804 119.243C124.963 118.978 125.172 118.747 125.419 118.564C125.666 118.381 125.946 118.25 126.243 118.177C126.54 118.103 126.848 118.091 127.15 118.138C127.452 118.186 127.742 118.294 128.003 118.456L155.152 135.272C155.679 135.598 156.057 136.124 156.202 136.733C156.347 137.342 156.248 137.985 155.927 138.52Z" fill="#3F3D56"/>
<path d="M128.778 121.703C126.861 124.895 124.055 127.438 120.714 129.01C117.374 130.583 113.649 131.114 110.011 130.537C106.374 129.959 102.986 128.3 100.278 125.767C97.5688 123.235 95.6603 119.944 94.7934 116.311C93.9265 112.677 94.1401 108.864 95.4073 105.354C96.6745 101.843 98.9384 98.7934 101.913 96.5895C104.887 94.3857 108.438 93.127 112.116 92.9725C115.795 92.8179 119.436 93.7746 122.579 95.7215C126.79 98.3362 129.807 102.54 130.969 107.411C132.131 112.282 131.343 117.422 128.778 121.703ZM100.966 104.477C99.5283 106.871 98.8217 109.644 98.9359 112.446C99.05 115.247 99.9797 117.952 101.607 120.217C103.235 122.482 105.488 124.206 108.08 125.171C110.673 126.136 113.489 126.299 116.173 125.639C118.857 124.978 121.287 123.525 123.158 121.462C125.028 119.399 126.254 116.819 126.68 114.049C127.106 111.278 126.714 108.442 125.553 105.898C124.391 103.354 122.513 101.216 120.156 99.7561C116.994 97.8024 113.197 97.2022 109.6 98.0872C106.002 98.9722 102.897 101.27 100.966 104.477Z" fill="#3F3D56"/>
</svg>
