<svg width="192" height="183" viewBox="0 0 192 183" fill="none" xmlns="http://www.w3.org/2000/svg">
<path d="M142.076 138.964L45.2551 164.302C41.9708 165.157 38.4868 164.654 35.5673 162.902C32.6478 161.15 30.5312 158.293 29.682 154.957L0.400912 39.3994C-0.440871 36.0617 0.0544713 32.5209 1.77827 29.5539C3.50207 26.5869 6.31355 24.4359 9.59591 23.5729L99.6717 0L122.727 10.489L151.271 123.137C152.113 126.475 151.617 130.016 149.893 132.983C148.17 135.95 145.358 138.101 142.076 138.964Z" fill="#F2F2F2"/>
<path d="M10.5131 27.196C8.1757 27.8106 6.17359 29.3423 4.94603 31.4552C3.71848 33.5681 3.36573 36.0895 3.96519 38.4664L33.2463 154.024C33.851 156.4 35.3583 158.434 37.4373 159.682C39.5163 160.929 41.9974 161.288 44.3362 160.679L141.157 135.341C143.494 134.726 145.496 133.194 146.724 131.081C147.952 128.969 148.304 126.447 147.705 124.07L119.603 13.1674L99.3419 3.94946L10.5131 27.196Z" fill="white"/>
<path d="M122.48 11.085L107.496 15.0064C106.402 15.2927 105.241 15.1256 104.269 14.5419C103.296 13.9583 102.591 13.0059 102.31 11.8942L99.4596 0.647061C99.4471 0.597821 99.4485 0.546004 99.4637 0.497553C99.4789 0.449102 99.5072 0.405979 99.5454 0.373127C99.5836 0.340276 99.6301 0.319026 99.6796 0.311816C99.7291 0.304606 99.7797 0.311726 99.8254 0.332361L122.522 10.5758C122.573 10.5986 122.615 10.6368 122.643 10.6851C122.671 10.7335 122.684 10.7895 122.679 10.8455C122.675 10.9014 122.653 10.9546 122.618 10.9975C122.582 11.0404 122.534 11.071 122.48 11.085Z" fill="#F2F2F2"/>
<path d="M114.597 109.769L70.5161 121.305C70.2453 121.376 69.9634 121.392 69.6865 121.352C69.4096 121.312 69.1431 121.218 68.9023 121.073C68.6615 120.929 68.451 120.737 68.283 120.51C68.1149 120.283 67.9925 120.024 67.9227 119.749C67.853 119.474 67.8373 119.187 67.8765 118.906C67.9157 118.625 68.0091 118.354 68.1513 118.109C68.2934 117.864 68.4817 117.65 68.7052 117.48C68.9287 117.309 69.1831 117.184 69.454 117.114L113.535 105.578C113.806 105.507 114.088 105.491 114.365 105.531C114.642 105.57 114.908 105.665 115.149 105.81C115.39 105.954 115.6 106.146 115.768 106.373C115.936 106.6 116.059 106.858 116.128 107.134C116.198 107.409 116.214 107.695 116.175 107.977C116.135 108.258 116.042 108.529 115.9 108.774C115.758 109.018 115.569 109.232 115.346 109.403C115.122 109.574 114.868 109.698 114.597 109.769Z" fill="#CCCCCC"/>
<path d="M124.896 114.616L72.3081 128.379C71.7611 128.522 71.1806 128.438 70.6943 128.146C70.2079 127.855 69.8556 127.378 69.7147 126.822C69.5739 126.267 69.6561 125.677 69.9433 125.182C70.2304 124.688 70.699 124.33 71.246 124.187L123.834 110.425C124.381 110.282 124.961 110.366 125.447 110.658C125.933 110.95 126.285 111.426 126.425 111.981C126.566 112.537 126.484 113.126 126.197 113.621C125.911 114.115 125.443 114.473 124.896 114.616Z" fill="#CCCCCC"/>
<path d="M52.5248 135.199C56.6818 135.199 60.0516 131.775 60.0516 127.55C60.0516 123.325 56.6818 119.901 52.5248 119.901C48.3679 119.901 44.998 123.325 44.998 127.55C44.998 131.775 48.3679 135.199 52.5248 135.199Z" fill="#E6E6E6"/>
<path d="M109.91 89.7504L51.3663 105.066C49.6743 105.506 47.8795 105.247 46.3756 104.344C44.8717 103.442 43.7815 101.97 43.3442 100.251L31.0755 51.8149C30.642 50.0954 30.8974 48.2714 31.7855 46.743C32.6737 45.2146 34.1221 44.1067 35.8131 43.6623L94.3571 28.347C96.0491 27.9064 97.8439 28.1659 99.3478 29.0685C100.852 29.9711 101.942 31.4431 102.379 33.1616L114.648 81.5978C115.081 83.3173 114.826 85.1413 113.938 86.6696C113.05 88.198 111.601 89.306 109.91 89.7504Z" fill="white"/>
<path d="M109.91 89.7504L51.3663 105.066C49.6743 105.506 47.8795 105.247 46.3756 104.344C44.8717 103.442 43.7815 101.97 43.3442 100.251L31.0755 51.8149C30.642 50.0954 30.8974 48.2714 31.7855 46.743C32.6737 45.2146 34.1221 44.1067 35.8131 43.6623L94.3571 28.347C96.0491 27.9064 97.8439 28.1659 99.3478 29.0685C100.852 29.9711 101.942 31.4431 102.379 33.1616L114.648 81.5978C115.081 83.3173 114.826 85.1413 113.938 86.6696C113.05 88.198 111.601 89.306 109.91 89.7504ZM36.0063 44.4251C34.5143 44.8172 33.2362 45.7948 32.4526 47.1434C31.6689 48.4919 31.4436 50.1013 31.8261 51.6185L44.0948 100.055C44.4806 101.571 45.4426 102.87 46.7695 103.666C48.0965 104.463 49.6802 104.692 51.1731 104.303L109.717 88.9876C111.209 88.5955 112.487 87.6179 113.271 86.2693C114.054 84.9207 114.28 83.3113 113.897 81.7942L101.629 33.3579C101.243 31.8416 100.281 30.5428 98.9538 29.7464C97.6268 28.95 96.0432 28.721 94.5503 29.1097L36.0063 44.4251Z" fill="#E6E6E6"/>
<path d="M91.3865 44.6332L61.8401 52.3627C61.5818 52.436 61.3057 52.4068 61.0677 52.2812C60.8297 52.1556 60.6475 51.9428 60.558 51.6859C60.5163 51.5517 60.502 51.4102 60.5159 51.2702C60.5298 51.1302 60.5716 50.9945 60.6388 50.8714C60.706 50.7484 60.7971 50.6405 60.9067 50.5545C61.0162 50.4684 61.1419 50.4059 61.276 50.3708L91.3524 42.5027C92.5674 43.1283 92.2477 44.4079 91.3862 44.6333L91.3865 44.6332Z" fill="#F2F2F2"/>
<path d="M92.7215 49.9002L63.175 57.6296C62.9167 57.7029 62.6407 57.6738 62.4027 57.5482C62.1647 57.4225 61.9825 57.2098 61.893 56.9528C61.8513 56.8186 61.837 56.6772 61.8508 56.5372C61.8647 56.3972 61.9065 56.2615 61.9737 56.1384C62.0409 56.0154 62.1321 55.9075 62.2416 55.8214C62.3512 55.7353 62.4769 55.6729 62.611 55.6378L92.6874 47.7697C93.9024 48.3953 93.5827 49.6749 92.7211 49.9003L92.7215 49.9002Z" fill="#F2F2F2"/>
<path d="M57.5472 62.2995L48.5299 64.6585C48.2354 64.7352 47.923 64.6901 47.6612 64.5329C47.3994 64.3758 47.2096 64.1196 47.1336 63.8204L44.3944 53.0062C44.3189 52.7069 44.3633 52.3894 44.5179 52.1234C44.6725 51.8573 44.9246 51.6645 45.219 51.5872L54.2362 49.2282C54.5307 49.1516 54.8431 49.1968 55.1049 49.3539C55.3666 49.511 55.5564 49.7672 55.6326 50.0663L58.3718 60.8805C58.4473 61.1798 58.4028 61.4973 58.2482 61.7633C58.0936 62.0294 57.8415 62.2222 57.5472 62.2995V62.2995Z" fill="#E6E6E6"/>
<path d="M95.3669 60.707L50.2737 72.5035C50.0154 72.5768 49.7393 72.5476 49.5013 72.422C49.2633 72.2964 49.0811 72.0836 48.9916 71.8267C48.9499 71.6925 48.9356 71.551 48.9495 71.411C48.9634 71.271 49.0052 71.1353 49.0724 71.0123C49.1395 70.8892 49.2307 70.7813 49.3403 70.6953C49.4498 70.6092 49.5755 70.5467 49.7096 70.5116L95.3332 58.5764C96.5482 59.202 96.2285 60.4816 95.3669 60.707L95.3669 60.707Z" fill="#F2F2F2"/>
<path d="M96.7019 65.9753L51.6086 77.7719C51.3503 77.8452 51.0743 77.8161 50.8363 77.6904C50.5983 77.5648 50.4161 77.352 50.3266 77.0951C50.2849 76.9609 50.2705 76.8195 50.2844 76.6795C50.2983 76.5394 50.3401 76.4038 50.4073 76.2807C50.4745 76.1576 50.5657 76.0498 50.6752 75.9637C50.7848 75.8776 50.9105 75.8151 51.0446 75.78L96.6682 63.8447C97.8831 64.4703 97.5634 65.75 96.7019 65.9753V65.9753Z" fill="#F2F2F2"/>
<path d="M98.0349 71.2404L52.9417 83.0369C52.6833 83.1102 52.4073 83.0811 52.1693 82.9555C51.9313 82.8298 51.7491 82.617 51.6596 82.3601C51.6179 82.2259 51.6036 82.0845 51.6174 81.9445C51.6313 81.8045 51.6731 81.6688 51.7403 81.5457C51.8075 81.4226 51.8987 81.3148 52.0082 81.2287C52.1178 81.1426 52.2435 81.0801 52.3776 81.0451L98.0012 69.1097C99.2161 69.7354 98.8964 71.015 98.0349 71.2404Z" fill="#F2F2F2"/>
<path d="M99.3689 76.5084L54.2756 88.3051C54.0173 88.3784 53.7413 88.3493 53.5033 88.2237C53.2653 88.098 53.0831 87.8852 52.9936 87.6283C52.9519 87.4941 52.9375 87.3527 52.9514 87.2127C52.9653 87.0726 53.0071 86.9369 53.0743 86.8139C53.1415 86.6908 53.2327 86.583 53.3422 86.4969C53.4518 86.4108 53.5775 86.3483 53.7116 86.3133L99.3352 74.3778C100.55 75.0034 100.23 76.2831 99.3689 76.5085L99.3689 76.5084Z" fill="#F2F2F2"/>
<path d="M100.703 81.7737L55.6096 93.5704C55.3513 93.6437 55.0752 93.6146 54.8373 93.4889C54.5993 93.3633 54.4171 93.1505 54.3275 92.8936C54.2858 92.7594 54.2715 92.6179 54.2854 92.4779C54.2993 92.3379 54.3411 92.2022 54.4083 92.0792C54.4755 91.9561 54.5666 91.8482 54.6762 91.7622C54.7858 91.6761 54.9114 91.6136 55.0455 91.5785L100.669 79.6431C101.884 80.2687 101.564 81.5483 100.703 81.7737Z" fill="#F2F2F2"/>
<path d="M53.0804 130.231C52.9165 130.274 52.7432 130.262 52.5867 130.197L52.577 130.193L50.5265 129.309C50.4314 129.268 50.3451 129.209 50.2726 129.134C50.2001 129.059 50.1429 128.97 50.1042 128.873C50.0654 128.776 50.046 128.671 50.0469 128.566C50.0478 128.461 50.0691 128.358 50.1095 128.261C50.15 128.164 50.2088 128.077 50.2826 128.003C50.3563 127.93 50.4436 127.872 50.5395 127.832C50.6354 127.793 50.7379 127.774 50.8412 127.775C50.9446 127.776 51.0467 127.798 51.1417 127.839L52.4704 128.413L54.2114 124.251C54.2518 124.154 54.3105 124.067 54.3841 123.993C54.4578 123.92 54.5449 123.862 54.6406 123.823C54.7363 123.783 54.8387 123.764 54.9419 123.765C55.0451 123.766 55.147 123.787 55.242 123.828L55.2423 123.828L55.2318 123.856L55.2427 123.828C55.4343 123.911 55.5857 124.068 55.6636 124.265C55.7415 124.461 55.7396 124.681 55.6582 124.876L53.6099 129.77C53.5624 129.883 53.49 129.983 53.3982 130.063C53.3065 130.143 53.1979 130.2 53.0808 130.23L53.0804 130.231Z" fill="white"/>
<path d="M179.212 183H79.2324C75.8419 182.996 72.5915 181.626 70.1941 179.189C67.7967 176.753 66.4482 173.449 66.4443 170.004V50.6759C66.4482 47.2303 67.7967 43.927 70.1941 41.4906C72.5915 39.0542 75.8419 37.6837 79.2324 37.6798H172.247L192 53.6804V170.004C191.996 173.449 190.647 176.753 188.25 179.189C185.853 181.626 182.602 182.996 179.212 183Z" fill="#E6E6E6"/>
<path d="M79.2326 41.4211C76.8182 41.4239 74.5035 42.3999 72.7963 44.1349C71.089 45.8699 70.1287 48.2223 70.126 50.6759V170.004C70.1287 172.458 71.089 174.81 72.7963 176.545C74.5035 178.28 76.8182 179.256 79.2326 179.259H179.212C181.626 179.256 183.941 178.28 185.648 176.545C187.356 174.81 188.316 172.458 188.319 170.004V55.4828L170.959 41.4211H79.2326Z" fill="white"/>
<path d="M159.766 76.1186H114.247C113.682 76.1186 113.14 75.8906 112.741 75.4847C112.342 75.0789 112.117 74.5284 112.117 73.9544C112.117 73.3804 112.342 72.8299 112.741 72.424C113.14 72.0182 113.682 71.7902 114.247 71.7902H159.766C160.331 71.7902 160.872 72.0182 161.272 72.424C161.671 72.8299 161.895 73.3804 161.895 73.9544C161.895 74.5284 161.671 75.0789 161.272 75.4847C160.872 75.8906 160.331 76.1186 159.766 76.1186Z" fill="#634794"/>
<path d="M168.55 83.4228H114.247C113.683 83.422 113.142 83.1937 112.743 82.7879C112.344 82.3821 112.12 81.8321 112.12 81.2586C112.12 80.6851 112.344 80.1351 112.743 79.7293C113.142 79.3235 113.683 79.0951 114.247 79.0944H168.55C168.83 79.094 169.107 79.1497 169.366 79.2583C169.625 79.3669 169.86 79.5262 170.058 79.7272C170.256 79.9282 170.413 80.1669 170.52 80.4297C170.628 80.6925 170.683 80.9741 170.683 81.2586C170.683 81.543 170.628 81.8247 170.52 82.0875C170.413 82.3502 170.256 82.589 170.058 82.79C169.86 82.991 169.625 83.1503 169.366 83.2589C169.107 83.3675 168.83 83.4232 168.55 83.4228Z" fill="#634794"/>
<path d="M159.766 104.522H114.249C113.684 104.522 113.142 104.75 112.743 105.156C112.343 105.562 112.119 106.112 112.119 106.686C112.119 107.26 112.343 107.811 112.743 108.217C113.142 108.622 113.684 108.85 114.249 108.85H159.766C160.331 108.85 160.873 108.622 161.272 108.217C161.671 107.811 161.896 107.26 161.896 106.686C161.896 106.112 161.671 105.562 161.272 105.156C160.873 104.75 160.331 104.522 159.766 104.522Z" fill="#CCCCCC"/>
<path d="M168.551 111.828H114.249C113.684 111.828 113.142 112.056 112.743 112.462C112.343 112.868 112.119 113.418 112.119 113.992C112.119 114.566 112.343 115.116 112.743 115.522C113.142 115.928 113.684 116.156 114.249 116.156H168.551C169.116 116.156 169.658 115.928 170.057 115.522C170.456 115.116 170.681 114.566 170.681 113.992C170.681 113.418 170.456 112.868 170.057 112.462C169.658 112.056 169.116 111.828 168.551 111.828Z" fill="#CCCCCC"/>
<path d="M159.766 141.586H114.247C113.682 141.586 113.14 141.358 112.741 140.952C112.342 140.546 112.117 139.995 112.117 139.421C112.117 138.847 112.342 138.297 112.741 137.891C113.14 137.485 113.682 137.257 114.247 137.257H159.766C160.331 137.257 160.872 137.485 161.272 137.891C161.671 138.297 161.895 138.847 161.895 139.421C161.895 139.995 161.671 140.546 161.272 140.952C160.872 141.358 160.331 141.586 159.766 141.586Z" fill="#CCCCCC"/>
<path d="M168.55 148.89H114.247C113.683 148.889 113.142 148.661 112.743 148.255C112.344 147.849 112.12 147.299 112.12 146.726C112.12 146.152 112.344 145.602 112.743 145.196C113.142 144.79 113.683 144.562 114.247 144.561H168.55C168.83 144.561 169.107 144.617 169.366 144.725C169.625 144.834 169.86 144.993 170.058 145.194C170.256 145.395 170.413 145.634 170.52 145.897C170.628 146.159 170.683 146.441 170.683 146.726C170.683 147.01 170.628 147.292 170.52 147.554C170.413 147.817 170.256 148.056 170.058 148.257C169.86 148.458 169.625 148.617 169.366 148.726C169.107 148.834 168.83 148.89 168.55 148.89Z" fill="#CCCCCC"/>
<path d="M95.2914 85.2557C99.4484 85.2557 102.818 81.831 102.818 77.6064C102.818 73.3818 99.4484 69.957 95.2914 69.957C91.1345 69.957 87.7646 73.3818 87.7646 77.6064C87.7646 81.831 91.1345 85.2557 95.2914 85.2557Z" fill="#634794"/>
<path d="M94.5454 80.5243C94.376 80.5246 94.2112 80.4689 94.0757 80.3657L94.0673 80.3593L92.2984 78.9841C92.2162 78.9204 92.1473 78.8408 92.0954 78.7499C92.0435 78.659 92.0098 78.5586 91.9961 78.4545C91.9825 78.3504 91.9892 78.2445 92.0158 78.143C92.0425 78.0415 92.0886 77.9463 92.1515 77.863C92.2144 77.7796 92.2929 77.7096 92.3824 77.6571C92.4719 77.6046 92.5708 77.5705 92.6733 77.5569C92.7758 77.5433 92.8799 77.5503 92.9797 77.5776C93.0795 77.6049 93.1731 77.652 93.255 77.7161L94.4007 78.609L97.1082 75.0192C97.171 74.936 97.2493 74.8662 97.3386 74.8137C97.4279 74.7612 97.5266 74.7272 97.6289 74.7134C97.7312 74.6997 97.8351 74.7066 97.9348 74.7337C98.0345 74.7608 98.128 74.8076 98.2099 74.8714L98.2101 74.8715L98.1933 74.8952L98.2105 74.8715C98.3758 75.0006 98.4838 75.191 98.5111 75.4009C98.5383 75.6108 98.4825 75.8232 98.3559 75.9914L95.1713 80.2118C95.0976 80.3091 95.0029 80.3878 94.8945 80.4418C94.786 80.4958 94.6668 80.5237 94.5461 80.5234L94.5454 80.5243Z" fill="white"/>
<path d="M103.592 110.339C103.592 111.344 103.398 112.339 103.02 113.267C102.642 114.195 102.087 115.039 101.389 115.749C100.69 116.46 99.8601 117.024 98.9469 117.408C98.0336 117.793 97.0548 117.991 96.0662 117.991C96.0015 117.992 95.9368 117.99 95.8725 117.983C94.3925 117.945 92.9566 117.463 91.7445 116.6C90.5323 115.736 89.5977 114.528 89.0577 113.127C88.5177 111.726 88.3961 110.195 88.7083 108.724C89.0205 107.253 89.7526 105.909 90.8129 104.859C91.8732 103.809 93.2147 103.1 94.6695 102.821C96.1242 102.542 97.6277 102.705 98.9916 103.29C100.356 103.875 101.52 104.856 102.338 106.109C103.156 107.363 103.592 108.835 103.592 110.339Z" fill="#CCCCCC"/>
<path d="M95.2914 150.723C99.4484 150.723 102.818 147.298 102.818 143.073C102.818 138.849 99.4484 135.424 95.2914 135.424C91.1345 135.424 87.7646 138.849 87.7646 143.073C87.7646 147.298 91.1345 150.723 95.2914 150.723Z" fill="#CCCCCC"/>
<path d="M191.615 54.1954H176.142C175.012 54.1954 173.929 53.7394 173.13 52.9276C172.332 52.1159 171.883 51.015 171.883 49.867V38.2528C171.883 38.202 171.897 38.1522 171.923 38.1091C171.95 38.066 171.988 38.0314 172.033 38.0093C172.078 37.9871 172.128 37.9784 172.178 37.9839C172.228 37.9895 172.275 38.0092 172.314 38.0408L191.78 53.7128C191.824 53.7477 191.855 53.7954 191.871 53.8493C191.886 53.9033 191.885 53.9608 191.867 54.0138C191.848 54.0669 191.814 54.1128 191.769 54.1454C191.724 54.1779 191.67 54.1954 191.615 54.1954Z" fill="#CCCCCC"/>
<path d="M103.592 110.339C103.592 111.344 103.398 112.339 103.02 113.267C102.642 114.195 102.087 115.039 101.389 115.749C100.69 116.46 99.8601 117.024 98.9469 117.408C98.0336 117.793 97.0548 117.991 96.0662 117.991C96.0015 117.992 95.9368 117.99 95.8725 117.983C94.9001 115.518 94.5252 112.852 94.7795 110.209C95.0337 107.566 95.9097 105.024 97.3334 102.797C99.0843 103.102 100.673 104.027 101.818 105.407C102.963 106.787 103.591 108.534 103.592 110.339Z" fill="#634794"/>
<path d="M112.117 106.688C112.118 106.114 112.343 105.564 112.743 105.158C113.142 104.752 113.684 104.523 114.249 104.522H125.591C126.254 105.892 126.724 107.349 126.99 108.85H114.249C113.684 108.85 113.143 108.623 112.743 108.217C112.343 107.812 112.118 107.262 112.117 106.688Z" fill="#634794"/>
<path d="M127.254 111.828C127.254 113.29 127.064 114.745 126.688 116.156H114.249C113.684 116.156 113.142 115.928 112.743 115.522C112.343 115.116 112.119 114.566 112.119 113.992C112.119 113.418 112.343 112.868 112.743 112.462C113.142 112.056 113.684 111.828 114.249 111.828H127.254Z" fill="#634794"/>
<path d="M155.318 138.52C154.997 139.055 154.48 139.438 153.881 139.586C153.281 139.733 152.649 139.633 152.122 139.307L124.994 122.49C124.734 122.329 124.507 122.117 124.327 121.866C124.147 121.615 124.017 121.331 123.945 121.03C123.873 120.728 123.861 120.415 123.908 120.108C123.955 119.802 124.061 119.508 124.22 119.243C124.379 118.978 124.588 118.747 124.834 118.564C125.081 118.381 125.361 118.25 125.658 118.177C125.954 118.104 126.262 118.091 126.564 118.139C126.866 118.186 127.155 118.294 127.416 118.456L154.544 135.272C155.07 135.598 155.448 136.124 155.593 136.733C155.738 137.342 155.639 137.985 155.318 138.52Z" fill="#3F3D56"/>
<path d="M128.191 121.704C126.275 124.895 123.471 127.438 120.133 129.01C116.795 130.583 113.074 131.114 109.439 130.537C105.804 129.959 102.419 128.3 99.7128 125.768C97.0061 123.235 95.0991 119.944 94.2329 116.311C93.3667 112.677 93.5802 108.864 94.8464 105.354C96.1126 101.843 98.3746 98.7935 101.346 96.5897C104.318 94.3858 107.866 93.1271 111.542 92.9726C115.218 92.8181 118.856 93.7748 121.997 95.7217C126.204 98.3363 129.219 102.54 130.38 107.411C131.541 112.282 130.754 117.422 128.191 121.704ZM100.401 104.477C98.9641 106.871 98.2581 109.644 98.3721 112.446C98.4861 115.247 99.4151 117.952 101.041 120.217C102.668 122.482 104.919 124.206 107.509 125.171C110.1 126.136 112.914 126.299 115.595 125.639C118.277 124.979 120.706 123.525 122.575 121.462C124.443 119.399 125.668 116.819 126.094 114.049C126.52 111.278 126.128 108.442 124.968 105.898C123.807 103.354 121.931 101.216 119.575 99.7562C116.416 97.8025 112.622 97.2023 109.028 98.0873C105.433 98.9724 102.33 101.27 100.401 104.477Z" fill="#3F3D56"/>
</svg>
