<svg width="174" height="188" viewBox="0 0 174 188" fill="none" xmlns="http://www.w3.org/2000/svg">
<g clip-path="url(#clip0)">
<path d="M152.545 144.853H2.90161V0H152.545V144.853Z" fill="white"/>
<path d="M152.545 144.853H2.90161V0H152.545V144.853ZM5.11256 142.713H150.334V2.14019H5.11256V142.713Z" fill="#E5E5E5"/>
<path d="M126.035 22.6622H61.2334V24.6162H126.035V22.6622Z" fill="#E5E5E5"/>
<path d="M126.035 27.7427H61.2334V29.6967H126.035V27.7427Z" fill="#E5E5E5"/>
<path d="M126.035 32.823H61.2334V34.777H126.035V32.823Z" fill="#E5E5E5"/>
<path d="M126.035 66.2864H61.2334V68.2404H126.035V66.2864Z" fill="#E5E5E5"/>
<path d="M126.035 71.3667H61.2334V73.3207H126.035V71.3667Z" fill="#E5E5E5"/>
<path d="M126.035 76.4471H61.2334V78.4011H126.035V76.4471Z" fill="#E5E5E5"/>
<path d="M126.035 109.91H61.2334V111.864H126.035V109.91Z" fill="#E5E5E5"/>
<path d="M126.035 114.991H61.2334V116.945H126.035V114.991Z" fill="#E5E5E5"/>
<path d="M126.035 120.071H61.2334V122.025H126.035V120.071Z" fill="#E5E5E5"/>
<path d="M35.2916 38.2307C34.1846 37.6659 33.0291 37.1952 31.838 36.8238L31.6862 35.1975L25.5268 34.5552L24.744 36.6338L22.5336 37.4368C22.4545 37.4658 22.3792 37.5037 22.3093 37.5498H22.3069C22.1835 37.6305 22.0784 37.7347 21.9981 37.8561C21.9177 37.9774 21.8638 38.1133 21.8395 38.2555C21.8159 38.3969 21.8215 38.5415 21.856 38.6808L21.9728 39.1444C22.141 39.2417 22.3139 39.3344 22.4868 39.4226L22.5967 39.4769C22.849 39.6036 23.1061 39.7235 23.3701 39.8343C23.4238 39.8569 23.4823 39.8795 23.536 39.9021C23.5407 39.9044 23.543 39.9044 23.5476 39.9067C23.6715 39.9564 23.7953 40.0039 23.9215 40.0492C24.336 40.2024 24.7588 40.3338 25.188 40.4427C26.2833 40.7253 27.4121 40.8683 28.5457 40.868C28.9593 40.868 29.3682 40.8499 29.7725 40.8114C30.6961 40.7289 31.608 40.5507 32.4924 40.2799C32.4946 40.2799 32.497 40.2776 32.4993 40.2776C33.058 40.1053 33.6037 39.896 34.1327 39.6511C34.135 39.6488 34.1396 39.6488 34.142 39.6466C34.2612 39.5923 34.3757 39.5335 34.4925 39.4769L34.5485 39.4498C34.642 39.4023 34.7355 39.3548 34.829 39.305C35.0627 39.1806 35.2916 39.0494 35.5182 38.9092C35.5813 38.873 35.6421 38.8346 35.7052 38.7938C35.794 38.7373 35.8828 38.6785 35.9692 38.6174C35.7519 38.4817 35.5253 38.3528 35.2916 38.2307Z" fill="#3F3D56"/>
<path d="M23.7322 39.2327L23.3467 37.5476H22.3396C22.3294 37.5477 22.3193 37.5485 22.3092 37.5499H22.3068C21.9449 37.5795 21.5964 37.6961 21.2928 37.8891C21.0869 38.0164 20.9038 38.1753 20.7507 38.3596C21.0498 38.579 21.3606 38.7826 21.6807 38.9771L21.6947 38.9839C21.7858 39.0382 21.8793 39.0924 21.9728 39.1444C22.141 39.2417 22.3139 39.3345 22.4868 39.4227L22.5967 39.4769C22.849 39.6036 23.1061 39.7235 23.3701 39.8343C23.4238 39.8569 23.4823 39.8795 23.536 39.9022C23.5407 39.9044 23.543 39.9044 23.5476 39.9067C23.6715 39.9565 23.7953 40.004 23.9215 40.0492L23.7322 39.2327Z" fill="#3F3D56"/>
<path d="M28.3647 33.527C30.8147 33.527 32.8007 31.6045 32.8007 29.233C32.8007 26.8615 30.8147 24.939 28.3647 24.939C25.9148 24.939 23.9287 26.8615 23.9287 29.233C23.9287 31.6045 25.9148 33.527 28.3647 33.527Z" fill="#FFB8B8"/>
<path d="M25.3865 27.1415C25.8457 27.6675 26.6228 27.816 27.3397 27.8768C29.0157 27.9664 30.6966 27.8336 32.3354 27.482C32.4369 28.4347 32.1601 29.4619 32.7398 30.2456C33.0115 29.2968 33.1695 28.3209 33.2107 27.3371C33.254 26.915 33.197 26.489 33.0443 26.0914C32.9626 25.8922 32.8248 25.7192 32.6465 25.592C32.4683 25.4648 32.2568 25.3885 32.036 25.3719C32.3665 25.1292 32.7536 24.969 33.1632 24.9054L31.7547 24.2202L32.1164 23.8608L29.5663 23.7097L30.3049 23.2555C29.1933 23.1077 28.0686 23.0733 26.9496 23.153C26.4266 23.1532 25.9136 23.2913 25.4656 23.5523C25.0445 23.8437 24.8012 24.423 25.0626 24.8509C24.7354 24.9029 24.4273 25.0349 24.1675 25.2345C23.9077 25.434 23.7048 25.6944 23.5781 25.9911C23.4179 26.4626 23.3792 26.9649 23.4654 27.4542C23.5615 28.2393 23.75 29.0111 24.0272 29.7547L25.3865 27.1415Z" fill="#2F2E41"/>
<path d="M40.8388 24.5782C40.2164 22.8474 39.2115 21.2688 37.8941 19.9526C36.5767 18.6364 34.9785 17.6142 33.2111 16.9573C31.4436 16.3004 29.5494 16.0246 27.6605 16.1491C25.7716 16.2737 23.9335 16.7955 22.2744 17.6784C20.6153 18.5612 19.1751 19.7837 18.0542 21.2607C16.9334 22.7376 16.1588 24.4335 15.7846 26.23C15.4104 28.0265 15.4456 29.8804 15.8876 31.6624C16.3296 33.4444 17.1679 35.1116 18.344 36.5478C18.4608 36.6903 18.5823 36.8328 18.7062 36.9708C18.7156 36.9798 18.7225 36.9889 18.7319 36.9979C19.0365 37.3376 19.3602 37.6608 19.7016 37.966C19.7904 38.0451 19.8839 38.1266 19.9773 38.2035C20.1548 38.3573 20.3372 38.5043 20.5265 38.6445C20.6012 38.7011 20.6736 38.7576 20.7508 38.8119C21.0498 39.0313 21.3606 39.2349 21.6807 39.4294L21.6948 39.4362C21.7858 39.4904 21.8794 39.5447 21.9728 39.5968C22.141 39.694 22.314 39.7867 22.4868 39.8749L22.5967 39.9292C22.8491 40.0559 23.1061 40.1758 23.3701 40.2866C23.4239 40.3092 23.4823 40.3319 23.536 40.3545C23.5407 40.3567 23.543 40.3567 23.5477 40.359C23.6716 40.4088 23.7954 40.4563 23.9216 40.5015C24.336 40.6547 24.7588 40.7861 25.188 40.895C26.2834 41.1776 27.4122 41.3206 28.5458 41.3203C28.9594 41.3203 29.3683 41.3022 29.7725 41.2637C30.6962 41.1812 31.608 41.003 32.4924 40.7322C32.4947 40.7322 32.4971 40.7299 32.4993 40.7299C33.058 40.5577 33.6038 40.3483 34.1327 40.1034C34.135 40.1011 34.1397 40.1011 34.1421 40.0989C34.2612 40.0446 34.3757 39.9858 34.4926 39.9292L34.5486 39.9021C34.642 39.8546 34.7356 39.8071 34.829 39.7573C35.0627 39.6329 35.2917 39.5018 35.5183 39.3615C35.5814 39.3253 35.6422 39.2869 35.7053 39.2462C35.794 39.1896 35.8828 39.1308 35.9693 39.0697C36.0837 38.9928 36.1983 38.9137 36.3104 38.8322C36.3454 38.8074 36.3829 38.7825 36.4179 38.7554C38.607 37.1469 40.2138 34.9089 41.008 32.3621C41.8022 29.8152 41.743 27.0904 40.8388 24.5782V24.5782ZM35.988 38.2057C35.9109 38.2645 35.8315 38.3211 35.7519 38.3731C35.6748 38.4296 35.5978 38.4839 35.5183 38.5337C35.4505 38.5812 35.3827 38.6264 35.3127 38.6694L35.2917 38.683C35.2402 38.7169 35.1889 38.7485 35.1374 38.7802C34.9435 38.8978 34.7472 39.0109 34.5486 39.1195L34.4855 39.1534C34.3967 39.2009 34.308 39.2462 34.2192 39.2914C34.2074 39.2982 34.1934 39.3027 34.1818 39.3095L34.1677 39.3163C34.0556 39.3728 33.941 39.4271 33.8266 39.4791C33.3848 39.6851 32.9298 39.8634 32.4643 40.0129C32.4035 40.0333 32.3428 40.0537 32.2821 40.0717C31.445 40.3295 30.5817 40.4993 29.7071 40.5784C29.3239 40.6123 28.936 40.6304 28.5458 40.6304C27.4736 40.6326 26.4058 40.4972 25.3703 40.2278C24.8389 40.0935 24.3181 39.9227 23.8118 39.7166C23.786 39.7053 23.7579 39.6963 23.7323 39.685C23.7043 39.6737 23.6785 39.6646 23.6529 39.6533C23.6248 39.642 23.5991 39.6307 23.571 39.6171C23.3514 39.5244 23.1341 39.4226 22.9215 39.3163L22.8187 39.2643C22.5593 39.1331 22.3046 38.9928 22.0569 38.8436C21.9845 38.8006 21.9097 38.7554 21.8396 38.7078C21.821 38.6965 21.8045 38.6852 21.7858 38.6739C21.6199 38.5676 21.454 38.4568 21.2928 38.3414C21.1831 38.2623 21.0732 38.1831 20.9657 38.1017C20.7858 37.9705 20.6128 37.8303 20.4447 37.6855C20.3559 37.6131 20.2694 37.534 20.1853 37.4593C19.854 37.1632 19.5404 36.8491 19.246 36.5184C19.1479 36.4098 19.052 36.3013 18.9609 36.1882C18.9401 36.1658 18.9206 36.1424 18.9024 36.1181C17.3843 34.2636 16.4711 32.0135 16.2794 29.6546C16.0877 27.2958 16.6261 24.9351 17.8261 22.8737C19.026 20.8122 20.8331 19.1435 23.0168 18.0802C25.2005 17.0169 27.6618 16.6074 30.087 16.9037C32.5122 17.2 34.7912 18.1888 36.6334 19.744C38.4756 21.2992 39.7976 23.3503 40.4307 25.6357C41.0638 27.9211 40.9793 30.3373 40.1881 32.576C39.3968 34.8148 37.9346 36.7747 35.988 38.2057L35.988 38.2057Z" fill="#3F3D56"/>
<path d="M40.8388 68.2023C40.2164 66.4715 39.2114 64.893 37.894 63.5768C36.5766 62.2605 34.9785 61.2383 33.211 60.5814C31.4436 59.9245 29.5494 59.6487 27.6605 59.7733C25.7716 59.8978 23.9335 60.4197 22.2744 61.3025C20.6153 62.1853 19.1751 63.4078 18.0542 64.8848C16.9334 66.3618 16.1588 68.0576 15.7846 69.8541C15.4104 71.6506 15.4456 73.5045 15.8876 75.2865C16.3296 77.0685 17.1679 78.7357 18.3439 80.1719C18.4608 80.3144 18.5823 80.4569 18.7061 80.5949C18.7154 80.6039 18.7224 80.613 18.7318 80.622C19.0364 80.9617 19.3602 81.2849 19.7015 81.5901C19.7903 81.6692 19.8838 81.7507 19.9772 81.8276C20.1548 81.9814 20.337 82.1284 20.5263 82.2686C20.8959 82.5506 21.2812 82.8126 21.6806 83.0535L21.6946 83.0603C21.954 83.2164 22.218 83.3611 22.4868 83.4991L22.5966 83.5534C22.8489 83.68 23.106 83.7999 23.37 83.9107C23.4237 83.9334 23.4822 83.956 23.5359 83.9786C23.5406 83.9808 23.543 83.9808 23.5476 83.9831C24.0811 84.1978 24.6292 84.377 25.188 84.5192C26.2833 84.8018 27.4121 84.9447 28.5456 84.9444C28.9592 84.9444 29.3681 84.9263 29.7724 84.8878C30.696 84.8053 31.6079 84.6271 32.4923 84.3563C32.4946 84.3563 32.4969 84.354 32.4992 84.354C33.0579 84.1818 33.6036 83.9724 34.1326 83.7275C34.1349 83.7253 34.1397 83.7253 34.1419 83.723C34.2611 83.6687 34.3756 83.6099 34.4924 83.5534L34.5486 83.5262C34.642 83.4787 34.7354 83.4312 34.8289 83.3814C35.0626 83.2571 35.2915 83.1259 35.5182 82.9856C35.5813 82.9494 35.642 82.911 35.7051 82.8703C35.9107 82.7391 36.114 82.5988 36.3103 82.4564C36.3454 82.4315 36.3827 82.4066 36.4179 82.3795C38.6069 80.771 40.2137 78.5329 41.0079 75.9861C41.802 73.4393 41.7429 70.7145 40.8388 68.2023V68.2023Z" fill="white"/>
<path d="M32.8415 77.5378C33.9189 77.5378 34.7923 76.6923 34.7923 75.6494C34.7923 74.6065 33.9189 73.761 32.8415 73.761C31.7641 73.761 30.8906 74.6065 30.8906 75.6494C30.8906 76.6923 31.7641 77.5378 32.8415 77.5378Z" fill="#2F2E41"/>
<path d="M33.3848 73.8131C33.7225 73.8131 34.0544 73.8979 34.348 74.0592C34.6416 74.2206 34.887 74.453 35.0601 74.7336C35.2331 75.0142 35.328 75.3336 35.3354 75.6603C35.3428 75.9871 35.2625 76.3101 35.1023 76.5978C35.2713 76.393 35.3945 76.1563 35.4639 75.9028C35.5332 75.6494 35.5473 75.3847 35.5052 75.1257C35.4631 74.8667 35.3656 74.619 35.2192 74.3984C35.0727 74.1779 34.8804 73.9893 34.6544 73.8446C34.4285 73.7 34.1739 73.6025 33.9069 73.5583C33.6399 73.5142 33.3663 73.5243 33.1036 73.5882C32.8409 73.652 32.5948 73.7682 32.381 73.9291C32.1672 74.0901 31.9904 74.2925 31.8618 74.5233C32.0442 74.3016 32.2759 74.1226 32.5396 73.9997C32.8033 73.8767 33.0923 73.8129 33.3851 73.813L33.3848 73.8131Z" fill="#2F2E41"/>
<path d="M29.1957 75.6453C32.3607 75.6453 34.9265 73.1616 34.9265 70.0979C34.9265 67.0342 32.3607 64.5505 29.1957 64.5505C26.0306 64.5505 23.4648 67.0342 23.4648 70.0979C23.4648 73.1616 26.0306 75.6453 29.1957 75.6453Z" fill="#2F2E41"/>
<path d="M24.698 66.6561C25.6855 65.5812 27.0658 64.9196 28.5476 64.811C30.0294 64.7025 31.4969 65.1555 32.6402 66.0744C32.5935 66.0312 32.5467 65.9878 32.4984 65.9459C31.3663 64.9642 29.8777 64.4581 28.3601 64.5388C26.8425 64.6195 25.4201 65.2804 24.406 66.3763C23.3918 67.4721 22.8689 68.913 22.9522 70.3821C23.0356 71.8511 23.7184 73.2279 24.8505 74.2096C24.8614 74.2191 24.8723 74.2284 24.8833 74.2378C24.9319 74.2797 24.9819 74.3192 25.0317 74.3593C23.955 73.3678 23.3184 72.0102 23.2562 70.573C23.1939 69.1357 23.711 67.7313 24.6982 66.6561L24.698 66.6561Z" fill="#2F2E41"/>
<path d="M29.1473 75.5983C31.1857 75.5983 32.8382 73.9988 32.8382 72.0256C32.8382 70.0524 31.1857 68.4528 29.1473 68.4528C27.1088 68.4528 25.4563 70.0524 25.4563 72.0256C25.4563 73.9988 27.1088 75.5983 29.1473 75.5983Z" fill="#A0616A"/>
<path d="M35.7521 81.3345V82.5332C35.5254 82.6735 35.2964 82.8047 35.0627 82.9291C34.9693 82.9788 34.8758 83.0263 34.7824 83.0738L34.7263 83.101C34.6094 83.1575 34.4949 83.2163 34.3758 83.2706C34.3735 83.2729 34.3687 83.2729 34.3664 83.2751C33.8375 83.52 33.2917 83.7294 32.733 83.9016C32.7308 83.9016 32.7285 83.9039 32.7261 83.9039C31.8417 84.1747 30.9299 84.3529 30.0062 84.4354C29.602 84.4739 29.1931 84.492 28.7795 84.492C27.6459 84.4923 26.5171 84.3494 25.4218 84.0668C24.863 83.9246 24.315 83.7455 23.7815 83.5307C23.7768 83.5285 23.7744 83.5285 23.7697 83.5262C23.716 83.5036 23.6576 83.4809 23.6038 83.4583C23.3398 83.3475 23.0828 83.2276 22.8304 83.101L22.7206 83.0467C22.4518 82.9087 22.1878 82.764 21.9285 82.6079L21.9144 82.6011C21.5151 82.3602 21.1297 82.0982 20.7602 81.8162C20.5709 81.676 20.3887 81.529 20.211 81.3752C20.1176 81.2983 20.0241 81.2168 19.9354 81.1377C19.594 80.8325 19.2702 80.5093 18.9656 80.1696C19.006 79.934 19.0654 79.7018 19.1432 79.4752L19.1455 79.473C19.1595 79.4343 19.1759 79.3966 19.1946 79.3599C19.2075 79.3274 19.2223 79.2957 19.239 79.2649C19.6572 78.5072 20.4143 78.3194 21.3537 78.2787C21.8841 78.2561 22.4705 78.281 23.0898 78.2742C23.4169 78.2719 23.7557 78.2606 24.0946 78.2312C26.2326 78.0435 25.8448 76.8221 25.9405 76.1639C26.0363 75.5261 26.6298 76.078 26.6695 76.1141L26.6718 76.1164C27.8817 76.6645 29.2203 76.8916 30.5507 76.7746C30.7797 76.7475 31.0086 76.7316 31.2376 76.7248C31.8405 76.7181 31.7096 76.8854 31.5018 77.0234C31.4008 77.0877 31.2954 77.1451 31.1863 77.1953C31.1863 77.1953 31.0905 77.7608 30.9923 78.6067C30.8989 79.4164 32.5018 79.7964 32.6349 79.8258C32.6377 79.8276 32.641 79.8284 32.6443 79.8281C33.2297 79.6811 33.846 79.6968 34.4226 79.8733H34.4248C34.7543 79.9906 35.0483 80.1857 35.28 80.4408C35.5118 80.696 35.6741 81.0032 35.7521 81.3345Z" fill="#C13584"/>
<path d="M23.8046 82.7889C23.8046 82.9562 23.8001 83.1168 23.793 83.2684C23.7907 83.3589 23.786 83.4471 23.7814 83.5307C23.7767 83.5285 23.7743 83.5285 23.7696 83.5262C23.7159 83.5036 23.6574 83.481 23.6037 83.4584C23.3397 83.3475 23.0826 83.2277 22.8303 83.101L22.7205 83.0467C22.4517 82.9087 22.1877 82.764 21.9284 82.6079C21.9353 82.5288 21.9471 82.4496 21.9587 82.3704C21.9844 82.1963 22.0055 82.0198 22.0195 81.8457C22.1114 80.6221 21.8823 79.3959 21.3535 78.281V78.2788C21.3068 78.1883 21.2788 78.1385 21.2788 78.1385C21.2788 78.1385 21.9587 77.5731 22.9284 78.1385C22.9903 78.1738 23.045 78.2198 23.0897 78.2742C23.6739 78.9415 23.8327 81.1852 23.8046 82.7889Z" fill="#2F2E41"/>
<path d="M34.4155 82.4812C34.4062 82.7345 34.3921 82.9992 34.3758 83.2683V83.2706C34.3735 83.2728 34.3688 83.2729 34.3665 83.2751C33.8375 83.52 33.2918 83.7294 32.7331 83.9016C32.7308 83.9016 32.7285 83.9039 32.7262 83.9039L32.7005 83.2683L32.6981 83.1846L32.5743 80.0904C32.571 80.0204 32.5824 79.9504 32.6078 79.8848C32.6331 79.8191 32.672 79.7591 32.722 79.7084C32.772 79.6576 32.8321 79.6172 32.8987 79.5896C32.9653 79.562 33.037 79.5477 33.1094 79.5476H34.294C34.3524 79.5476 34.3945 79.663 34.4226 79.871V79.8733C34.4801 80.7418 34.4777 81.613 34.4155 82.4812Z" fill="#2F2E41"/>
<path d="M25.9905 67.5596V71.1333H26.8452L27.9329 70.0051L27.7874 71.1333H31.5657L31.332 70.0051L31.7994 71.1333H32.4018V67.5596H25.9905Z" fill="#2F2E41"/>
<path d="M25.4076 71.7906C25.5685 71.7906 25.699 71.5591 25.699 71.2735C25.699 70.988 25.5685 70.7565 25.4076 70.7565C25.2467 70.7565 25.1162 70.988 25.1162 71.2735C25.1162 71.5591 25.2467 71.7906 25.4076 71.7906Z" fill="#A0616A"/>
<path d="M32.8871 71.7906C33.048 71.7906 33.1785 71.5591 33.1785 71.2735C33.1785 70.988 33.048 70.7565 32.8871 70.7565C32.7262 70.7565 32.5957 70.988 32.5957 71.2735C32.5957 71.5591 32.7262 71.7906 32.8871 71.7906Z" fill="#A0616A"/>
<path d="M36.5439 82.004C36.3477 82.1465 36.1444 82.2867 35.9388 82.4179C35.8757 82.4586 35.815 82.4971 35.7519 82.5333C35.5252 82.6735 35.2962 82.8047 35.0626 82.9291C34.9691 82.9789 34.8757 83.0264 34.7822 83.0739V80.5813C34.7822 80.5813 35.156 80.8708 35.7519 81.3526C35.8266 81.4137 35.9038 81.477 35.9856 81.5448C36.1584 81.6851 36.3454 81.8389 36.5439 82.004Z" fill="#C13584"/>
<path d="M40.8388 68.2023C40.2164 66.4715 39.2114 64.893 37.894 63.5768C36.5766 62.2605 34.9785 61.2383 33.211 60.5814C31.4436 59.9245 29.5494 59.6487 27.6605 59.7733C25.7716 59.8978 23.9335 60.4197 22.2744 61.3025C20.6153 62.1853 19.1751 63.4078 18.0542 64.8848C16.9334 66.3618 16.1588 68.0576 15.7846 69.8541C15.4104 71.6506 15.4456 73.5045 15.8876 75.2865C16.3296 77.0685 17.1679 78.7357 18.3439 80.1719C18.4608 80.3144 18.5823 80.4569 18.7061 80.5949C18.7154 80.6039 18.7224 80.613 18.7318 80.622C19.0364 80.9617 19.3602 81.2849 19.7015 81.5901C19.7903 81.6692 19.8838 81.7507 19.9772 81.8276C20.1548 81.9814 20.337 82.1284 20.5263 82.2686C20.8959 82.5506 21.2812 82.8126 21.6806 83.0535L21.6946 83.0603C21.954 83.2164 22.218 83.3611 22.4868 83.4991L22.5966 83.5534C22.8489 83.68 23.106 83.7999 23.37 83.9107C23.4237 83.9334 23.4822 83.956 23.5359 83.9786C23.5406 83.9808 23.543 83.9808 23.5476 83.9831C24.0811 84.1978 24.6292 84.377 25.188 84.5192C26.2833 84.8018 27.4121 84.9447 28.5456 84.9444C28.9592 84.9444 29.3681 84.9263 29.7724 84.8878C30.696 84.8053 31.6079 84.6271 32.4923 84.3563C32.4946 84.3563 32.4969 84.354 32.4992 84.354C33.0579 84.1818 33.6036 83.9724 34.1326 83.7275C34.1349 83.7253 34.1397 83.7253 34.1419 83.723C34.2611 83.6687 34.3756 83.6099 34.4924 83.5534L34.5486 83.5262C34.642 83.4787 34.7354 83.4312 34.8289 83.3814C35.0626 83.2571 35.2915 83.1259 35.5182 82.9856C35.5813 82.9494 35.642 82.911 35.7051 82.8703C35.9107 82.7391 36.114 82.5988 36.3103 82.4564C36.3454 82.4315 36.3827 82.4066 36.4179 82.3795C38.6069 80.771 40.2137 78.5329 41.0079 75.9861C41.802 73.4393 41.7429 70.7145 40.8388 68.2023V68.2023ZM35.9879 81.8298C35.9107 81.8887 35.8313 81.9452 35.7519 81.9972C35.6748 82.0538 35.5977 82.108 35.5183 82.1578C35.4505 82.2053 35.3827 82.2505 35.3125 82.2935C35.2541 82.332 35.1957 82.3682 35.1373 82.4043C34.9434 82.522 34.7472 82.635 34.5486 82.7436L34.4853 82.7775C34.3966 82.825 34.3078 82.8703 34.2191 82.9155C34.2073 82.9223 34.1933 82.9268 34.1817 82.9336L34.1676 82.9404C34.0555 82.9969 33.941 83.0512 33.8265 83.1033C33.3847 83.3092 32.9296 83.4875 32.4642 83.637C32.4035 83.6574 32.3427 83.6777 32.282 83.6958C31.4449 83.9536 30.5816 84.1234 29.707 84.2025C29.3238 84.2364 28.9358 84.2545 28.5456 84.2545C27.4734 84.2566 26.4057 84.1213 25.3702 83.8519C24.8388 83.7176 24.3179 83.5468 23.8117 83.3407C23.7579 83.3204 23.7042 83.2978 23.6527 83.2774C23.6248 83.2661 23.599 83.2548 23.5709 83.2412C23.3513 83.1485 23.1341 83.0467 22.9214 82.9404L22.8186 82.8884C22.5593 82.7572 22.3045 82.6169 22.0568 82.4677C21.9657 82.4134 21.8746 82.3568 21.7858 82.298C21.5054 82.1193 21.232 81.9271 20.9656 81.7258C20.7857 81.5946 20.6128 81.4543 20.4445 81.3096C20.3558 81.2372 20.2693 81.1581 20.1852 81.0834C19.8539 80.7873 19.5403 80.4731 19.2459 80.1425C19.1477 80.0339 19.0519 79.9254 18.9607 79.8123C18.94 79.7899 18.9205 79.7665 18.9023 79.7422C17.3841 77.8877 16.471 75.6376 16.2793 73.2787C16.0876 70.9199 16.626 68.5592 17.826 66.4978C19.0259 64.4364 20.833 62.7676 23.0167 61.7043C25.2003 60.6411 27.6617 60.2315 30.0869 60.5278C32.512 60.8241 34.791 61.8129 36.6333 63.3681C38.4755 64.9233 39.7975 66.9744 40.4306 69.2598C41.0636 71.5452 40.9792 73.9614 40.1879 76.2001C39.3967 78.4389 37.9345 80.3988 35.9879 81.8298V81.8298Z" fill="#3F3D56"/>
<path d="M28.6194 121.631C31.436 121.631 33.7194 119.421 33.7194 116.695C33.7194 113.968 31.436 111.758 28.6194 111.758C25.8027 111.758 23.5193 113.968 23.5193 116.695C23.5193 119.421 25.8027 121.631 28.6194 121.631Z" fill="#2F2E41"/>
<path d="M24.6384 114.033C25.4625 113.235 25.6295 112.103 25.0114 111.505C24.3933 110.907 23.2241 111.068 22.4 111.866C21.5758 112.664 21.4088 113.796 22.0269 114.394C22.645 114.992 23.8142 114.831 24.6384 114.033Z" fill="#2F2E41"/>
<path d="M33.9348 112.465C34.2782 111.687 33.6877 110.697 32.6159 110.254C31.544 109.81 30.3968 110.082 30.0534 110.86C29.71 111.638 30.3005 112.628 31.3724 113.072C32.4442 113.515 33.5915 113.243 33.9348 112.465Z" fill="#2F2E41"/>
<path d="M34.7198 126.271L34.1189 125.355C33.8639 124.804 33.3936 124.373 32.811 124.157C32.2283 123.94 31.5809 123.956 31.0104 124.201C30.4399 124.446 29.9929 124.9 29.7672 125.463C29.5416 126.026 29.5557 126.653 29.8066 127.206L29.9774 127.799L30.1719 128.472C30.9591 128.376 31.7359 128.211 32.4929 127.981C32.4952 127.981 32.4973 127.98 32.4988 127.979C33.0584 127.807 33.6048 127.597 34.1337 127.351C34.1366 127.348 34.1395 127.348 34.1425 127.346C34.2603 127.291 34.3752 127.234 34.493 127.177C34.5122 127.169 34.5309 127.159 34.5489 127.149C34.6431 127.103 34.7375 127.055 34.8288 127.006C34.923 126.958 35.0143 126.906 35.1027 126.852L34.7198 126.271Z" fill="#CACACA"/>
<path d="M28.781 122.063C31.1715 122.063 33.1094 120.187 33.1094 117.873C33.1094 115.559 31.1715 113.683 28.781 113.683C26.3905 113.683 24.4526 115.559 24.4526 117.873C24.4526 120.187 26.3905 122.063 28.781 122.063Z" fill="#FFB6B6"/>
<path d="M35.032 126.091C34.5546 125.322 33.9619 124.627 33.2735 124.027C32.8019 123.619 32.1916 123.393 31.5592 123.394H25.4619C25.1106 123.394 24.7629 123.463 24.4405 123.598C24.118 123.733 23.8276 123.931 23.5872 124.179C23.3467 124.427 23.1614 124.72 23.0425 125.04C22.9237 125.36 22.874 125.7 22.8963 126.04C22.9096 126.231 22.9452 126.42 23.0025 126.604C23.0459 126.737 23.1001 126.867 23.1644 126.992L23.4649 127.574C23.4884 127.582 23.512 127.594 23.5355 127.602C23.5414 127.605 23.5444 127.605 23.5473 127.608C23.671 127.656 23.7948 127.705 23.9213 127.75C24.3358 127.904 24.7587 128.035 25.188 128.144C25.8791 128.323 26.5845 128.447 27.2969 128.512C27.7123 128.549 28.1277 128.569 28.5459 128.569C28.9613 128.569 29.3677 128.549 29.7742 128.512C29.9068 128.5 30.0392 128.486 30.1718 128.472C30.9591 128.376 31.7358 128.211 32.4929 127.981C32.4951 127.981 32.4972 127.98 32.4988 127.978C33.0584 127.807 33.6047 127.597 34.1336 127.351C34.1365 127.348 34.1394 127.348 34.1424 127.345C34.2602 127.291 34.3751 127.234 34.4929 127.177C34.5122 127.169 34.5308 127.159 34.5489 127.149C34.6431 127.103 34.7374 127.055 34.8287 127.006C34.923 126.958 35.0142 126.906 35.1026 126.852C35.1969 126.804 35.2853 126.75 35.3766 126.695C35.2647 126.482 35.1498 126.282 35.032 126.091Z" fill="#CACACA"/>
<path d="M26.5664 124.158C26.0021 123.902 25.3563 123.874 24.7702 124.078C24.184 124.282 23.7052 124.702 23.4383 125.247L22.8963 126.04L22.6371 126.419L22.2424 126.995C22.3248 127.038 22.4044 127.08 22.4869 127.123L22.5958 127.177C22.8492 127.303 23.1054 127.423 23.3706 127.534C23.3999 127.548 23.4325 127.559 23.4648 127.574C23.4884 127.582 23.512 127.594 23.5354 127.602C23.5413 127.605 23.5443 127.605 23.5472 127.608C23.6709 127.656 23.7947 127.705 23.9213 127.75C24.3358 127.904 24.7586 128.035 25.188 128.144C25.879 128.324 26.5845 128.447 27.2969 128.512L27.5031 127.836L27.7035 127.192C27.9675 126.643 27.9961 126.016 27.7829 125.447C27.5698 124.878 27.1323 124.415 26.5664 124.158Z" fill="#CACACA"/>
<path d="M24.2329 115.238C25.222 115.898 26.396 116.249 27.5972 116.244C27.1687 116.532 26.6809 116.726 26.1674 116.814C27.7646 117.145 29.4152 117.154 31.0162 116.84C31.372 116.785 31.7154 116.671 32.0312 116.503C32.1886 116.417 32.3257 116.301 32.4336 116.162C32.5416 116.022 32.6179 115.862 32.6577 115.691C32.7641 115.103 32.2905 114.569 31.7984 114.209C31.0449 113.665 30.1762 113.291 29.255 113.113C28.3338 112.935 27.3832 112.957 26.472 113.178C25.8648 113.296 25.3123 113.599 24.8945 114.041C24.6923 114.266 24.5702 114.548 24.5463 114.846C24.5224 115.143 24.5979 115.44 24.7617 115.693L24.2329 115.238Z" fill="#2F2E41"/>
<path d="M40.8404 111.826C40.2181 110.095 39.2133 108.516 37.8959 107.2C36.5785 105.884 34.9803 104.861 33.2127 104.204C31.4452 103.547 29.5509 103.271 27.6618 103.396C25.7728 103.52 23.9346 104.042 22.2753 104.925C20.6161 105.808 19.1758 107.031 18.0549 108.508C16.934 109.985 16.1594 111.681 15.7853 113.477C15.4111 115.274 15.4463 117.128 15.8885 118.91C16.3307 120.692 17.1691 122.36 18.3454 123.796C18.4602 123.938 18.584 124.081 18.7077 124.218C18.7148 124.228 18.7227 124.237 18.7313 124.246C19.0364 124.586 19.3609 124.908 19.7033 125.213C19.7916 125.293 19.8829 125.375 19.9773 125.452C20.1539 125.606 20.3366 125.752 20.528 125.891C20.6016 125.948 20.6753 126.005 20.7519 126.06C21.0493 126.279 21.3616 126.482 21.6797 126.678C21.6852 126.678 21.6904 126.68 21.6944 126.684C21.7857 126.738 21.8801 126.792 21.9743 126.844C22.0626 126.895 22.1539 126.946 22.2424 126.995C22.3248 127.038 22.4043 127.08 22.4869 127.123L22.5958 127.177C22.8492 127.303 23.1053 127.422 23.3705 127.534C23.3999 127.548 23.4324 127.559 23.4647 127.574C23.4883 127.582 23.5119 127.594 23.5354 127.602C23.5413 127.605 23.5443 127.605 23.5471 127.608C23.6708 127.656 23.7947 127.705 23.9212 127.75C24.3357 127.904 24.7586 128.035 25.1879 128.144C25.879 128.323 26.5844 128.446 27.2968 128.512C27.7122 128.549 28.1275 128.569 28.5458 128.569C28.9612 128.569 29.3676 128.549 29.7741 128.512C29.9067 128.5 30.0391 128.486 30.1717 128.472C30.959 128.376 31.7357 128.211 32.4928 127.981C32.495 127.981 32.4971 127.98 32.4987 127.978C33.0583 127.807 33.6046 127.597 34.1335 127.351C34.1364 127.348 34.1393 127.348 34.1423 127.345C34.2601 127.291 34.375 127.234 34.4928 127.177C34.512 127.169 34.5307 127.159 34.5487 127.149C34.643 127.103 34.7373 127.055 34.8286 127.006C34.9228 126.958 35.0141 126.906 35.1025 126.852C35.1968 126.804 35.2851 126.75 35.3765 126.695C35.4236 126.667 35.4708 126.638 35.5179 126.61C35.5827 126.573 35.6415 126.536 35.7064 126.493C35.7947 126.439 35.8832 126.379 35.9685 126.319C36.0834 126.242 36.1983 126.162 36.3102 126.08C36.3479 126.056 36.3843 126.03 36.4192 126.003C38.6066 124.393 40.2122 122.155 41.0063 119.609C41.8004 117.063 41.7423 114.339 40.8404 111.826L40.8404 111.826ZM35.9892 125.452C35.9125 125.512 35.833 125.569 35.7536 125.62C35.6739 125.678 35.5974 125.732 35.5179 125.783C35.4501 125.829 35.3824 125.874 35.3118 125.917C35.3054 125.922 35.2984 125.927 35.291 125.931C35.241 125.965 35.1879 125.997 35.1379 126.028C35.1025 126.048 35.0673 126.071 35.0319 126.091C34.9288 126.154 34.8256 126.214 34.7196 126.271C34.6637 126.305 34.6047 126.336 34.5488 126.368C34.5282 126.379 34.5075 126.39 34.4869 126.402C34.3956 126.45 34.3073 126.493 34.2188 126.539C34.2072 126.547 34.1924 126.55 34.1836 126.559C34.1781 126.559 34.1728 126.561 34.1688 126.564C34.0569 126.621 33.942 126.675 33.8272 126.727C33.3849 126.933 32.9293 127.111 32.4633 127.26C32.4045 127.28 32.3426 127.303 32.2837 127.32C31.5325 127.551 30.7601 127.711 29.9773 127.799C29.889 127.81 29.7976 127.819 29.7063 127.827C29.3235 127.862 28.9376 127.879 28.5458 127.879C28.1982 127.879 27.8477 127.864 27.5031 127.836C26.7826 127.778 26.0689 127.658 25.3706 127.477C24.839 127.343 24.3182 127.171 23.8124 126.963C23.7858 126.952 23.7593 126.943 23.7329 126.932C23.7034 126.921 23.6798 126.912 23.6533 126.901C23.6238 126.889 23.6003 126.878 23.5708 126.864C23.3793 126.784 23.1879 126.695 23.0024 126.604C22.9758 126.59 22.9493 126.579 22.9228 126.564L22.8197 126.513C22.7579 126.482 22.696 126.45 22.6371 126.419C22.4397 126.316 22.2453 126.205 22.0569 126.091C21.9861 126.048 21.9096 126.003 21.8388 125.957L21.7858 125.923C21.6208 125.814 21.456 125.706 21.2939 125.589C21.1849 125.509 21.073 125.432 20.967 125.35C20.7873 125.218 20.6134 125.079 20.4456 124.933C20.3572 124.862 20.2688 124.782 20.1864 124.708C19.8547 124.412 19.541 124.098 19.2468 123.767C19.1496 123.659 19.0524 123.55 18.961 123.436C18.9405 123.414 18.9228 123.391 18.9021 123.365C17.3835 121.511 16.4701 119.26 16.2782 116.901C16.0863 114.542 16.6246 112.181 17.8246 110.119C19.0246 108.057 20.8318 106.388 23.0157 105.325C25.1996 104.261 27.6613 103.851 30.0868 104.148C32.5123 104.444 34.7917 105.433 36.6342 106.988C38.4768 108.543 39.799 110.595 40.4322 112.88C41.0655 115.166 40.9811 117.583 40.1898 119.822C39.3984 122.061 37.9361 124.021 35.9892 125.452H35.9892Z" fill="#3F3D56"/>
<path d="M50.3234 50.2643C45.7909 46.5621 40.2443 44.2149 34.3588 43.5084C28.4733 42.802 22.5025 43.7666 17.1731 46.285C11.8436 48.8034 7.3852 52.7669 4.34042 57.6934C1.29564 62.6198 -0.204251 68.2966 0.023258 74.0331C0.250767 79.7696 2.19586 85.3185 5.62187 90.0044C9.04787 94.6904 13.8071 98.3114 19.3203 100.427C24.8336 102.542 30.8632 103.061 36.6754 101.92C42.4876 100.779 47.8319 98.0268 52.0579 93.9991L89.5842 124.65C90.1554 125.115 90.8938 125.341 91.6374 125.28C92.381 125.219 93.0692 124.874 93.551 124.323C94.0328 123.771 94.269 123.057 94.2078 122.337C94.1466 121.617 93.7929 120.95 93.2244 120.482L93.2203 120.479L55.694 89.8279C60.0534 83.7715 61.9192 76.3576 60.9257 69.0391C59.9322 61.7205 56.1511 55.0249 50.3234 50.2643ZM47.9042 86.8764C44.9808 90.2301 41.0956 92.6694 36.74 93.8857C32.3843 95.1021 27.7539 95.0409 23.4342 93.7098C19.1145 92.3788 15.2996 89.8377 12.4718 86.4079C9.64408 82.9782 7.93052 78.8137 7.54784 74.4413C7.16515 70.0688 8.13053 65.6846 10.3219 61.8433C12.5133 58.0019 15.8322 54.8758 19.859 52.8603C23.8858 50.8448 28.4396 50.0304 32.9445 50.5201C37.4495 51.0098 41.7032 52.7816 45.1679 55.6115C49.8139 59.4062 52.7122 64.832 53.2254 70.6954C53.7386 76.5587 51.8245 82.3791 47.9042 86.8764Z" fill="#3F3D56"/>
<path opacity="0.3" d="M15.6054 89.5252C11.2083 85.9334 8.36746 80.8723 7.64692 75.3468C6.92639 69.8214 8.37887 64.2357 11.716 59.6989C11.2777 60.1261 10.854 60.5735 10.445 61.0411C8.50385 63.2679 7.03486 65.843 6.12186 68.6194C5.20885 71.3957 4.86972 74.3189 5.12381 77.2222C5.3779 80.1254 6.22025 82.9517 7.60276 85.5398C8.98527 88.1279 10.8809 90.4271 13.1813 92.306C15.4818 94.185 18.142 95.607 21.0102 96.4907C23.8783 97.3745 26.8983 97.7028 29.8975 97.4568C32.8967 97.2109 35.8165 96.3955 38.4902 95.0573C41.1639 93.719 43.5391 91.8841 45.4802 89.6573C45.8884 89.1891 46.2727 88.7095 46.6333 88.2187C42.5747 92.1662 37.1308 94.4918 31.3828 94.7338C25.6347 94.9759 20.0028 93.1166 15.6054 89.5252Z" fill="black"/>
<path d="M125.976 125.796C126.269 125.449 126.48 125.045 126.595 124.611C126.709 124.177 126.723 123.724 126.637 123.284C126.551 122.844 126.366 122.428 126.096 122.065C125.825 121.701 125.476 121.4 125.072 121.181L118.232 94.0804L113.242 95.6223L120.628 122.538C120.294 123.219 120.229 123.995 120.447 124.719C120.664 125.443 121.148 126.065 121.807 126.466C122.467 126.868 123.255 127.021 124.023 126.898C124.792 126.774 125.486 126.382 125.976 125.796H125.976Z" fill="#FFB6B6"/>
<path d="M122.441 108.461L118.794 111.506L113.693 115.763L111.439 104.603L111.204 103.443L111.018 102.522L116.187 93.8058L120.497 94.045L120.791 94.0621L120.797 94.1251L120.865 94.7096L121.749 102.402L121.769 102.588L122.441 108.461Z" fill="#C13584"/>
<path d="M98.6059 184.211L94.995 184.211L93.2769 170.728L98.6068 170.728L98.6059 184.211Z" fill="#FFB6B6"/>
<path d="M99.5267 187.6L87.8828 187.599V187.457C87.8829 186.293 88.3604 185.177 89.2104 184.355C90.0603 183.532 91.213 183.07 92.415 183.07H92.4153L99.527 183.07L99.5267 187.6Z" fill="#2F2E41"/>
<path d="M136.309 184.496L132.698 184.496L130.979 171.013L136.309 171.013L136.309 184.496Z" fill="#FFB6B6"/>
<path d="M137.23 187.885L125.586 187.884V187.742C125.586 186.578 126.064 185.462 126.913 184.64C127.763 183.817 128.916 183.355 130.118 183.355H130.118L137.23 183.355L137.23 187.885Z" fill="#2F2E41"/>
<path d="M139.195 179.129L129.475 180.555L115.333 134.228L100.314 180.84L89.4155 179.414L103.554 125.241V120.964L105.469 114.548L105.268 112.812L103.875 100.669L103.271 95.4024L103.232 95.0622C103.199 94.7767 103.277 94.4896 103.451 94.2568C103.625 94.024 103.882 93.8622 104.173 93.8028L108.709 92.879H116.123L120.497 94.0452L120.797 94.125L120.933 94.1621L120.865 94.7095L119.84 103.029L119.784 103.486L118.794 111.506L118.576 113.265C127.118 119.253 127.413 125.241 127.413 125.241L139.195 179.129Z" fill="#2F2E41"/>
<path d="M111.52 89.2718C115.515 89.2718 118.754 86.1364 118.754 82.2688C118.754 78.4012 115.515 75.2659 111.52 75.2659C107.524 75.2659 104.285 78.4012 104.285 82.2688C104.285 86.1364 107.524 89.2718 111.52 89.2718Z" fill="#FFB6B6"/>
<path d="M119.118 111.656L104.807 113.468L105.074 115.447L119.385 113.635L119.118 111.656Z" fill="#C13584"/>
<path d="M85.6105 114.065C85.7474 114.15 85.8771 114.246 85.9983 114.352L100.153 110.859L101.119 107.553L106.463 108.312L105.341 114.325C105.251 114.81 105 115.254 104.626 115.59C104.252 115.926 103.776 116.136 103.269 116.188L86.7414 117.872C86.472 118.421 86.0363 118.878 85.4923 119.181C84.9483 119.485 84.3217 119.621 83.6959 119.571C83.0701 119.522 82.4748 119.289 81.9891 118.904C81.5033 118.518 81.1503 117.999 80.9768 117.415C80.8033 116.831 80.8177 116.21 81.018 115.634C81.2182 115.058 81.5949 114.554 82.098 114.19C82.601 113.827 83.2065 113.62 83.834 113.597C84.4614 113.575 85.0811 113.738 85.6105 114.065Z" fill="#FFB6B6"/>
<path d="M107.383 95.5877L104.88 93.7344C104.203 93.4859 103.275 94.192 103.112 94.8749L99.5776 108.846L106.941 113.978L107.972 112.41L107.383 95.5877Z" fill="#C13584"/>
<g opacity="0.2">
<path opacity="0.2" d="M121.749 102.402C121.124 102.642 120.487 102.852 119.84 103.029C119.634 103.089 119.422 103.146 119.213 103.201C117.834 103.571 116.418 103.793 114.989 103.862C114.374 103.887 113.758 103.871 113.145 103.814C112.487 103.75 111.837 103.626 111.204 103.443C111.183 103.437 111.159 103.431 111.139 103.426C109.822 103.064 108.614 102.4 107.619 101.49C107.397 101.28 107.189 101.056 106.997 100.82C106.447 100.168 106.044 99.4117 105.813 98.6002C105.581 97.7887 105.527 96.9394 105.654 96.1066C105.679 95.9557 105.712 95.8062 105.755 95.659C105.865 95.2577 106.012 94.8666 106.193 94.49C106.273 94.3132 106.361 94.1393 106.456 93.9682L109.784 92.879H116.123L120.497 94.0452L120.791 94.0623L120.797 94.125L120.933 94.1621L120.865 94.7095L121.749 102.402Z" fill="black"/>
</g>
<path d="M105.976 76.4712C104.623 76.3107 103.138 76.4242 102.084 77.2603C101.029 78.0963 100.689 79.8343 101.687 80.7326C102.571 81.5278 103.953 81.3408 105.137 81.5669C106.157 81.7882 107.071 82.3343 107.732 83.1178C108.394 83.9013 108.764 84.8769 108.785 85.8885C108.767 88.7893 105.891 90.9862 105.375 93.8437C105.022 95.7939 105.872 97.8463 107.341 99.2239C108.81 100.601 110.829 101.346 112.864 101.548C114.899 101.749 116.956 101.441 118.933 100.935C120.919 100.427 122.874 99.7062 124.54 98.5436C126.206 97.381 127.572 95.7421 128.107 93.8226C128.642 91.9031 128.258 89.7023 126.879 88.2285C125.301 86.5408 122.675 85.9605 121.309 84.1068C119.779 82.0289 120.345 79.0698 119.106 76.817C118.279 75.3129 116.713 74.287 115.044 73.7466C113.374 73.2062 111.592 73.0995 109.832 73.0472C108.908 73.0197 107.955 73.0105 107.093 73.3369C106.231 73.6632 105.474 74.407 105.429 75.3015C105.385 76.1961 105.976 76.4712 105.976 76.4712Z" fill="#2F2E41"/>
<path d="M173.705 188H61.4803C61.4022 188 61.3273 187.97 61.2721 187.917C61.2168 187.863 61.1858 187.791 61.1858 187.715C61.1858 187.639 61.2168 187.567 61.2721 187.513C61.3273 187.46 61.4022 187.43 61.4803 187.43H173.705C173.783 187.43 173.858 187.46 173.914 187.513C173.969 187.567 174 187.639 174 187.715C174 187.791 173.969 187.863 173.914 187.917C173.858 187.97 173.783 188 173.705 188Z" fill="#CACACA"/>
</g>
<defs>
<clipPath id="clip0">
<rect width="174" height="188" fill="white"/>
</clipPath>
</defs>
</svg>
