<svg width="205" height="291" viewBox="0 0 205 291" fill="none" xmlns="http://www.w3.org/2000/svg">
<path d="M175.49 276.495C171.272 277.422 165.718 281.639 165.718 281.639C165.718 281.639 155.019 283.903 147.713 282.875C140.407 281.847 141.647 273.923 147.303 271.969C151.226 270.618 155.246 267.283 157.345 265.372C158.272 264.518 158.822 263.924 158.822 263.924L179.297 259.808C179.297 259.808 179.63 260.952 180.093 262.53C180.914 265.314 182.125 269.445 182.588 271.018C183.307 273.513 179.707 275.569 175.49 276.495Z" fill="#4E5568"/>
<path opacity="0.1" d="M180.093 262.554C173.371 278.58 157.383 266.212 157.383 266.212C157.383 266.212 157.383 265.903 157.345 265.372C158.271 264.518 158.821 263.924 158.821 263.924L179.297 259.808C179.297 259.808 179.63 260.976 180.093 262.554Z" fill="black"/>
<path opacity="0.1" d="M97.7096 290.026C151.673 290.026 195.419 281.021 195.419 269.913C195.419 258.805 151.673 249.8 97.7096 249.8C43.7461 249.8 0 258.805 0 269.913C0 281.021 43.7461 290.026 97.7096 290.026Z" fill="black"/>
<path d="M204.709 105.204C203.666 96.0451 199.541 87.3059 199.541 87.3059L199.854 84.2175C199.854 84.2175 199.922 82.6733 199.82 80.357C199.831 78.9108 200.021 77.4715 200.385 76.0718C201.229 73.3936 199.328 70.1025 199.116 69.7985C198.904 69.4945 199.222 63.6217 197.321 60.7407C195.419 57.8598 182.757 52.5034 182.757 52.5034C182.757 52.5034 182.077 51.0798 181.116 49.415L181.203 49.2461C180.417 47.8208 179.444 46.5077 178.308 45.3421C177.531 44.5121 176.783 44.0392 176.18 44.2708C175.934 43.4699 175.747 42.6522 175.62 41.8242C175.745 41.858 175.876 41.8918 176.001 41.9159C176.524 42.0371 177.066 42.0503 177.593 41.9545C178.771 41.6891 179.553 40.6323 180.209 39.6382C183.481 34.6678 186.299 29.2148 186.873 23.3324C187.028 22.1318 186.97 20.9134 186.704 19.7325C186.433 18.8144 186.054 17.9316 185.575 17.1025C184.729 15.4013 183.658 13.822 182.39 12.4071C180.137 10.0329 177.029 8.58041 173.834 7.72144C170.235 6.75364 166.486 6.47367 162.784 6.89625C161.818 7.00724 160.853 7.16649 159.888 7.22922C158.664 7.28315 157.438 7.2622 156.216 7.16649L149.899 6.79974L149.87 6.70323L148.818 6.64049C148.403 7.46568 148.818 8.44528 149.335 9.21739C149.851 9.98949 150.444 10.7954 150.401 11.7074C150.358 12.6195 149.696 13.353 149.18 14.1202C148.664 14.8875 148.273 15.8913 148.789 16.6441C148.862 16.7482 148.948 16.8423 149.045 16.9239C149.59 17.4885 150.541 17.5513 151.366 17.5416H151.511C149.433 20.2786 148.309 23.6213 148.312 27.0578C148.326 29.9945 149.147 32.8707 150.687 35.3714C152.227 37.8721 154.425 39.9009 157.041 41.2355C157.133 41.5492 157.224 41.8725 157.311 42.2006C158.268 45.5902 158.611 49.1234 158.325 52.6337L158.214 52.8749L158.146 52.6192C158.146 52.6192 150.705 57.6668 148.495 59.0035C146.285 60.3402 144.065 64.8715 143.959 66.1069C143.853 67.3422 140.369 85.974 140.369 85.974C139.66 87.8509 139.077 89.7725 138.622 91.7262L134.177 95.6301C134.177 95.6301 125.009 96.4553 122.354 95.8376L122.432 96.3491C120.091 95.8148 117.707 95.4918 115.309 95.384C113.999 95.2156 112.668 95.3937 111.448 95.9004L111.357 95.9438L111.284 95.9776C109.887 96.1685 108.523 96.5518 107.231 97.1164C107.076 97.1791 106.936 97.2419 106.801 97.3046L106.83 96.6725L96.9088 96.1609L91.8419 95.1331C91.8419 95.1331 90.0467 93.6854 88.9899 93.8977C87.9331 94.11 85.7182 92.6624 85.7182 92.6624C85.2129 92.2664 84.6659 91.9266 84.0871 91.649C83.9182 90.4812 83.812 89.7718 83.812 89.7718C83.812 89.7718 79.8695 74.1271 76.9162 64.9294C74.9377 58.7864 72.0905 55.7607 70.4112 54.4433C69.6632 53.1404 69.171 52.3007 69.171 52.3007C68.8477 51.1715 67.0719 48.6284 66.6183 48.5657C66.5459 48.4498 66.4928 48.3919 66.4638 48.3919C66.3668 48.3815 66.2687 48.3965 66.1791 48.4354C65.3491 44.3046 64.8666 39.1267 66.1357 34.6147C67.873 33.1869 69.2732 31.3927 70.2359 29.3604C71.1987 27.3282 71.7002 25.1082 71.7045 22.8595C71.7045 22.7919 71.7045 22.7244 71.7045 22.6568C71.7045 22.5892 71.7045 22.5169 71.7045 22.4493C71.7035 18.863 70.4334 15.3928 68.119 12.6532L67.955 12.4699C67.9989 12.4388 68.0408 12.4049 68.0804 12.3685C68.443 12.0744 68.7193 11.6877 68.8798 11.2493C69.0404 10.8109 69.0793 10.3372 68.9925 9.8785C68.7753 8.95198 68.0515 8.22331 67.6799 7.34504C67.4567 6.66894 67.2778 5.97902 67.1443 5.27967C66.8599 4.28637 66.3382 3.37713 65.6242 2.63039L65.6966 2.82341C63.8049 0.695305 60.5524 -0.361508 57.6233 0.111405C55.4469 0.458851 53.4201 1.47224 51.2341 1.7859C49.6658 2.00788 48.0685 1.86312 46.4905 2.02236C45.0265 2.17291 43.6013 2.58477 42.2826 3.23842C41.9381 3.38497 41.6325 3.60965 41.3898 3.8947C41.1654 4.27661 41.0148 4.69732 40.9459 5.1349C40.4102 7.08928 38.7116 8.48389 37.4811 10.115C36.0754 11.9784 35.2617 14.2211 35.1455 16.5524C35.0974 17.1448 35.1546 17.7412 35.3144 18.3137C35.4205 18.6563 35.5846 18.9797 35.6618 19.3271C35.9031 20.3887 35.3481 21.4456 35.0779 22.4976C34.7375 23.8395 34.8581 25.257 35.4205 26.5221C37.3266 30.788 43.5855 32.2116 44.8884 36.6897C45.8853 37.148 46.9384 37.4725 48.0203 37.6549C48.1071 38.0988 48.1843 38.5476 48.2471 39.0012C48.2177 39.0136 48.1901 39.0299 48.165 39.0495C46.4761 40.695 46.0562 43.8751 46.0562 43.8751L45.8535 44.0392C45.1635 44.6086 42.8037 46.5196 40.6708 47.9914C38.1374 49.7431 33.9149 55.6111 30.9616 57.3628C28.0083 59.1145 25.5762 69.9095 26.2132 73.8327C26.8502 77.756 29.485 88.7584 28.4282 92.7733C27.3713 96.7883 30.011 115.111 30.011 115.111C31.7823 115.449 33.5153 115.963 35.184 116.646L35.131 117.447L34.9717 119.86C34.9717 119.86 30.1895 137.155 32.0184 150.469C33.8473 163.783 31.1739 165.153 31.1739 165.153C31.1739 165.153 31.7337 171.055 30.3295 173.115C28.9252 175.176 28.6405 179.702 28.6405 179.702C28.6405 179.702 28.5005 189.86 28.7804 192.732C29.0603 195.603 29.2003 200.834 28.2158 202.069C27.2314 203.305 25.4025 211.397 25.5424 213.868C25.6824 216.339 22.0245 221.97 23.9934 229.242C25.9623 236.515 18.2026 236.655 18.2026 236.655C18.2026 236.655 19.1919 247.754 21.3007 250.929L21.6095 251.382C21.5565 251.566 21.5034 251.759 21.4455 251.966C20.6492 254.862 19.5586 259.432 20.3163 260.537C21.4406 262.187 22.0052 261.907 22.0052 261.907L22.4251 269.319C22.4251 269.319 30.8699 276.456 37.3459 276.186C43.8219 275.916 42.5528 269.319 42.5528 269.319L37.0371 255.016L36.8489 254.534L42.9775 242.952C42.9775 242.952 44.6664 237.876 45.0863 236.09C45.5061 234.305 47.7983 227.978 47.7983 227.978C47.7983 227.978 53.589 214.254 53.7097 212.604C53.8303 210.953 54.2743 202.04 55.3987 200.25C56.523 198.46 59.6211 188.186 59.6211 188.186L59.6983 188.253C60.2238 188.77 60.5993 189.419 60.7846 190.132C60.9699 190.845 60.958 191.595 60.7503 192.302C60.0409 194.908 60.4656 200.26 60.4656 200.26C60.4656 200.26 60.1857 204.791 59.6211 207.127C59.0565 209.462 58.9214 228.538 59.9058 233.064C60.6924 236.688 60.6683 243.473 60.6297 246.04C59.9685 248.767 59.3895 252.155 60.4656 252.555C62.2993 253.245 71.5887 253.105 71.5887 253.105C71.5887 253.105 75.5264 251.73 80.878 256.536C86.2297 261.343 102.69 255.166 102.69 255.166C102.69 255.166 107.757 253.79 97.7629 249.814C90.7899 247.039 86.2876 245.191 83.3439 243.213C83.4115 243.082 83.4839 242.952 83.5466 242.812C83.5466 242.812 79.4641 238.952 82.8421 232.109C86.22 225.266 86.0801 219.48 86.0801 219.48L86.6447 196.418L84.9557 165.805L83.6479 133.675L83.8796 133.598C84.1016 139.505 85.2549 153.567 91.2918 150.84C98.8922 147.409 92.4162 138.487 92.4162 138.487L89.0044 131.837L90.0226 131.489L86.2056 119.155C85.8392 116.748 85.7906 114.303 86.0608 111.883C86.1363 110.467 86.1073 109.048 85.9739 107.636C90.9733 106.763 95.7603 105.836 96.6193 106.049C97.6326 106.295 103.303 106.343 105.532 106.353C104.804 106.922 104.22 107.487 104.22 107.487L113.297 113.596C113.297 113.596 116.375 111.912 117.017 110.126C117.649 109.967 118.232 109.655 118.716 109.219C118.812 111.328 119.372 113.61 121.322 113.664C121.809 113.674 122.293 113.578 122.74 113.384L137.584 110.445L136.31 118.402L137.198 119.98C136.749 126.693 136.233 133.82 135.779 140.089L135.572 141.459L135.678 141.483C134.973 151.135 134.409 158.445 134.409 158.445C135.24 156.861 136.53 155.565 138.11 154.725L138.207 169.047C138.207 169.047 138.95 191.694 138.95 194.783C138.95 197.871 139.051 204.767 139.051 204.767C139.051 204.767 140.639 213.207 141.585 215.986C142.53 218.766 143.274 231.428 143.274 231.428C143.274 231.428 145.493 234.927 144.543 236.254C143.592 237.581 148.239 240.472 148.239 240.472C148.239 240.472 145.281 244.487 145.069 247.165C145.045 247.474 145.349 247.802 145.899 248.13C145.725 248.27 145.546 248.41 145.349 248.545C143.978 249.462 141.971 250.099 138.95 249.838C130.712 249.114 124.907 256.734 129.974 258.278C135.041 259.823 150.242 260.131 150.242 260.131C150.242 260.131 154.845 257.26 158.445 258.553C158.392 261.574 158.542 264.344 158.566 264.711L158.523 264.745C156.37 266.675 152.249 269.995 148.225 271.351C142.434 273.305 141.15 281.234 148.644 282.262C156.139 283.29 167.117 281.026 167.117 281.026C167.117 281.026 172.816 276.809 177.145 275.882C181.473 274.956 185.17 272.895 184.431 270.424C183.949 268.846 182.709 264.711 181.869 261.931C181.821 261.764 181.773 261.603 181.724 261.449C181.855 261.159 181.985 260.86 182.105 260.551C182.105 260.551 179.891 249.023 181.686 246.142C183.481 243.261 182.53 214.433 182.53 214.433C182.53 214.433 179.466 207.127 181.053 202.701C182.641 198.276 178.52 191.993 178.52 191.993C178.52 191.993 178.969 179.403 180.175 172.387C180.23 172.088 180.283 171.798 180.334 171.518C182.354 170.919 184.323 170.159 186.222 169.245C186.222 169.245 187.279 153.388 187.911 149.788C187.973 149.45 188.06 148.905 188.166 148.196L188.649 145.653L189.218 142.757L191.149 132.889L194.633 128.382L203.609 119.213C203.609 119.213 205.766 114.368 204.709 105.204ZM66.2901 48.585L66.2226 48.6332C66.2122 48.5984 66.2042 48.5629 66.1984 48.5271C66.2265 48.5501 66.2573 48.5696 66.2901 48.585ZM154.971 59.8239L154.623 60.5815L155.893 59.3172L154.17 61.2474L154.749 60.0314L154.971 59.8239ZM146.401 77.534C146.068 78.4171 145.711 79.3725 145.339 80.3666L146.019 78.335L146.401 77.534Z" fill="url(#paint0_linear)"/>
<path d="M118.706 106.406C118.706 106.406 117.523 114.276 121.07 114.378C124.617 114.479 126.987 108.307 126.987 108.307L125.539 103.37L118.706 106.406Z" fill="#585B8A"/>
<path opacity="0.2" d="M118.706 106.406C118.706 106.406 117.523 114.276 121.07 114.378C124.617 114.479 126.987 108.307 126.987 108.307L125.539 103.37L118.706 106.406Z" fill="black"/>
<path d="M39.2612 276.77C32.9493 277.045 24.7167 269.913 24.7167 269.913L24.3066 262.506C24.3066 262.506 23.7613 262.781 22.661 261.135C21.9227 260.03 22.9843 255.45 23.7613 252.57C24.1377 251.16 24.4465 250.157 24.4465 250.157L38.2961 253.863L38.9572 255.615L44.333 269.908C44.333 269.908 45.5683 276.495 39.2612 276.77Z" fill="#4E5568"/>
<path d="M102.897 255.788C102.897 255.788 86.8521 261.96 81.6645 257.159C76.477 252.357 72.6116 253.728 72.6116 253.728C72.6116 253.728 63.5587 253.868 61.7732 253.178C60.7212 252.777 61.2907 249.346 61.947 246.615C62.3909 244.728 62.8735 243.169 62.8735 243.169C62.8735 243.169 78.6437 237.818 81.1144 241.109C81.8565 242.076 82.7436 242.922 83.7444 243.618C86.6012 245.683 91.0649 247.556 98.1248 250.437C107.834 254.413 102.897 255.788 102.897 255.788Z" fill="#4E5568"/>
<path d="M88.4975 130.423L92.884 139.201C92.884 139.201 99.196 148.119 91.7886 151.545C84.3812 154.971 84.5212 131.798 84.5212 131.798L88.4975 130.423Z" fill="#FFD6D6"/>
<path d="M70.1167 54.3033C70.1167 54.3033 74.9182 56.499 77.7991 65.687C80.68 74.875 84.5212 90.5149 84.5212 90.5149C84.5212 90.5149 87.1271 108.206 86.7121 112.597C86.448 115.016 86.4951 117.458 86.852 119.864L90.5533 132.208L83.1459 134.814L71.7622 91.2001L70.1167 54.3033Z" fill="#DCE6F2"/>
<path opacity="0.05" d="M70.1167 54.3033C70.1167 54.3033 74.9182 56.499 77.7991 65.687C80.68 74.875 84.5212 90.5149 84.5212 90.5149C84.5212 90.5149 87.1271 108.206 86.7121 112.597C86.448 115.016 86.4951 117.458 86.852 119.864L90.5533 132.208L83.1459 134.814L71.7622 91.2001L70.1167 54.3033Z" fill="black"/>
<path opacity="0.1" d="M84.246 244.265C80.2456 253.327 66.6469 249.964 62.8684 248.83C62.2459 248.641 61.9033 248.516 61.9033 248.516C61.9033 248.516 61.9274 247.778 61.9371 246.615C62.381 244.728 62.8636 243.169 62.8636 243.169C62.8636 243.169 78.6338 237.818 81.1045 241.109C81.8467 242.076 82.7338 242.922 83.7345 243.618C83.8855 243.848 84.0567 244.065 84.246 244.265Z" fill="black"/>
<path d="M83.5558 232.746C80.2647 239.598 84.2458 243.444 84.2458 243.444C80.2454 252.502 66.6467 249.143 62.8683 248.005C62.2458 247.821 61.9031 247.696 61.9031 247.696C61.9031 247.696 62.1782 238.228 61.2179 233.701C60.2576 229.175 60.3927 210.114 60.9428 207.783C61.4929 205.452 61.7632 200.921 61.7632 200.921C61.7632 200.921 61.353 195.574 62.0382 192.968C62.2444 192.264 62.2583 191.518 62.0784 190.807C61.8985 190.095 61.5314 189.445 61.0152 188.924L60.9428 188.852C60.9428 188.852 57.9268 199.14 56.8265 200.916C55.7263 202.692 55.3209 211.614 55.181 213.26C55.0411 214.905 49.4192 228.625 49.4192 228.625C49.4192 228.625 47.2284 234.932 46.8182 236.713C46.408 238.493 44.7576 243.575 44.7576 243.575L38.1465 256.334C34.9905 257.704 27.173 256.609 27.173 256.609C27.173 256.609 25.6674 254.678 23.6068 251.532C21.5463 248.386 20.5908 237.272 20.5908 237.272C20.5908 237.272 28.1333 237.132 26.2127 229.865C24.2921 222.598 27.8582 216.971 27.7231 214.5C27.588 212.029 29.3687 203.942 30.329 202.706C31.2893 201.471 31.1493 196.259 30.8743 193.378C30.5992 190.497 30.7391 180.349 30.7391 180.349C30.7391 180.349 31.0142 175.823 32.3847 173.767C33.7552 171.711 33.2099 165.809 33.2099 165.809C33.2099 165.809 35.8109 164.439 34.0302 151.135C32.2496 137.83 36.9256 120.55 36.9256 120.55L37.0849 118.137L37.3358 114.228C37.3358 114.228 76.5634 111.757 79.7194 114.773C80.5443 115.611 81.2214 116.581 81.722 117.645C82.8018 119.966 83.5646 122.422 83.9901 124.946L85.6356 166.504L87.2812 197.089L86.731 220.132C86.731 220.132 86.8517 225.884 83.5558 232.746Z" fill="#3F3D56"/>
<path opacity="0.1" d="M71.9264 150.724L67.8102 239.873L62.8687 248C62.2462 247.816 61.9036 247.691 61.9036 247.691C61.9036 247.691 62.1787 238.223 61.2183 233.697C60.258 229.17 60.3932 210.109 60.9433 207.778C61.4934 205.447 61.7636 200.916 61.7636 200.916C61.7636 200.916 61.3535 195.569 62.0387 192.963C62.2449 192.259 62.2588 191.513 62.0789 190.802C61.8989 190.091 61.5318 189.441 61.0157 188.919L61.0832 188.437L71.9264 150.724Z" fill="black"/>
<path opacity="0.1" d="M27.5984 246.46C27.5984 246.46 38.2968 242.209 39.9424 243.565C41.5879 244.921 27.3281 246.991 27.3281 246.991L27.5984 246.46Z" fill="black"/>
<path opacity="0.1" d="M80.405 235.212C79.9948 235.352 69.5714 239.072 70.5317 243.029C71.492 246.986 80.405 235.212 80.405 235.212Z" fill="black"/>
<path d="M47.8315 32.2936C47.8315 32.2936 51.3253 40.7288 49.4771 45.0526C47.6289 49.3764 69.4311 56.7789 69.4311 56.7789C69.4311 56.7789 63.0564 40.3186 69.2284 31.0582C75.4004 21.7977 47.8315 32.2936 47.8315 32.2936Z" fill="#FFD6D6"/>
<path d="M170.244 260.653C170.244 260.653 161.602 261.579 158.002 259.523C154.402 257.468 149.258 260.759 149.258 260.759C149.258 260.759 134.443 260.45 129.506 258.906C124.57 257.361 130.225 249.737 138.25 250.47C141.175 250.736 143.153 250.094 144.49 249.177C145.886 248.22 146.859 246.761 147.207 245.104L164.579 246.132L166.992 252.29L170.244 260.653Z" fill="#4E5568"/>
<path opacity="0.1" d="M167.257 255.098C167.257 255.098 147.066 251.798 144.489 249.177C145.886 248.22 146.859 246.761 147.206 245.104L164.578 246.132L166.991 252.29L167.257 255.098Z" fill="black"/>
<path d="M137.324 139.582L137.531 169.718C137.531 169.718 138.25 192.35 138.25 195.439C138.25 198.527 138.352 205.413 138.352 205.413C138.352 205.413 139.896 213.849 140.822 216.628C141.749 219.408 142.468 232.07 142.468 232.07C142.468 232.07 144.63 235.569 143.703 236.896C142.777 238.223 147.303 241.114 147.303 241.114C147.303 241.114 144.408 245.128 144.22 247.802C144.031 250.475 167.257 254.273 167.257 254.273L158.209 161.49L151.004 138.245L137.324 139.582Z" fill="#3F3D56"/>
<path d="M180.325 261.169C173.738 278.059 157.383 265.387 157.383 265.387C157.383 265.387 156.867 256.642 157.9 252.632C158.932 248.622 156.766 236.582 156.766 236.582C156.766 236.582 155.53 225.884 154.401 223.418C153.272 220.952 153.373 216.011 153.373 215.6C153.373 215.19 153.784 211.894 152.857 209.631C151.931 207.368 151.409 201.814 151.409 201.814C151.409 201.814 151.409 193.996 150.483 189.368L147.293 173.444L141.531 140.832L143.331 140.523L175.581 134.867C175.581 134.867 181.652 165.752 179.591 168.917C179.147 169.612 178.756 171.132 178.433 173.091C177.255 180.098 176.816 192.679 176.816 192.679C176.816 192.679 180.826 198.952 179.287 203.377C177.748 207.802 180.735 215.103 180.735 215.103C180.735 215.103 181.661 243.908 179.91 246.788C178.158 249.669 180.325 261.169 180.325 261.169Z" fill="#3F3D56"/>
<path d="M177.236 50.602C177.236 50.602 148.022 71.1737 154.604 60.8855C158.151 55.3456 157.5 48.2906 156.11 42.963C155.407 40.2534 154.437 37.6201 153.214 35.1021C153.214 35.1021 178.037 24.5436 174.746 34.0067C173.975 36.2113 173.647 38.5466 173.781 40.8784C173.978 44.3835 175.178 47.7584 177.236 50.602Z" fill="#D28690"/>
<path d="M124.637 97.7148C124.637 97.7148 112.293 94.1486 110.237 97.6472C108.181 101.146 110.855 108.823 114.58 110.059C118.306 111.294 126.857 105.875 126.857 105.875L124.637 97.7148Z" fill="#D28690"/>
<path d="M138.766 91.649L133.622 96.3829C133.622 96.3829 124.67 97.2033 122.098 96.5856C122.098 96.5856 124.468 112.428 121.07 114.383L141.85 110.165L138.766 91.649Z" fill="#3F3D56"/>
<path opacity="0.1" d="M72.7223 23.6508C72.7223 27.7463 71.0954 31.6741 68.1995 34.57C65.3035 37.466 61.3758 39.0929 57.2803 39.0929C49.3566 35.2855 41.8382 32.1874 41.8382 23.6508C41.7561 21.5732 42.0943 19.5004 42.8327 17.5567C43.5711 15.6129 44.6945 13.8384 46.1354 12.3393C47.5763 10.8403 49.3051 9.64771 51.2181 8.83306C53.1311 8.01842 55.189 7.59851 57.2682 7.59851C59.3475 7.59851 61.4053 8.01842 63.3183 8.83306C65.2314 9.64771 66.9602 10.8403 68.4011 12.3393C69.842 13.8384 70.9653 15.6129 71.7037 17.5567C72.4421 19.5004 72.7804 21.5732 72.6982 23.6508H72.7223Z" fill="black"/>
<path d="M72.7222 23.2358C72.7245 26.8674 71.4444 30.3832 69.1076 33.1632C66.7708 35.9432 63.5274 37.8087 59.9495 38.4308C56.3715 39.053 52.6888 38.3917 49.5508 36.5637C46.4128 34.7357 44.021 31.8584 42.7973 28.4391C41.5737 25.0199 41.5966 21.2783 42.8622 17.8743C44.1277 14.4704 46.5546 11.6226 49.7149 9.83323C52.8751 8.04388 56.5656 7.42789 60.1357 8.09389C63.7057 8.75988 66.9259 10.6651 69.2284 13.4735C71.4833 16.2277 72.7175 19.6763 72.7222 23.2358Z" fill="#FFD6D6"/>
<path opacity="0.1" d="M81.7222 117.659C80.1945 118.608 78.5956 119.437 76.94 120.14C76.94 120.14 69.1225 119.006 67.9933 120.342C66.8641 121.679 56.8943 122.195 56.8943 122.195C56.8943 122.195 41.6694 121.476 39.4062 119.522C38.7064 118.955 37.9277 118.494 37.0947 118.151L37.3457 114.243C37.3457 114.243 76.5733 111.772 79.7292 114.788C80.5507 115.626 81.2246 116.597 81.7222 117.659Z" fill="black"/>
<path d="M83.6286 114.894C83.3198 116.641 76.9403 119.314 76.9403 119.314C76.9403 119.314 69.1228 118.185 67.9936 119.522C66.8644 120.859 56.8946 121.375 56.8946 121.375C56.8946 121.375 41.6697 120.651 39.4065 118.697C37.1432 116.742 32.1004 115.801 32.1004 115.801C32.1004 115.801 29.5284 97.4929 30.5611 93.4828C31.5938 89.4727 29.0169 78.4606 28.3992 74.5518C27.7815 70.643 30.1461 59.8433 33.027 58.0964C35.9079 56.3495 40.0241 50.4815 42.49 48.7346C44.5699 47.2628 46.8669 45.3567 47.5377 44.7824L47.7355 44.6184C47.7355 44.6184 48.1505 41.4286 49.7961 39.7927C51.4416 38.1568 66.5603 50.1823 66.5603 50.1823C66.5603 50.1823 66.6665 51.1088 67.6944 49.362C67.926 48.9711 69.919 51.8472 70.2664 53.0632C70.2664 53.0632 78.4941 67.4678 79.0105 70.4355C79.5268 73.4033 81.6839 83.0884 82.0941 85.4529C82.2002 86.061 82.374 88.1939 82.5766 91.0507C82.6152 91.6105 82.649 92.204 82.6924 92.8217C82.9965 97.5605 83.3246 103.612 83.5225 108.187C83.5225 108.708 83.5659 109.21 83.5804 109.692C83.6846 111.424 83.7007 113.16 83.6286 114.894Z" fill="#DCE6F2"/>
<path opacity="0.1" d="M43.3055 92.5706C43.3055 92.5706 34.0451 102.651 35.2804 104.504C36.5158 106.357 43.3055 92.5706 43.3055 92.5706Z" fill="black"/>
<path opacity="0.1" d="M36.5156 112.631C36.5156 112.631 47.132 101.006 47.6146 96.9958L36.5156 112.631Z" fill="black"/>
<path opacity="0.1" d="M49.8877 113.451C49.8877 113.451 62.1303 106.97 63.1582 101.826C64.1861 96.6822 49.8877 113.451 49.8877 113.451Z" fill="black"/>
<path opacity="0.1" d="M65.4213 50.9109L63.7227 55.0223L66.5505 56.359L69.33 64.1283C69.33 64.1283 76.9931 79.4546 76.6843 87.4266C76.3755 95.3985 78.0741 107.381 78.0741 107.381L82.4944 106.56L80.4097 83.1124C80.0851 79.482 79.1758 75.9279 77.717 72.5877C74.1846 64.4999 67.6121 49.5693 67.1971 49.5693C66.6325 49.5693 67.0282 49.7769 67.0282 49.7769L65.4213 50.9109Z" fill="black"/>
<path d="M65.8314 50.4959L64.1328 54.6121L66.9655 55.9488L69.7402 63.7181C69.7402 63.7181 77.4033 79.0444 77.0945 87.0163C76.7856 94.9883 78.4843 106.97 78.4843 106.97L82.9094 106.15L80.8199 82.7022C80.4991 79.0717 79.5913 75.5172 78.132 72.1775C74.5996 64.0849 68.0271 49.1592 67.6169 49.1592C67.0475 49.1592 67.4432 49.3667 67.4432 49.3667L65.8314 50.4959Z" fill="#575989"/>
<path d="M115.927 110.951C113.774 110.787 108.611 108.177 106.56 107.091L105.691 106.608L105.798 98.6413C106.305 98.3431 106.83 98.0771 107.371 97.845C110.112 96.6483 115.734 95.022 118.552 100.258C122.354 107.279 118.653 111.135 115.927 110.951Z" fill="#FFD6D6"/>
<path opacity="0.1" d="M69.2286 13.4736C69.0075 13.6121 68.7644 13.7116 68.5096 13.7679C66.7193 14.1588 64.6829 12.6194 63.1483 13.6087C62.2122 14.2167 61.995 15.4762 61.8695 16.5861C61.6508 18.5164 61.432 20.4338 61.2132 22.3383C61.1674 23.0163 61.0244 23.6842 60.7886 24.3216C60.031 26.054 57.9511 26.8696 56.0546 26.8406C55.3117 26.8935 54.5781 26.6506 54.0134 26.165C53.6804 25.8272 53.5019 25.3543 53.1351 25.0455C50.7223 23.0235 49.9888 27.9795 50.6258 29.3885C51.6488 31.6904 55.2825 33.9102 53.7576 36.8345C53.5012 37.3098 53.1123 37.7004 52.6381 37.9589C50.3401 37.2392 48.2423 35.9921 46.5122 34.3172C44.7821 32.6422 43.4677 30.5859 42.674 28.3124C41.8803 26.039 41.6293 23.6114 41.941 21.2236C42.2527 18.8359 43.1185 16.5541 44.4692 14.5606C45.82 12.5671 47.6182 10.9171 49.7203 9.74243C51.8224 8.56777 54.1701 7.901 56.5758 7.79538C58.9815 7.68976 61.3786 8.14823 63.5755 9.13415C65.7725 10.1201 67.7084 11.6061 69.2286 13.4736Z" fill="black"/>
<path d="M52.7253 25.0262C53.0873 25.3302 53.2706 25.8031 53.6036 26.1409C54.1685 26.6261 54.902 26.8688 55.6449 26.8165C57.5413 26.8454 59.6212 26.0347 60.374 24.2927C60.614 23.658 60.7588 22.9913 60.8035 22.3142L61.4597 16.562C61.5852 15.4521 61.7975 14.1926 62.7385 13.5846C64.2731 12.6194 66.3095 14.1347 68.0998 13.7438C68.7452 13.5798 69.3039 13.1762 69.6624 12.6151C70.0209 12.054 70.1524 11.3775 70.0301 10.723C69.8226 9.80128 69.118 9.07261 68.7561 8.19434C68.5367 7.5195 68.361 6.83122 68.2301 6.13379C67.2312 2.38909 62.8351 0.285117 59.0131 0.91245C56.8899 1.26472 54.9162 2.27811 52.7881 2.58695C51.2632 2.80893 49.7045 2.66416 48.1651 2.82823C46.7349 2.97581 45.3443 3.38645 44.0633 4.03946C43.727 4.1883 43.4297 4.41292 43.1947 4.69575C42.9761 5.07775 42.8289 5.49637 42.7604 5.93111C42.2441 7.86137 40.584 9.28494 39.3824 10.9112C38.0081 12.7823 37.2128 15.0155 37.0951 17.3341C37.0478 17.9263 37.1033 18.5222 37.2592 19.0955C37.3605 19.4333 37.5197 19.7614 37.597 20.1088C37.8334 21.1657 37.2929 22.2225 37.0275 23.2745C36.6978 24.6169 36.8164 26.0304 37.3653 27.299C39.2184 31.5601 45.3228 32.9837 46.592 37.457C47.719 37.9974 48.9362 38.3246 50.1822 38.4222C51.4272 38.4463 52.7688 37.9106 53.3478 36.8056C54.8679 33.9102 51.239 31.6614 50.216 29.3644C49.5742 27.9505 50.2932 22.9994 52.7253 25.0262Z" fill="#353045"/>
<path opacity="0.1" d="M174.77 34.0067C173.999 36.2113 173.671 38.5466 173.805 40.8784C173.062 41.5105 172.251 39.6189 171.392 40.1063C169.037 41.4671 166.316 44.7051 163.401 44.7051C160.873 44.7068 158.381 44.1098 156.129 42.963C155.426 40.2534 154.456 37.6201 153.233 35.1021C153.233 35.1021 178.061 24.5436 174.77 34.0067Z" fill="black"/>
<path d="M179.432 27.8347C179.432 31.0091 178.49 34.1122 176.727 36.7516C174.963 39.391 172.456 41.4482 169.524 42.663C166.591 43.8778 163.364 44.1957 160.25 43.5764C157.137 42.9571 154.277 41.4285 152.033 39.1838C149.788 36.9392 148.259 34.0793 147.64 30.9659C147.021 27.8525 147.338 24.6254 148.553 21.6926C149.768 18.7598 151.825 16.2531 154.465 14.4895C157.104 12.7259 160.207 11.7846 163.382 11.7846C165.49 11.784 167.577 12.1987 169.524 13.0051C171.472 13.8114 173.242 14.9936 174.732 16.4842C176.223 17.9747 177.405 19.7443 178.211 21.6918C179.018 23.6394 179.432 25.7268 179.432 27.8347Z" fill="#D28690"/>
<path d="M178.747 54.1682C178.747 54.1682 175.726 57.4593 175.316 57.7296C174.905 57.9998 166.147 94.887 165.992 95.3165C165.838 95.746 155.564 129.053 155.564 129.053L139.104 137.145L140.479 96.4071L152.543 62.811C152.543 62.811 156.525 58.2845 157.755 56.639C158.986 54.9934 174.35 45.1154 174.35 45.1154L176.976 50.5249L178.747 54.1682Z" fill="#F0F3F7"/>
<path opacity="0.1" d="M176.57 51.3501L157.644 64.9005L157.34 57.4594C158.576 55.8138 173.936 45.9406 173.936 45.9406L176.57 51.3501Z" fill="black"/>
<path d="M176.98 50.5249L158.054 64.0753L157.76 56.639C158.995 54.9886 174.355 45.1154 174.355 45.1154L176.98 50.5249Z" fill="#F0F3F7"/>
<path d="M157.128 53.3286L157.76 56.6389L153.528 60.9386L156.906 53.3768C156.906 53.3768 149.668 58.4196 147.496 59.7563C145.325 61.093 143.153 65.6195 143.071 66.8548C142.989 68.0902 139.572 86.7075 139.572 86.7075C139.572 86.7075 137 93.5985 137.724 95.5529C138.448 97.5073 133.815 159.126 133.815 159.126C134.435 157.929 135.31 156.884 136.379 156.064C137.449 155.244 138.686 154.67 140.002 154.382L138.352 117.968C138.352 117.968 140.359 93.7433 140.46 93.4345C140.562 93.1256 145.141 79.083 145.141 79.083L157.128 53.3286Z" fill="#3F3D56"/>
<path opacity="0.1" d="M158.175 57.0492L157.847 63.8051C157.847 63.8051 153.267 78.2579 151.728 80.6224C150.189 82.987 145.503 97.0827 145.503 97.0827L142.863 121.568L138.337 123.629L136.107 119.522L139.814 95.8763C139.814 95.8763 146.806 75.9223 147.839 73.8617L152.997 62.9944L158.175 57.0492Z" fill="black"/>
<path d="M157.76 56.639L157.437 63.3949C157.437 63.3949 152.857 77.8477 151.313 80.2122C149.769 82.5768 145.093 96.6725 145.093 96.6725L142.467 121.153L137.941 123.209L135.678 119.097L139.384 95.4516C139.384 95.4516 146.376 75.4928 147.404 73.437L152.601 62.5842L157.76 56.639Z" fill="#663D5C"/>
<path d="M104.408 108.206L113.253 114.329C113.253 114.329 119.493 110.831 115.859 108.568C112.225 106.304 109.002 105.962 107.834 105.962C106.666 105.962 104.408 108.206 104.408 108.206Z" fill="#D28690"/>
<path d="M111.014 96.8848C110.817 97.0077 110.654 97.1791 110.542 97.3827C110.43 97.5863 110.371 97.8152 110.373 98.0478C110.373 99.925 110.585 104.895 112.158 102.651C114.088 99.9056 113.736 97.4397 116.685 99.2204C118.517 100.362 120.121 101.835 121.414 103.563L120.593 97.6665C120.593 97.6665 114.532 94.6747 111.014 96.8848Z" fill="#D28690"/>
<path opacity="0.1" d="M179.601 168.898C179.157 169.593 178.766 171.113 178.443 173.072C160.404 178.482 147.206 167.045 147.206 167.045C145.609 161.634 144.305 156.141 143.297 150.589C142.974 148.688 143.046 145.001 143.346 140.504L175.595 134.848C175.595 134.848 181.661 165.708 179.601 168.898Z" fill="black"/>
<path d="M198.117 76.8295C197.297 79.5077 197.606 84.9559 197.606 84.9559L190.198 119.932C190.198 119.932 186.598 146.883 185.981 150.483C185.363 154.083 184.335 169.926 184.335 169.926C163.348 180.214 147.178 166.224 147.178 166.224C145.581 160.812 144.276 155.317 143.269 149.764C142.236 143.655 145.276 119.179 146.714 108.307C147.144 105.088 147.433 103.062 147.433 103.062L152.833 83.0015C152.833 83.0015 159.469 66.078 161.939 61.1414C164.41 56.2047 174.332 45.1154 174.332 45.1154C175.562 44.3337 177.531 47.0939 178.993 49.6081C180.098 51.5094 180.923 53.2756 180.923 53.2756C180.923 53.2756 193.267 58.6224 195.116 61.4792C196.964 64.3359 196.66 70.2232 196.867 70.5321C197.075 70.8409 198.942 74.1561 198.117 76.8295Z" fill="#3F3D56"/>
<path opacity="0.1" d="M169.009 64.3841C169.009 64.3841 169.935 69.8371 167.561 71.4826C165.269 73.0751 148.205 106.628 147.144 108.722C147.573 105.499 147.863 103.472 147.863 103.472L153.262 83.4164C153.262 83.4164 159.903 66.4929 162.368 61.5515C164.834 56.61 174.766 45.5255 174.766 45.5255C175.996 44.7438 177.96 47.504 179.422 50.0182C177.217 54.5977 172.618 63.2549 169.009 64.3841Z" fill="black"/>
<path d="M168.598 63.974C168.598 63.974 169.52 69.427 167.151 71.0725C164.781 72.7181 147.8 106.213 146.724 108.307C147.153 105.088 147.443 103.062 147.443 103.062L152.843 83.0015C152.843 83.0015 159.478 66.078 161.949 61.1414C164.419 56.2047 174.341 45.1154 174.341 45.1154C175.571 44.3337 177.54 47.0939 179.002 49.6081C176.807 54.1828 172.203 62.8448 168.598 63.974Z" fill="#3F3D56"/>
<path d="M193.078 113.248L187.273 143.452V143.457L186.718 146.348V146.352L185.468 152.852L180.136 151.723L177.651 151.197L143.259 143.911L140.73 143.375L134.958 142.154L136.088 134.655L136.556 131.538L140.72 103.887L193.078 113.248Z" fill="#833AB4"/>
<path d="M160.983 137.937C160.983 137.937 147.302 142.873 150.285 148.736C153.267 154.599 172.401 144.21 172.401 144.21L160.983 137.937Z" fill="#D28690"/>
<path opacity="0.1" d="M170.755 180.006C170.755 180.417 171.272 185.667 173.327 187.515C175.383 189.363 170.755 180.006 170.755 180.006Z" fill="black"/>
<path opacity="0.1" d="M156.973 198.624C156.973 198.624 159.439 205.413 169.211 208.193C178.983 210.972 156.973 198.624 156.973 198.624Z" fill="black"/>
<path opacity="0.1" d="M179.432 27.8347C179.433 30.6562 178.69 33.428 177.277 35.8705C175.865 38.3131 173.833 40.3401 171.388 41.747C170.466 41.2312 169.648 40.5489 168.975 39.7347C168.275 38.8854 167.73 37.7272 168.15 36.7138C168.488 35.8983 169.38 35.382 169.597 34.5375C169.7 34.021 169.673 33.4874 169.52 32.9836C169.342 32.1874 169.173 31.3912 168.999 30.5998C168.849 29.9242 168.584 29.1279 167.913 28.9639C167.242 28.7998 166.683 29.3596 166.157 29.7746C164.868 30.7928 162.398 31.4828 160.849 30.648C159.3 29.8132 159.734 27.0191 159.483 25.5087C159.48 25.3775 159.448 25.2486 159.39 25.131C159.331 25.0134 159.248 24.9101 159.145 24.8283C158.92 24.7535 158.679 24.7369 158.445 24.78C157.611 24.78 156.94 24.0321 156.698 23.231C156.528 22.4132 156.434 21.5811 156.419 20.7458C156.327 19.911 156.023 19.0279 155.309 18.5984C154.738 18.3328 154.105 18.2293 153.48 18.2992L150.454 18.333C152.461 15.6193 155.273 13.6075 158.489 12.5836C161.705 11.5598 165.163 11.5759 168.369 12.6298C171.576 13.6837 174.369 15.7217 176.35 18.454C178.332 21.1863 179.402 24.4738 179.408 27.8491L179.432 27.8347Z" fill="black"/>
<path d="M166.586 29.7746C167.112 29.3596 167.691 28.8094 168.343 28.9687C168.994 29.1279 169.274 29.9338 169.423 30.5998L169.945 32.9788C170.099 33.4839 170.127 34.019 170.027 34.5375C169.781 35.3868 168.893 35.8983 168.55 36.7138C168.13 37.7272 168.68 38.8854 169.375 39.7299C170.643 41.2574 172.395 42.3048 174.341 42.6976C174.849 42.8197 175.377 42.8312 175.89 42.7314C177.038 42.466 177.82 41.4092 178.438 40.4199C181.627 35.4495 184.373 30.0014 184.933 24.1238C185.087 22.9249 185.031 21.7085 184.769 20.5286C184.507 19.6116 184.138 18.7288 183.669 17.8987C182.847 16.2028 181.804 14.6238 180.566 13.2033C178.37 10.8388 175.34 9.38625 172.227 8.52729C168.726 7.55585 165.071 7.26912 161.461 7.6828C160.496 7.79379 159.57 7.95304 158.619 8.01577C157.425 8.07127 156.229 8.05193 155.038 7.95786L147.935 7.53321C147.53 8.35839 147.935 9.33799 148.417 10.1101C148.9 10.8822 149.498 11.6833 149.46 12.6001C149.421 13.517 148.77 14.2408 148.268 15.0129C147.766 15.785 147.385 16.784 147.887 17.5368C148.388 18.2896 149.412 18.3378 150.299 18.3282L153.88 18.2896C154.504 18.2254 155.133 18.3339 155.699 18.6032C156.414 19.0327 156.718 19.9206 156.809 20.7506C156.829 21.5856 156.923 22.4173 157.089 23.2358C157.335 24.0369 158.001 24.7945 158.836 24.7849C159.07 24.7382 159.312 24.7566 159.536 24.8379C159.638 24.9188 159.722 25.0213 159.78 25.138C159.838 25.2548 159.87 25.383 159.874 25.5135C160.124 27.024 159.661 29.8132 161.239 30.6528C162.817 31.4925 165.298 30.7928 166.586 29.7746Z" fill="#663D5C"/>
<path opacity="0.1" d="M186.984 61.4743C185.21 61.2859 183.424 61.7062 181.92 62.6664C180.417 63.6266 179.284 65.0696 178.708 66.7584C176.778 72.2548 173.559 82.1715 174.365 86.0899C175.499 91.6442 176.836 100.905 176.836 100.905C176.836 100.905 182.699 104.283 179.731 107.689C176.763 111.096 175.924 115.922 175.924 115.922C175.924 115.922 172.116 117.568 171.296 121.066C170.476 124.565 164.916 129.395 164.916 129.395L156.587 137.729C156.587 137.729 170.369 151.723 173.149 152.438L181.686 142.458L191.766 129.086L200.51 119.918C200.51 119.918 202.566 115.092 201.538 105.923C200.51 96.7546 196.495 88.025 196.495 88.025L196.804 84.9366C196.804 84.9366 197.75 62.811 186.984 61.4743Z" fill="black"/>
<path d="M187.804 61.4742C186.032 61.2881 184.248 61.7096 182.747 62.6696C181.245 63.6296 180.113 65.0712 179.538 66.7583C177.608 72.2547 174.389 82.1714 175.195 86.0898C176.324 91.6441 177.661 100.905 177.661 100.905C177.661 100.905 183.524 104.282 180.556 107.689C177.589 111.096 176.754 115.922 176.754 115.922C176.754 115.922 172.946 117.567 172.121 121.066C171.296 124.565 165.746 129.395 165.746 129.395L157.413 137.729C157.413 137.729 171.195 151.723 173.974 152.438L182.511 142.458L192.567 129.086L201.311 119.918C201.311 119.918 203.372 115.092 202.339 105.923C201.307 96.7545 197.301 88.0249 197.301 88.0249L197.61 84.9365C197.61 84.9365 198.57 62.8109 187.804 61.4742Z" fill="#3F3D56"/>
<path opacity="0.1" d="M179.191 92.7781C179.191 92.7781 187.935 103.472 191.641 101.107C195.347 98.7426 179.191 92.7781 179.191 92.7781Z" fill="black"/>
<path opacity="0.1" d="M182.482 84.5457C183.408 84.8545 191.023 95.4516 194.932 94.1969C198.841 92.9423 182.482 84.5457 182.482 84.5457Z" fill="black"/>
<path opacity="0.1" d="M156.92 53.787L153.528 61.3488L157.765 57.0492L156.92 53.787Z" fill="black"/>
<path d="M156.92 53.3767L153.528 60.9386L157.765 56.6389L156.92 53.3767Z" fill="#F0F3F7"/>
<path opacity="0.3" d="M143.259 143.911L140.73 143.375L136.088 134.655L136.556 131.538L143.259 143.911Z" fill="black"/>
<path opacity="0.3" d="M187.273 143.457L186.718 146.348V146.352L180.136 151.723L177.651 151.197L187.273 143.457Z" fill="black"/>
<path opacity="0.1" d="M83.5655 109.711C82.2916 109.924 81.0562 110.117 79.927 110.261C73.6537 111.087 58.7328 103.679 58.7328 103.679C58.7328 103.679 40.5257 88.4543 35.2802 74.0546C30.0347 59.6549 41.5535 57.493 41.5535 57.493C45.8966 55.0223 55.3404 61.9133 56.6771 63.0473C58.0138 64.1814 59.1478 67.0575 59.0416 68.9105C58.9355 70.7635 62.13 73.1281 62.13 73.1281C62.13 73.1281 67.583 82.5912 68.9197 83.619C70.2564 84.6469 70.5653 85.5734 70.9754 87.3251C71.3856 89.0768 74.9856 90.5149 76.5298 90.4087C78.074 90.3026 79.9077 90.9251 79.9077 91.7454C79.9077 92.4065 81.4181 92.7347 82.6583 92.8408C83.0251 98.1153 83.387 105.026 83.5655 109.711Z" fill="black"/>
<path opacity="0.1" d="M83.5076 108.206C82.5425 108.36 81.616 108.5 80.7474 108.616C74.4741 109.441 59.558 102.034 59.558 102.034C59.558 102.034 41.3508 86.8089 36.1054 72.4092C30.8599 58.0095 42.3787 55.8476 42.3787 55.8476C46.7218 53.3769 56.1607 60.2679 57.4974 61.4019C58.8341 62.5359 59.9682 65.412 59.8668 67.2651C59.7655 69.1181 62.9504 71.4827 62.9504 71.4827C62.9504 71.4827 68.4034 80.9457 69.7401 81.9736C71.0768 83.0015 71.3856 83.928 71.8006 85.6797C72.2156 87.4314 75.8107 88.8646 77.355 88.7633C78.8992 88.6619 80.7329 89.2796 80.7329 90.1C80.7329 90.5825 81.5919 90.9059 82.5473 91.0651C82.586 91.6249 82.6197 92.2184 82.6632 92.8361C82.9816 97.5797 83.3098 103.631 83.5076 108.206Z" fill="black"/>
<path opacity="0.1" d="M107.371 97.845L106.98 107.091H106.56L105.691 106.608L105.798 98.6413C106.305 98.343 106.83 98.0771 107.371 97.845Z" fill="black"/>
<path d="M41.5535 56.668C41.5535 56.668 30.0347 58.8299 35.2802 73.2296C40.5257 87.6293 58.7328 102.859 58.7328 102.859C58.7328 102.859 73.6489 110.262 79.927 109.441C86.2052 108.621 95.7648 106.459 97.0001 106.768C98.2355 107.077 106.569 107.077 106.569 107.077L106.98 97.4253L97.3283 96.909L92.3916 95.8811C92.3916 95.8811 90.6399 94.4334 89.6121 94.6458C88.5842 94.8581 86.4271 93.4104 86.4271 93.4104C86.4271 93.4104 84.7768 92.0737 83.5318 92.0737C82.2867 92.0737 79.9318 91.7649 79.9318 90.9445C79.9318 90.1241 78.0788 89.4968 76.5539 89.6078C75.029 89.7188 71.3856 88.2711 70.961 86.5001C70.5363 84.7291 70.2419 83.8267 68.9052 82.7988C67.5685 81.771 62.1156 72.303 62.1156 72.303C62.1156 72.303 58.9258 69.9385 59.0272 68.0903C59.1285 66.242 57.9993 63.3563 56.6626 62.2223C55.3259 61.0883 45.8676 54.2021 41.5535 56.668Z" fill="#DCE6F2"/>
<path opacity="0.1" d="M71.183 89.7911C71.183 89.7911 66.7579 94.2162 67.8871 95.0365L71.183 89.7911Z" fill="black"/>
<path opacity="0.1" d="M75.9122 93.2897C75.9122 93.2897 70.1504 97.7148 71.6946 98.0236C73.2388 98.3325 75.9122 93.2897 75.9122 93.2897Z" fill="black"/>
<path opacity="0.1" d="M66.1353 99.8526C66.9604 100.268 79.1983 107.574 83.8309 107.467L66.1353 99.8526Z" fill="black"/>
<path opacity="0.1" d="M66.9655 51.0123C66.9655 51.0123 64.8037 58.1108 63.9785 58.1108C63.3318 58.1108 52.4741 49.3185 47.9429 45.6221L48.1407 45.458C48.1407 45.458 48.5509 42.2683 50.1965 40.6324C51.842 38.9965 66.9655 51.0123 66.9655 51.0123Z" fill="black"/>
<path d="M66.5505 50.1871C66.5505 50.1871 64.3934 57.2856 63.5683 57.2856C62.9168 57.2856 52.0591 48.4933 47.5278 44.7968L47.7257 44.6328C47.7257 44.6328 48.1407 41.443 49.7862 39.8071C51.4318 38.1712 66.5505 50.1871 66.5505 50.1871Z" fill="#DCE6F2"/>
<g opacity="0.15">
<path opacity="0.15" d="M37.418 27.2459C38.8657 30.5515 42.8516 32.1536 45.1631 34.7884C43.7878 31.5504 39.7681 29.9628 37.418 27.2459Z" fill="black"/>
<path opacity="0.15" d="M52.17 34.8608C51.5957 35.9659 50.2397 36.5015 49.0044 36.4774C47.9061 36.3986 46.8307 36.124 45.8291 35.6667C46.1925 36.2024 46.4693 36.7918 46.6495 37.4135C47.7761 37.9549 48.9935 38.2822 50.2397 38.3786C51.4896 38.4076 52.8311 37.872 53.4054 36.7621C54.3271 35.0008 53.3668 33.4952 52.2424 32.0717C52.4519 32.5091 52.5547 32.9901 52.5421 33.475C52.5295 33.9598 52.402 34.4348 52.17 34.8608Z" fill="black"/>
<path opacity="0.15" d="M70.078 10.6747C69.8705 9.74816 69.1659 9.01949 68.804 8.14605C68.5824 7.47022 68.4066 6.78019 68.278 6.08067C68.0038 5.09154 67.4957 4.18289 66.7966 3.4314C66.8937 3.66892 66.9759 3.91228 67.0427 4.16007C67.1779 4.86267 67.3584 5.55579 67.5831 6.23509C67.9451 7.10853 68.6496 7.83721 68.8571 8.76373C68.9794 9.41826 68.8479 10.0948 68.4894 10.6559C68.1309 11.217 67.5722 11.6205 66.9269 11.7846C65.1414 12.1755 63.1049 10.6312 61.5704 11.6253C60.6294 12.2285 60.4122 13.488 60.2868 14.5979C60.0712 16.5282 59.8525 18.4472 59.6305 20.3549C59.5869 21.0317 59.4438 21.6984 59.2058 22.3334C58.4482 24.0706 56.3683 24.8862 54.4719 24.8572C53.7309 24.9067 52.9999 24.6642 52.4354 24.1816C52.1611 23.7931 51.8663 23.4194 51.5524 23.0621C49.1395 21.0353 48.406 25.9913 49.043 27.4052C49.362 28.0412 49.7574 28.636 50.2205 29.1762C49.6897 27.5837 50.4328 22.9994 52.7877 24.9634C53.1016 25.3195 53.3948 25.6933 53.666 26.0829C54.2327 26.5649 54.9649 26.8072 55.7072 26.7585C57.6037 26.7875 59.6836 25.972 60.4412 24.2347C60.6797 23.5981 60.8227 22.9298 60.8658 22.2514C61.0846 20.3211 61.3034 18.4037 61.5221 16.4992C61.6476 15.3893 61.8648 14.1298 62.8009 13.5266C64.3403 12.5326 66.3767 14.0768 68.1622 13.6811C68.8025 13.5151 69.3562 13.1126 69.7116 12.5548C70.0671 11.997 70.198 11.3252 70.078 10.6747Z" fill="black"/>
</g>
<path opacity="0.1" d="M176.917 41.5009C176.404 41.5966 175.876 41.5835 175.368 41.4623C173.425 41.0697 171.674 40.0242 170.407 38.4993C169.708 37.65 169.158 36.4919 169.582 35.4785C169.92 34.663 170.808 34.1515 171.03 33.3021C171.13 32.7837 171.102 32.2485 170.948 31.7435L170.427 29.3644C170.277 28.6888 170.017 27.8926 169.346 27.7333C168.675 27.5741 168.115 28.1242 167.589 28.5392C166.301 29.5574 163.825 30.2523 162.281 29.4127C160.737 28.573 161.166 25.7838 160.915 24.2734C160.911 24.143 160.879 24.0152 160.821 23.8985C160.762 23.7819 160.679 23.6793 160.578 23.5978C160.351 23.519 160.109 23.5007 159.873 23.5447C159.038 23.5447 158.372 22.7967 158.126 21.9957C157.959 21.1774 157.867 20.3455 157.851 19.5105C157.755 18.6805 157.455 17.7925 156.736 17.3631C156.169 17.0961 155.541 16.9877 154.917 17.0494L151.336 17.088C150.453 17.088 149.406 17.0301 148.924 16.2966C148.441 15.5631 148.798 14.5208 149.305 13.7728C149.812 13.0248 150.453 12.2817 150.497 11.36C150.54 10.4383 149.942 9.64203 149.454 8.86993C149.175 8.4477 148.969 7.981 148.846 7.4898L147.819 7.42706C147.418 8.24742 147.819 9.22702 148.301 10.004C148.784 10.7809 149.387 11.5771 149.344 12.4892C149.3 13.4012 148.658 14.1347 148.152 14.902C147.645 15.6693 147.273 16.673 147.775 17.4258C148.277 18.1786 149.295 18.2317 150.188 18.222L153.769 18.1786C154.393 18.1182 155.021 18.2283 155.588 18.4971C156.307 18.9266 156.611 19.8145 156.703 20.6445C156.718 21.4798 156.812 22.3119 156.983 23.1297C157.224 23.9259 157.895 24.6884 158.729 24.6739C158.963 24.6325 159.204 24.6508 159.429 24.727C159.531 24.8092 159.614 24.9127 159.673 25.0301C159.731 25.1476 159.763 25.2763 159.767 25.4074C160.018 26.913 159.555 29.707 161.133 30.5467C162.711 31.3864 165.172 30.6915 166.441 29.6733C166.967 29.2583 167.551 28.7081 168.202 28.8626C168.854 29.017 169.133 29.8277 169.278 30.4936L169.804 32.8775C169.957 33.3829 169.984 33.9181 169.881 34.4362C169.64 35.2807 168.747 35.797 168.41 36.6077C167.99 37.6211 168.535 38.7841 169.235 39.6286C170.51 41.16 172.274 42.2061 174.229 42.5915C174.737 42.7126 175.265 42.7258 175.778 42.6301C176.608 42.3773 177.32 41.8365 177.786 41.1052C177.522 41.288 177.228 41.422 176.917 41.5009Z" fill="black"/>
<defs>
<linearGradient id="paint0_linear" x1="111.613" y1="282.532" x2="111.613" y2="-0.00922874" gradientUnits="userSpaceOnUse">
<stop stop-color="#808080" stop-opacity="0.25"/>
<stop offset="0.54" stop-color="#808080" stop-opacity="0.12"/>
<stop offset="1" stop-color="#808080" stop-opacity="0.1"/>
</linearGradient>
</defs>
</svg>
