<svg width="206" height="300" viewBox="0 0 206 300" fill="none" xmlns="http://www.w3.org/2000/svg">
<path d="M176.317 285.437C172.096 286.391 166.537 290.731 166.537 290.731C166.537 290.731 155.83 293.06 148.519 292.002C141.207 290.944 142.448 282.791 148.108 280.779C152.034 279.389 156.057 275.958 158.158 273.991C159.085 273.112 159.636 272.502 159.636 272.502L180.127 268.266C180.127 268.266 180.461 269.443 180.924 271.066C181.745 273.932 182.958 278.182 183.421 279.801C184.141 282.368 180.538 284.484 176.317 285.437Z" fill="#4E5568"/>
<path opacity="0.1" d="M180.924 271.091C174.196 287.582 158.196 274.855 158.196 274.855C158.196 274.855 158.196 274.537 158.158 273.991C159.085 273.112 159.636 272.502 159.636 272.502L180.127 268.266C180.127 268.266 180.46 269.467 180.924 271.091Z" fill="black"/>
<path opacity="0.1" d="M98.475 299.361C152.481 299.361 196.262 290.095 196.262 278.664C196.262 267.233 152.481 257.967 98.475 257.967C44.4688 257.967 0.687988 267.233 0.687988 278.664C0.687988 290.095 44.4688 299.361 98.475 299.361Z" fill="black"/>
<path d="M205.56 109.174C204.516 99.749 200.387 90.7561 200.387 90.7561L200.701 87.578C200.701 87.578 200.769 85.989 200.667 83.6054C200.678 82.1172 200.868 80.6362 201.232 79.1959C202.077 76.4399 200.175 73.0533 199.962 72.7404C199.75 72.4276 200.068 66.3843 198.166 63.4198C196.263 60.4552 183.59 54.9433 183.59 54.9433C183.59 54.9433 182.909 53.4784 181.948 51.7652L182.035 51.5914C181.249 50.1247 180.274 48.7735 179.137 47.5741C178.36 46.72 177.611 46.2334 177.008 46.4717C176.762 45.6475 176.575 44.8061 176.447 43.9541C176.573 43.9889 176.703 44.0236 176.829 44.0485C177.352 44.1732 177.894 44.1867 178.423 44.0882C179.601 43.8151 180.383 42.7276 181.04 41.7046C184.315 36.59 187.135 30.9787 187.71 24.9255C187.864 23.69 187.807 22.4362 187.541 21.221C187.269 20.2763 186.89 19.3679 186.411 18.5147C185.564 16.7642 184.492 15.139 183.223 13.6831C180.968 11.2399 177.858 9.74526 174.661 8.86136C171.059 7.86546 167.307 7.57737 163.601 8.01222C162.635 8.12643 161.669 8.2903 160.703 8.35485C159.478 8.41035 158.251 8.38878 157.028 8.29029L150.706 7.9129L150.677 7.81359L149.625 7.74903C149.209 8.59817 149.625 9.60621 150.141 10.4007C150.658 11.1952 151.252 12.0245 151.209 12.963C151.165 13.9016 150.504 14.6564 149.987 15.4459C149.47 16.2355 149.079 17.2683 149.596 18.043C149.668 18.1501 149.754 18.2469 149.852 18.331C150.397 18.912 151.349 18.9765 152.175 18.9666H152.319C150.24 21.783 149.115 25.2227 149.117 28.759C149.131 31.781 149.954 34.7407 151.495 37.314C153.036 39.8873 155.236 41.9749 157.854 43.3483C157.946 43.6711 158.038 44.0038 158.124 44.3414C159.082 47.8294 159.425 51.4652 159.139 55.0773L159.028 55.3256L158.96 55.0624C158.96 55.0624 151.513 60.2566 149.301 61.6321C147.089 63.0076 144.868 67.6704 144.761 68.9416C144.655 70.2129 141.168 89.3855 141.168 89.3855C140.46 91.3169 139.876 93.2943 139.42 95.3047L134.972 99.3219C134.972 99.3219 125.796 100.171 123.14 99.5355L123.217 100.062C120.875 99.512 118.489 99.1796 116.089 99.0687C114.778 98.8954 113.446 99.0786 112.225 99.6L112.133 99.6447L112.061 99.6795C110.663 99.876 109.297 100.27 108.004 100.851C107.85 100.916 107.71 100.98 107.574 101.045L107.603 100.395L97.674 99.8682L92.603 98.8105C92.603 98.8105 90.8064 97.3207 89.7488 97.5392C88.6911 97.7577 86.4744 96.268 86.4744 96.268C85.9687 95.8605 85.4214 95.5109 84.842 95.2252C84.673 94.0235 84.5668 93.2935 84.5668 93.2935C84.5668 93.2935 80.6211 77.1947 77.6654 67.73C75.6854 61.4086 72.836 58.2951 71.1553 56.9395C70.4067 55.5987 69.9142 54.7347 69.9142 54.7347C69.5906 53.5727 67.8133 50.9558 67.3594 50.8912C67.2869 50.7721 67.2338 50.7125 67.2048 50.7125C67.1077 50.7018 67.0095 50.7172 66.9199 50.7572C66.0892 46.5065 65.6063 41.1783 66.8764 36.5353C68.6151 35.0661 70.0164 33.2198 70.9799 31.1285C71.9434 29.0373 72.4453 26.7529 72.4496 24.4388C72.4496 24.3693 72.4496 24.2998 72.4496 24.2303C72.4496 24.1607 72.4496 24.0863 72.4496 24.0167C72.4486 20.3264 71.1775 16.7554 68.8613 13.9363L68.6971 13.7476C68.7411 13.7156 68.783 13.6808 68.8227 13.6434C69.1856 13.3407 69.462 12.9427 69.6227 12.4916C69.7834 12.0405 69.8224 11.5531 69.7355 11.081C69.5181 10.1276 68.7937 9.37779 68.4218 8.47403C68.1985 7.7783 68.0194 7.06836 67.8858 6.3487C67.6012 5.32657 67.0791 4.39094 66.3645 3.62252L66.4369 3.82114C64.5438 1.63126 61.2887 0.54377 58.3572 1.03041C56.1791 1.38794 54.1507 2.43074 51.963 2.75352C50.3934 2.98194 48.7949 2.83297 47.2156 2.99684C45.7504 3.15176 44.3241 3.57558 43.0043 4.2482C42.6596 4.399 42.3537 4.63021 42.1109 4.92354C41.8863 5.31652 41.7355 5.74945 41.6666 6.19973C41.1305 8.21085 39.4305 9.64594 38.199 11.3244C36.7922 13.2419 35.9779 15.5497 35.8615 17.9486C35.8135 18.5583 35.8707 19.1719 36.0306 19.7611C36.1368 20.1137 36.301 20.4464 36.3783 20.8039C36.6198 21.8964 36.0644 22.9839 35.7939 24.0664C35.4532 25.4473 35.574 26.906 36.1368 28.2078C38.0445 32.5975 44.3083 34.0624 45.6122 38.6706C46.6099 39.1421 47.6638 39.4761 48.7466 39.6637C48.8335 40.1206 48.9108 40.5824 48.9736 41.0492C48.9442 41.0619 48.9166 41.0786 48.8915 41.0988C47.2011 42.7921 46.781 46.0645 46.781 46.0645L46.5781 46.2334C45.8875 46.8193 43.5259 48.7858 41.3913 50.3003C38.8558 52.1029 34.63 58.1412 31.6744 59.9438C28.7187 61.7463 26.2847 72.8546 26.9222 76.8918C27.5597 80.9289 30.1966 92.2507 29.1389 96.3822C28.0813 100.514 30.723 119.369 30.723 119.369C32.4957 119.716 34.2301 120.245 35.9002 120.948L35.8471 121.772L35.6877 124.255C35.6877 124.255 30.9017 142.052 32.732 155.752C34.5624 169.453 31.8869 170.863 31.8869 170.863C31.8869 170.863 32.4471 176.936 31.0417 179.057C29.6363 181.177 29.3514 185.835 29.3514 185.835C29.3514 185.835 29.2114 196.288 29.4915 199.242C29.7716 202.197 29.9116 207.58 28.9264 208.851C27.9412 210.122 26.1108 218.45 26.2509 220.992C26.391 223.535 22.7302 229.33 24.7006 236.813C26.6711 244.296 18.9053 244.44 18.9053 244.44C18.9053 244.44 19.8953 255.861 22.0058 259.129L22.3149 259.596C22.2618 259.784 22.2086 259.983 22.1507 260.196C21.3538 263.176 20.2623 267.878 21.0206 269.016C22.1458 270.714 22.7109 270.426 22.7109 270.426L23.1311 278.053C23.1311 278.053 31.5826 285.397 38.0638 285.119C44.5449 284.841 43.2748 278.053 43.2748 278.053L37.7547 263.335L37.5663 262.838L43.6998 250.92C43.6998 250.92 45.3901 245.697 45.8103 243.859C46.2304 242.022 48.5244 235.512 48.5244 235.512C48.5244 235.512 54.3198 221.389 54.4405 219.691C54.5613 217.993 55.0056 208.821 56.1308 206.979C57.2561 205.137 60.3566 194.564 60.3566 194.564L60.4339 194.634C60.9599 195.165 61.3356 195.834 61.521 196.567C61.7065 197.301 61.6946 198.073 61.4867 198.8C60.7768 201.482 61.2018 206.989 61.2018 206.989C61.2018 206.989 60.9217 211.652 60.3566 214.055C59.7916 216.458 59.6563 236.088 60.6416 240.746C61.4288 244.475 61.4046 251.457 61.366 254.099C60.7043 256.904 60.1248 260.39 61.2018 260.802C63.037 261.512 72.3337 261.368 72.3337 261.368C72.3337 261.368 76.2746 259.953 81.6304 264.899C86.9863 269.845 103.46 263.489 103.46 263.489C103.46 263.489 108.531 262.073 98.5288 257.982C91.5502 255.126 87.0443 253.225 84.0983 251.189C84.1659 251.055 84.2384 250.92 84.3012 250.776C84.3012 250.776 80.2154 246.804 83.596 239.763C86.9767 232.721 86.8366 226.767 86.8366 226.767L87.4017 203.036L85.7114 171.533L84.4025 138.472L84.6344 138.392C84.8565 144.47 86.0108 158.94 92.0525 156.135C99.6589 152.604 93.1777 143.423 93.1777 143.423L89.7633 136.58L90.7823 136.222L86.9622 123.53C86.5956 121.053 86.5469 118.537 86.8173 116.046C86.8929 114.59 86.8639 113.129 86.7304 111.677C91.7337 110.778 96.5245 109.824 97.3842 110.043C98.3984 110.296 104.073 110.346 106.304 110.356C105.575 110.942 104.991 111.523 104.991 111.523L114.075 117.809C114.075 117.809 117.156 116.076 117.798 114.239C118.43 114.075 119.014 113.754 119.498 113.305C119.595 115.475 120.155 117.824 122.106 117.879C122.594 117.889 123.079 117.791 123.526 117.591L138.382 114.567L137.107 122.755L137.995 124.379C137.546 131.286 137.029 138.621 136.575 145.071L136.368 146.481L136.474 146.506C135.769 156.438 135.204 163.961 135.204 163.961C136.036 162.33 137.327 160.996 138.908 160.132L139.005 174.87C139.005 174.87 139.748 198.175 139.748 201.353C139.748 204.531 139.85 211.627 139.85 211.627C139.85 211.627 141.439 220.312 142.385 223.172C143.332 226.032 144.076 239.062 144.076 239.062C144.076 239.062 146.297 242.662 145.346 244.028C144.394 245.394 149.045 248.368 149.045 248.368C149.045 248.368 146.085 252.5 145.872 255.256C145.848 255.573 146.152 255.911 146.703 256.249C146.529 256.393 146.35 256.537 146.152 256.676C144.781 257.619 142.772 258.275 139.748 258.007C131.504 257.262 125.695 265.103 130.765 266.692C135.836 268.281 151.049 268.598 151.049 268.598C151.049 268.598 155.657 265.644 159.259 266.975C159.206 270.083 159.356 272.934 159.38 273.311L159.337 273.346C157.183 275.332 153.058 278.748 149.031 280.144C143.235 282.155 141.951 290.314 149.451 291.371C156.951 292.429 167.938 290.1 167.938 290.1C167.938 290.1 173.642 285.76 177.974 284.807C182.306 283.853 186.005 281.733 185.266 279.19C184.783 277.566 183.542 273.311 182.702 270.451C182.653 270.279 182.605 270.113 182.557 269.954C182.687 269.656 182.818 269.348 182.938 269.03C182.938 269.03 180.722 257.167 182.518 254.203C184.315 251.238 183.363 221.573 183.363 221.573C183.363 221.573 180.297 214.055 181.885 209.501C183.474 204.948 179.35 198.482 179.35 198.482C179.35 198.482 179.799 185.527 181.006 178.307C181.061 177.999 181.114 177.701 181.166 177.413C183.187 176.796 185.158 176.014 187.058 175.074C187.058 175.074 188.115 158.757 188.748 155.052C188.811 154.705 188.898 154.144 189.004 153.414L189.487 150.797L190.057 147.817L191.989 137.662L195.476 133.024L204.458 123.589C204.458 123.589 206.617 118.604 205.56 109.174ZM67.031 50.9111L66.9633 50.9607C66.953 50.9249 66.9449 50.8884 66.9392 50.8515C66.9672 50.8752 66.9981 50.8953 67.031 50.9111ZM155.782 62.4763L155.434 63.2559L156.705 61.9549L154.98 63.9412L155.56 62.6898L155.782 62.4763ZM147.205 80.7005C146.872 81.6092 146.514 82.5924 146.143 83.6153L146.823 81.5248L147.205 80.7005Z" fill="url(#paint0_linear_1728:337)"/>
<path d="M119.488 110.41C119.488 110.41 118.305 118.509 121.855 118.614C125.404 118.718 127.776 112.367 127.776 112.367L126.327 107.287L119.488 110.41Z" fill="#585B8A"/>
<path opacity="0.2" d="M119.488 110.41C119.488 110.41 118.305 118.509 121.855 118.614C125.404 118.718 127.776 112.367 127.776 112.367L126.327 107.287L119.488 110.41Z" fill="black"/>
<path d="M39.9801 285.72C33.6632 286.003 25.4241 278.664 25.4241 278.664L25.0136 271.042C25.0136 271.042 24.4679 271.325 23.3668 269.631C22.6279 268.494 23.6904 263.782 24.4679 260.817C24.8446 259.367 25.1537 258.334 25.1537 258.334L39.0143 262.148L39.6759 263.951L45.0559 278.659C45.0559 278.659 46.2923 285.437 39.9801 285.72Z" fill="#4E5568"/>
<path d="M103.667 264.129C103.667 264.129 87.6093 270.48 82.4176 265.539C77.2259 260.599 73.3575 262.009 73.3575 262.009C73.3575 262.009 64.2974 262.153 62.5105 261.443C61.4577 261.031 62.0276 257.5 62.6844 254.689C63.1287 252.748 63.6116 251.144 63.6116 251.144C63.6116 251.144 79.3943 245.637 81.867 249.023C82.6097 250.019 83.4976 250.89 84.4991 251.606C87.3581 253.731 91.8254 255.658 98.8909 258.622C108.608 262.714 103.667 264.129 103.667 264.129Z" fill="#4E5568"/>
<path d="M89.2556 135.125L93.6455 144.157C93.6455 144.157 99.9624 153.334 92.5492 156.86C85.136 160.385 85.2761 136.54 85.2761 136.54L89.2556 135.125Z" fill="#FFD6D6"/>
<path d="M70.8604 56.7954C70.8604 56.7954 75.6657 59.0548 78.5489 68.5096C81.432 77.9643 85.2763 94.0582 85.2763 94.0582C85.2763 94.0582 87.8842 112.263 87.4689 116.781C87.2046 119.27 87.2517 121.783 87.6089 124.26L91.3131 136.962L83.8999 139.644L72.5072 94.7633L70.8604 56.7954Z" fill="#DCE6F2"/>
<path opacity="0.05" d="M70.8604 56.7954C70.8604 56.7954 75.6657 59.0548 78.5489 68.5096C81.432 77.9643 85.2763 94.0582 85.2763 94.0582C85.2763 94.0582 87.8842 112.263 87.4689 116.781C87.2046 119.27 87.2517 121.783 87.6089 124.26L91.3131 136.962L83.8999 139.644L72.5072 94.7633L70.8604 56.7954Z" fill="black"/>
<path opacity="0.1" d="M85.0011 252.271C80.9975 261.597 67.388 258.136 63.6065 256.969C62.9835 256.775 62.6406 256.646 62.6406 256.646C62.6406 256.646 62.6648 255.886 62.6744 254.689C63.1187 252.748 63.6017 251.144 63.6017 251.144C63.6017 251.144 79.3844 245.637 81.8571 249.024C82.5998 250.019 83.4876 250.89 84.4891 251.606C84.6403 251.843 84.8116 252.065 85.0011 252.271Z" fill="black"/>
<path d="M84.3098 240.418C81.0161 247.469 85.0005 251.427 85.0005 251.427C80.9968 260.748 67.3874 257.291 63.6059 256.12C62.9829 255.931 62.64 255.802 62.64 255.802C62.64 255.802 62.9153 246.059 61.9542 241.401C60.9932 236.743 61.1284 217.129 61.679 214.73C62.2295 212.332 62.5 207.669 62.5 207.669C62.5 207.669 62.0895 202.167 62.7752 199.485C62.9816 198.761 62.9955 197.993 62.8154 197.261C62.6354 196.529 62.268 195.861 61.7514 195.324L61.679 195.25C61.679 195.25 58.6605 205.837 57.5594 207.664C56.4583 209.491 56.0526 218.673 55.9126 220.366C55.7725 222.06 50.1462 236.177 50.1462 236.177C50.1462 236.177 47.9536 242.667 47.5431 244.5C47.1326 246.332 45.4809 251.561 45.4809 251.561L38.8645 264.69C35.7061 266.101 27.8823 264.973 27.8823 264.973C27.8823 264.973 26.3755 262.987 24.3133 259.749C22.2512 256.512 21.2949 245.076 21.2949 245.076C21.2949 245.076 28.8434 244.932 26.9213 237.453C24.9991 229.975 28.5681 224.185 28.4329 221.643C28.2977 219.1 30.0797 210.778 31.0408 209.506C32.0019 208.235 31.8618 202.872 31.5865 199.908C31.3112 196.943 31.4513 186.5 31.4513 186.5C31.4513 186.5 31.7266 181.842 33.0981 179.727C34.4697 177.611 33.924 171.538 33.924 171.538C33.924 171.538 36.5271 170.128 34.745 156.438C32.9629 142.747 37.6427 124.965 37.6427 124.965L37.802 122.482L38.0532 118.46C38.0532 118.46 77.312 115.917 80.4704 119.021C81.296 119.882 81.9737 120.881 82.4746 121.976C83.5552 124.364 84.3187 126.891 84.7445 129.489L86.3913 172.253L88.0382 203.726L87.4876 227.438C87.4876 227.438 87.6084 233.357 84.3098 240.418Z" fill="#3F3D56"/>
<path opacity="0.1" d="M72.6713 156.016L68.5518 247.752L63.6064 256.115C62.9834 255.926 62.6405 255.797 62.6405 255.797C62.6405 255.797 62.9158 246.054 61.9547 241.396C60.9937 236.738 61.1289 217.124 61.6795 214.725C62.23 212.327 62.5005 207.664 62.5005 207.664C62.5005 207.664 62.09 202.162 62.7758 199.481C62.9821 198.756 62.996 197.988 62.8159 197.256C62.6359 196.525 62.2685 195.856 61.7519 195.319L61.8195 194.823L72.6713 156.016Z" fill="black"/>
<path opacity="0.1" d="M28.3081 254.531C28.3081 254.531 39.015 250.156 40.6618 251.551C42.3087 252.946 28.0376 255.077 28.0376 255.077L28.3081 254.531Z" fill="black"/>
<path opacity="0.1" d="M81.1566 242.955C80.746 243.099 70.3143 246.928 71.2754 251C72.2365 255.072 81.1566 242.955 81.1566 242.955Z" fill="black"/>
<path d="M48.5576 34.1467C48.5576 34.1467 52.0542 42.8268 50.2045 47.2761C48.3548 51.7254 70.1743 59.3429 70.1743 59.3429C70.1743 59.3429 63.7946 42.4047 69.9715 32.8755C76.1484 23.3462 48.5576 34.1467 48.5576 34.1467Z" fill="#FFD6D6"/>
<path d="M171.067 269.135C171.067 269.135 162.417 270.088 158.815 267.973C155.212 265.857 150.064 269.244 150.064 269.244C150.064 269.244 135.237 268.926 130.297 267.337C125.356 265.748 131.016 257.902 139.048 258.657C141.974 258.93 143.954 258.27 145.292 257.326C146.69 256.341 147.664 254.84 148.011 253.135L165.397 254.193L167.812 260.529L171.067 269.135Z" fill="#4E5568"/>
<path opacity="0.1" d="M168.077 263.419C168.077 263.419 147.871 260.023 145.292 257.326C146.689 256.341 147.663 254.84 148.011 253.135L165.397 254.193L167.812 260.529L168.077 263.419Z" fill="black"/>
<path d="M138.121 144.55L138.328 175.561C138.328 175.561 139.048 198.85 139.048 202.028C139.048 205.206 139.149 212.292 139.149 212.292C139.149 212.292 140.695 220.972 141.622 223.832C142.549 226.693 143.269 239.723 143.269 239.723C143.269 239.723 145.432 243.323 144.505 244.688C143.578 246.054 148.108 249.029 148.108 249.029C148.108 249.029 145.21 253.16 145.022 255.911C144.834 258.662 168.078 262.57 168.078 262.57L159.023 167.094L151.812 143.174L138.121 144.55Z" fill="#3F3D56"/>
<path d="M181.156 269.666C174.563 287.046 158.196 274.006 158.196 274.006C158.196 274.006 157.68 265.008 158.713 260.882C159.747 256.755 157.578 244.366 157.578 244.366C157.578 244.366 156.342 233.357 155.212 230.819C154.082 228.282 154.183 223.197 154.183 222.775C154.183 222.353 154.594 218.961 153.666 216.632C152.739 214.303 152.217 208.588 152.217 208.588C152.217 208.588 152.217 200.543 151.29 195.781L148.098 179.394L142.332 145.836L144.133 145.518L176.408 139.698C176.408 139.698 182.484 171.479 180.422 174.736C179.977 175.451 179.586 177.016 179.262 179.032C178.084 186.242 177.645 199.187 177.645 199.187C177.645 199.187 181.658 205.643 180.117 210.197C178.577 214.75 181.566 222.263 181.566 222.263C181.566 222.263 182.493 251.904 180.74 254.868C178.987 257.833 181.156 269.666 181.156 269.666Z" fill="#3F3D56"/>
<path d="M178.065 52.9867C178.065 52.9867 148.827 74.1557 155.415 63.5687C158.964 57.868 158.312 50.6081 156.922 45.126C156.218 42.3376 155.248 39.6279 154.024 37.0368C154.024 37.0368 178.867 26.1717 175.573 35.9095C174.801 38.1782 174.473 40.5813 174.607 42.9808C174.804 46.5877 176.005 50.0605 178.065 52.9867Z" fill="#D28690"/>
<path d="M125.424 101.467C125.424 101.467 113.07 97.7974 111.013 101.398C108.955 104.998 111.631 112.898 115.359 114.169C119.088 115.441 127.645 109.864 127.645 109.864L125.424 101.467Z" fill="#D28690"/>
<path d="M139.564 95.2251L134.416 100.096C134.416 100.096 125.457 100.941 122.883 100.305C122.883 100.305 125.254 116.608 121.854 118.619L142.65 114.279L139.564 95.2251Z" fill="#3F3D56"/>
<path opacity="0.1" d="M73.4681 25.2531C73.4681 29.4675 71.8399 33.5093 68.9417 36.4893C66.0434 39.4693 62.1125 41.1434 58.0138 41.1434C50.0838 37.2255 42.5594 34.0375 42.5594 25.2531C42.4772 23.1152 42.8157 20.9822 43.5547 18.9821C44.2937 16.9819 45.4179 15.1558 46.86 13.6133C48.302 12.0708 50.0322 10.8435 51.9468 10.0053C53.8613 9.16696 55.9208 8.73486 58.0017 8.73486C60.0826 8.73486 62.1421 9.16696 64.0567 10.0053C65.9712 10.8435 67.7014 12.0708 69.1434 13.6133C70.5855 15.1558 71.7097 16.9819 72.4487 18.9821C73.1877 20.9822 73.5262 23.1152 73.444 25.2531H73.4681Z" fill="black"/>
<path d="M73.4678 24.8261C73.4701 28.5631 72.189 32.181 69.8504 35.0416C67.5117 37.9023 64.2658 39.822 60.685 40.4622C57.1042 41.1024 53.4186 40.4219 50.2781 38.5409C47.1376 36.6598 44.7439 33.6989 43.5193 30.1804C42.2946 26.6619 42.3176 22.8118 43.5841 19.309C44.8507 15.8062 47.2795 12.8757 50.4423 11.0344C53.605 9.19315 57.2985 8.55927 60.8713 9.2446C64.4442 9.92993 67.667 11.8905 69.9713 14.7804C72.228 17.6145 73.4632 21.1632 73.4678 24.8261Z" fill="#FFD6D6"/>
<path opacity="0.1" d="M82.475 121.991C80.946 122.967 79.3459 123.82 77.689 124.543C77.689 124.543 69.8652 123.376 68.7351 124.751C67.605 126.127 57.6273 126.658 57.6273 126.658C57.6273 126.658 42.3903 125.918 40.1253 123.907C39.425 123.324 38.6457 122.849 37.812 122.497L38.0631 118.475C38.0631 118.475 77.3219 115.932 80.4804 119.036C81.3025 119.898 81.9769 120.897 82.475 121.991Z" fill="black"/>
<path d="M84.383 119.145C84.0739 120.943 77.6894 123.694 77.6894 123.694C77.6894 123.694 69.8656 122.532 68.7355 123.907C67.6054 125.283 57.6277 125.814 57.6277 125.814C57.6277 125.814 42.3907 125.069 40.1257 123.058C37.8607 121.047 32.8139 120.079 32.8139 120.079C32.8139 120.079 30.2398 101.239 31.2733 97.1122C32.3068 92.9857 29.7279 81.6539 29.1097 77.6317C28.4915 73.6094 30.858 62.4961 33.7412 60.6986C36.6244 58.901 40.7439 52.8626 43.2118 51.0651C45.2933 49.5505 47.5921 47.5891 48.2634 46.9981L48.4614 46.8293C48.4614 46.8293 48.8767 43.547 50.5236 41.8636C52.1704 40.1802 67.3012 52.5548 67.3012 52.5548C67.3012 52.5548 67.4074 53.5082 68.4361 51.7106C68.6679 51.3084 70.6625 54.268 71.0102 55.5193C71.0102 55.5193 79.2444 70.342 79.7612 73.3959C80.2779 76.4498 82.4367 86.416 82.8472 88.8492C82.9535 89.4749 83.1273 91.6698 83.3302 94.6095C83.3688 95.1855 83.4026 95.7963 83.4461 96.4319C83.7503 101.308 84.0787 107.535 84.2768 112.243C84.2768 112.779 84.3202 113.296 84.3347 113.792C84.439 115.574 84.4551 117.361 84.383 119.145Z" fill="#DCE6F2"/>
<path opacity="0.1" d="M44.0278 96.1736C44.0278 96.1736 34.76 106.547 35.9964 108.454C37.2327 110.361 44.0278 96.1736 44.0278 96.1736Z" fill="black"/>
<path opacity="0.1" d="M37.2324 116.816C37.2324 116.816 47.8573 104.854 48.3403 100.727L37.2324 116.816Z" fill="black"/>
<path opacity="0.1" d="M50.6152 117.66C50.6152 117.66 62.8675 110.991 63.8962 105.698C64.9248 100.404 50.6152 117.66 50.6152 117.66Z" fill="black"/>
<path opacity="0.1" d="M66.1609 53.3045L64.4609 57.5353L67.291 58.9108L70.0728 66.9057C70.0728 66.9057 77.742 82.6768 77.4329 90.8802C77.1238 99.0836 78.8238 111.413 78.8238 111.413L83.2476 110.569L81.1613 86.4408C80.8364 82.705 79.9264 79.0478 78.4664 75.6106C74.9312 67.288 68.3535 51.9241 67.9382 51.9241C67.3731 51.9241 67.7691 52.1376 67.7691 52.1376L66.1609 53.3045Z" fill="black"/>
<path d="M66.5715 52.8775L64.8716 57.1132L67.7065 58.4887L70.4834 66.4835C70.4834 66.4835 78.1526 82.2547 77.8435 90.4581C77.5344 98.6614 79.2344 110.991 79.2344 110.991L83.663 110.147L81.5718 86.0187C81.2507 82.2828 80.3423 78.6252 78.8818 75.1885C75.3466 66.8609 68.7689 51.502 68.3584 51.502C67.7886 51.502 68.1846 51.7155 68.1846 51.7155L66.5715 52.8775Z" fill="#575989"/>
<path d="M116.707 115.088C114.553 114.919 109.385 112.233 107.333 111.115L106.463 110.619L106.57 102.42C107.077 102.114 107.603 101.84 108.144 101.601C110.887 100.37 116.514 98.6961 119.334 104.084C123.14 111.309 119.435 115.277 116.707 115.088Z" fill="#FFD6D6"/>
<path opacity="0.1" d="M69.9716 14.7804C69.7503 14.9229 69.5069 15.0254 69.252 15.0833C67.4602 15.4856 65.4222 13.9015 63.8864 14.9195C62.9495 15.5451 62.7322 16.8412 62.6066 17.9833C62.3877 19.9696 62.1687 21.9426 61.9498 23.9024C61.9039 24.6001 61.7608 25.2875 61.5248 25.9434C60.7666 27.726 58.6851 28.5652 56.7871 28.5355C56.0436 28.5899 55.3094 28.34 54.7443 27.8402C54.411 27.4926 54.2323 27.006 53.8653 26.6882C51.4506 24.6076 50.7165 29.7074 51.354 31.1573C52.3778 33.526 56.0144 35.8102 54.4883 38.8194C54.2316 39.3085 53.8424 39.7104 53.3679 39.9764C51.0681 39.2359 48.9686 37.9526 47.2371 36.229C45.5057 34.5055 44.1902 32.3895 43.3959 30.05C42.6015 27.7106 42.3503 25.2125 42.6623 22.7554C42.9742 20.2984 43.8407 17.9504 45.1925 15.899C46.5443 13.8476 48.344 12.1497 50.4478 10.941C52.5515 9.73223 54.9011 9.0461 57.3087 8.93741C59.7163 8.82873 62.1153 9.3005 64.3139 10.315C66.5126 11.3296 68.4501 12.8588 69.9716 14.7804Z" fill="black"/>
<path d="M53.4552 26.6684C53.8174 26.9813 54.0009 27.4679 54.3342 27.8155C54.8995 28.3148 55.6336 28.5646 56.377 28.5107C58.275 28.5405 60.3565 27.7063 61.1099 25.9136C61.3502 25.2605 61.495 24.5744 61.5397 23.8777L62.1965 17.9585C62.3221 16.8164 62.5346 15.5204 63.4763 14.8947C65.0121 13.9015 67.0502 15.4608 68.8419 15.0585C69.4877 14.8898 70.0469 14.4745 70.4057 13.8971C70.7645 13.3197 70.8961 12.6235 70.7737 11.95C70.566 11.0015 69.8609 10.2517 69.4987 9.34795C69.2791 8.65352 69.1033 7.94526 68.9723 7.22758C67.9726 3.37417 63.5729 1.20912 59.748 1.85466C57.623 2.21716 55.6478 3.25997 53.518 3.57777C51.9919 3.8062 50.432 3.65722 48.8914 3.82606C47.46 3.97792 46.0683 4.40048 44.7863 5.07245C44.4498 5.22561 44.1522 5.45675 43.917 5.74779C43.6983 6.14088 43.551 6.57166 43.4824 7.01902C42.9656 9.00531 41.3043 10.4702 40.1017 12.1437C38.7263 14.0691 37.9304 16.3671 37.8126 18.753C37.7652 19.3624 37.8208 19.9756 37.9768 20.5655C38.0782 20.9131 38.2376 21.2508 38.3148 21.6083C38.5515 22.6958 38.0106 23.7833 37.745 24.8659C37.4149 26.2473 37.5337 27.7018 38.083 29.0073C39.9375 33.392 46.0468 34.8569 47.317 39.4602C48.4449 40.0162 49.6631 40.3529 50.9101 40.4533C52.1561 40.4781 53.4987 39.9269 54.0782 38.7898C55.5995 35.8103 51.9677 33.4963 50.9439 31.1326C50.3016 29.6777 51.0212 24.5828 53.4552 26.6684Z" fill="#353045"/>
<path opacity="0.1" d="M175.597 35.9095C174.825 38.1781 174.497 40.5812 174.631 42.9807C173.887 43.6312 173.076 41.6846 172.216 42.1861C169.859 43.5865 167.136 46.9185 164.219 46.9185C161.689 46.9201 159.195 46.3058 156.941 45.1258C156.237 42.3375 155.267 39.6279 154.043 37.0367C154.043 37.0367 178.891 26.1718 175.597 35.9095Z" fill="black"/>
<path d="M180.262 29.5585C180.262 32.825 179.32 36.0182 177.555 38.7343C175.79 41.4503 173.282 43.5672 170.346 44.8172C167.411 46.0673 164.182 46.3944 161.066 45.7571C157.95 45.1198 155.088 43.5468 152.841 41.237C150.595 38.9272 149.065 35.9844 148.445 32.7806C147.826 29.5768 148.144 26.256 149.359 23.2381C150.575 20.2202 152.634 17.6407 155.276 15.8259C157.917 14.0111 161.023 13.0425 164.2 13.0425C166.309 13.0418 168.398 13.4686 170.347 14.2984C172.296 15.1281 174.067 16.3447 175.559 17.8785C177.051 19.4122 178.234 21.2332 179.041 23.2373C179.848 25.2414 180.263 27.3894 180.262 29.5585Z" fill="#D28690"/>
<path d="M179.576 56.6564C179.576 56.6564 176.553 60.043 176.143 60.3211C175.732 60.5992 166.967 98.5572 166.812 98.9991C166.658 99.4411 156.376 133.714 156.376 133.714L139.902 142.042L141.279 100.121L153.352 65.55C153.352 65.55 157.337 60.8922 158.568 59.1988C159.8 57.5055 175.177 47.3407 175.177 47.3407L177.804 52.9073L179.576 56.6564Z" fill="#F0F3F7"/>
<path opacity="0.1" d="M177.399 53.7565L158.458 67.7002L158.153 60.0431C159.39 58.3498 174.762 48.1899 174.762 48.1899L177.399 53.7565Z" fill="black"/>
<path d="M177.809 52.9073L158.867 66.8511L158.573 59.1989C159.809 57.5006 175.181 47.3407 175.181 47.3407L177.809 52.9073Z" fill="#F0F3F7"/>
<path d="M157.941 55.7925L158.573 59.199L154.338 63.6234L157.718 55.8421C157.718 55.8421 150.474 61.0313 148.301 62.4068C146.128 63.7823 143.954 68.4402 143.872 69.7114C143.79 70.9826 140.371 90.1404 140.371 90.1404C140.371 90.1404 137.797 97.2314 138.521 99.2425C139.246 101.254 134.609 164.661 134.609 164.661C135.229 163.429 136.105 162.354 137.175 161.51C138.246 160.666 139.483 160.075 140.801 159.78L139.149 122.308C139.149 122.308 141.158 97.3804 141.26 97.0626C141.361 96.7448 145.944 82.2945 145.944 82.2945L157.941 55.7925Z" fill="#3F3D56"/>
<path opacity="0.1" d="M158.988 59.6211L158.66 66.5731C158.66 66.5731 154.077 81.4454 152.536 83.8786C150.996 86.3118 146.306 100.817 146.306 100.817L143.665 126.013L139.135 128.133L136.903 123.907L140.612 99.5752C140.612 99.5752 147.61 79.042 148.644 76.9217L153.806 65.7389L158.988 59.6211Z" fill="black"/>
<path d="M158.573 59.199L158.25 66.151C158.25 66.151 153.667 81.0233 152.121 83.4565C150.576 85.8897 145.896 100.394 145.896 100.394L143.269 125.586L138.739 127.701L136.474 123.47L140.183 99.1382C140.183 99.1382 147.181 78.6 148.209 76.4846L153.411 65.3167L158.573 59.199Z" fill="#663D5C"/>
<path d="M105.179 112.263L114.031 118.564C114.031 118.564 120.276 114.964 116.639 112.635C113.002 110.306 109.776 109.953 108.608 109.953C107.439 109.953 105.179 112.263 105.179 112.263Z" fill="#D28690"/>
<path d="M111.79 100.613C111.593 100.739 111.43 100.916 111.317 101.125C111.205 101.335 111.147 101.57 111.148 101.81C111.148 103.741 111.36 108.856 112.935 106.547C114.867 103.722 114.514 101.184 117.465 103.016C119.299 104.191 120.904 105.706 122.198 107.485L121.377 101.417C121.377 101.417 115.311 98.3388 111.79 100.613Z" fill="#D28690"/>
<path opacity="0.1" d="M180.432 174.717C179.987 175.432 179.596 176.996 179.272 179.012C161.22 184.578 148.011 172.81 148.011 172.81C146.413 167.241 145.107 161.589 144.099 155.877C143.776 153.92 143.848 150.126 144.148 145.498L176.423 139.678C176.423 139.678 182.494 171.434 180.432 174.717Z" fill="black"/>
<path d="M198.962 79.9756C198.141 82.7315 198.45 88.3378 198.45 88.3378L191.037 124.329C191.037 124.329 187.434 152.063 186.816 155.767C186.198 159.472 185.169 175.774 185.169 175.774C164.166 186.361 147.982 171.966 147.982 171.966C146.384 166.396 145.079 160.741 144.07 155.027C143.037 148.741 146.079 123.555 147.519 112.367C147.948 109.055 148.238 106.969 148.238 106.969L153.642 86.3267C153.642 86.3267 160.283 68.9119 162.756 63.832C165.228 58.7521 175.158 47.3408 175.158 47.3408C176.389 46.5364 178.36 49.3768 179.823 51.9639C180.929 53.9204 181.755 55.7379 181.755 55.7379C181.755 55.7379 194.108 61.2399 195.958 64.1796C197.808 67.1193 197.504 73.1775 197.711 73.4953C197.919 73.8131 199.788 77.2245 198.962 79.9756Z" fill="#3F3D56"/>
<path opacity="0.1" d="M169.831 67.1689C169.831 67.1689 170.758 72.7801 168.382 74.4734C166.088 76.1121 149.011 110.639 147.948 112.794C148.378 109.477 148.668 107.391 148.668 107.391L154.072 86.7537C154.072 86.7537 160.717 69.3389 163.185 64.254C165.653 59.1691 175.592 47.7628 175.592 47.7628C176.824 46.9584 178.789 49.7988 180.253 52.3859C178.046 57.0984 173.443 66.0069 169.831 67.1689Z" fill="black"/>
<path d="M169.42 66.7469C169.42 66.7469 170.342 72.3581 167.971 74.0514C165.6 75.7447 148.605 110.212 147.528 112.367C147.958 109.055 148.247 106.969 148.247 106.969L153.652 86.3267C153.652 86.3267 160.292 68.9119 162.765 63.832C165.238 58.7521 175.167 47.3408 175.167 47.3408C176.398 46.5364 178.369 49.3768 179.832 51.9639C177.635 56.6714 173.027 65.5849 169.42 66.7469Z" fill="#3F3D56"/>
<path d="M193.919 117.452L188.11 148.532V148.537L187.554 151.512V151.517L186.303 158.205L180.967 157.043L178.48 156.502L144.06 149.004L141.529 148.453L135.753 147.196L136.883 139.48L137.352 136.272L141.52 107.818L193.919 117.452Z" fill="#634794"/>
<path d="M161.799 142.856C161.799 142.856 148.107 147.936 151.092 153.97C154.077 160.003 173.226 149.312 173.226 149.312L161.799 142.856Z" fill="#D28690"/>
<path opacity="0.1" d="M171.579 186.147C171.579 186.57 172.096 191.972 174.153 193.874C176.211 195.776 171.579 186.147 171.579 186.147Z" fill="black"/>
<path opacity="0.1" d="M157.786 205.305C157.786 205.305 160.254 212.292 170.033 215.152C179.813 218.013 157.786 205.305 157.786 205.305Z" fill="black"/>
<path opacity="0.1" d="M180.263 29.5585C180.263 32.4619 179.52 35.3141 178.106 37.8276C176.693 40.3411 174.66 42.4269 172.212 43.8746C171.289 43.3439 170.471 42.6418 169.797 41.8039C169.097 40.93 168.551 39.7382 168.971 38.6954C169.309 37.8562 170.203 37.3249 170.42 36.4559C170.523 35.9244 170.496 35.3753 170.343 34.8569C170.164 34.0375 169.995 33.2182 169.821 32.4038C169.672 31.7086 169.406 30.8893 168.735 30.7205C168.063 30.5516 167.503 31.1276 166.977 31.5547C165.687 32.6025 163.215 33.3126 161.664 32.4535C160.114 31.5944 160.549 28.7193 160.298 27.165C160.295 27.03 160.263 26.8973 160.204 26.7763C160.146 26.6554 160.062 26.549 159.96 26.4648C159.734 26.3879 159.493 26.3708 159.259 26.4152C158.424 26.4152 157.753 25.6455 157.511 24.8212C157.34 23.9796 157.246 23.1234 157.231 22.2638C157.139 21.4048 156.835 20.496 156.12 20.0541C155.549 19.7808 154.916 19.6743 154.29 19.7462L151.262 19.781C153.271 16.9886 156.084 14.9184 159.303 13.8648C162.522 12.8112 165.982 12.8278 169.191 13.9123C172.4 14.9967 175.195 17.0939 177.178 19.9055C179.162 22.7171 180.233 26.1001 180.239 29.5734L180.263 29.5585Z" fill="black"/>
<path d="M167.406 31.5546C167.933 31.1276 168.512 30.5615 169.164 30.7253C169.816 30.8892 170.096 31.7185 170.246 32.4037L170.768 34.8518C170.922 35.3716 170.95 35.9223 170.85 36.4558C170.603 37.3297 169.715 37.8561 169.372 38.6953C168.952 39.7381 169.502 40.9299 170.198 41.7989C171.466 43.3708 173.22 44.4485 175.167 44.8528C175.676 44.9784 176.204 44.9902 176.717 44.8876C177.867 44.6144 178.649 43.5269 179.267 42.509C182.46 37.3943 185.208 31.788 185.768 25.7398C185.922 24.5061 185.866 23.2544 185.604 22.0403C185.342 21.0966 184.972 20.1882 184.503 19.334C183.681 17.5889 182.636 15.9641 181.397 14.5023C179.2 12.0691 176.167 10.5745 173.052 9.69055C169.548 8.69092 165.89 8.39586 162.277 8.82155C161.311 8.93576 160.384 9.09963 159.433 9.16419C158.238 9.2213 157.041 9.2014 155.849 9.1046L148.74 8.66762C148.335 9.51675 148.74 10.5248 149.223 11.3193C149.706 12.1138 150.305 12.9381 150.266 13.8816C150.228 14.8251 149.576 15.57 149.074 16.3645C148.571 17.159 148.19 18.1869 148.692 18.9616C149.194 19.7362 150.218 19.7859 151.107 19.7759L154.69 19.7362C155.314 19.6702 155.944 19.7819 156.511 20.059C157.226 20.5009 157.53 21.4146 157.622 22.2687C157.642 23.128 157.735 23.9837 157.902 24.8261C158.148 25.6504 158.815 26.43 159.65 26.4201C159.884 26.3721 160.126 26.391 160.35 26.4747C160.453 26.5579 160.536 26.6633 160.595 26.7835C160.653 26.9036 160.685 27.0356 160.688 27.1699C160.94 28.7242 160.476 31.5943 162.055 32.4584C163.634 33.3224 166.117 32.6024 167.406 31.5546Z" fill="#663D5C"/>
<path opacity="0.1" d="M187.82 64.1746C186.045 63.9806 184.258 64.4132 182.752 65.4013C181.247 66.3893 180.114 67.8742 179.538 69.612C177.606 75.268 174.385 85.4726 175.191 89.5047C176.326 95.2203 177.664 104.749 177.664 104.749C177.664 104.749 183.532 108.225 180.562 111.731C177.591 115.237 176.751 120.203 176.751 120.203C176.751 120.203 172.941 121.896 172.12 125.496C171.299 129.096 165.735 134.067 165.735 134.067L157.399 142.643C157.399 142.643 171.192 157.044 173.974 157.778L182.517 147.509L192.606 133.749L201.357 124.314C201.357 124.314 203.415 119.349 202.386 109.914C201.357 100.479 197.339 91.496 197.339 91.496L197.648 88.3179C197.648 88.3179 198.595 65.5501 187.82 64.1746Z" fill="black"/>
<path d="M188.641 64.1744C186.867 63.9828 185.083 64.4165 183.58 65.4044C182.077 66.3923 180.944 67.8758 180.369 69.6119C178.437 75.2678 175.216 85.4724 176.022 89.5046C177.152 95.2201 178.49 104.749 178.49 104.749C178.49 104.749 184.358 108.225 181.388 111.731C178.418 115.237 177.582 120.203 177.582 120.203C177.582 120.203 173.772 121.896 172.946 125.496C172.12 129.096 166.566 134.067 166.566 134.067L158.226 142.643C158.226 142.643 172.018 157.043 174.8 157.778L183.344 147.509L193.408 133.749L202.159 124.314C202.159 124.314 204.221 119.349 203.188 109.914C202.154 100.479 198.146 91.4958 198.146 91.4958L198.455 88.3178C198.455 88.3178 199.416 65.5499 188.641 64.1744Z" fill="#3F3D56"/>
<path opacity="0.1" d="M180.021 96.3871C180.021 96.3871 188.772 107.391 192.481 104.958C196.19 102.525 180.021 96.3871 180.021 96.3871Z" fill="black"/>
<path opacity="0.1" d="M183.314 87.9156C184.242 88.2335 191.863 99.1382 195.774 97.8471C199.686 96.556 183.314 87.9156 183.314 87.9156Z" fill="black"/>
<path opacity="0.1" d="M157.733 56.2642L154.338 64.0454L158.578 59.621L157.733 56.2642Z" fill="black"/>
<path d="M157.733 55.8419L154.338 63.6233L158.578 59.1988L157.733 55.8419Z" fill="#F0F3F7"/>
<path opacity="0.3" d="M144.06 149.004L141.53 148.453L136.884 139.48L137.352 136.272L144.06 149.004Z" fill="black"/>
<path opacity="0.3" d="M188.11 148.537L187.554 151.512V151.517L180.967 157.043L178.48 156.502L188.11 148.537Z" fill="black"/>
<path opacity="0.1" d="M84.3198 113.812C83.0448 114.03 81.8085 114.229 80.6784 114.378C74.4001 115.227 59.4674 107.605 59.4674 107.605C59.4674 107.605 41.2458 91.9379 35.9961 77.1202C30.7465 62.3025 42.2744 60.0778 42.2744 60.0778C46.621 57.5354 56.0722 64.6264 57.41 65.7934C58.7478 66.9603 59.8827 69.9199 59.7764 71.8267C59.6702 73.7336 62.8673 76.1668 62.8673 76.1668C62.8673 76.1668 68.3246 85.9045 69.6624 86.9622C71.0001 88.0199 71.3092 88.9733 71.7197 90.7759C72.1302 92.5785 75.733 94.0582 77.2785 93.949C78.8239 93.8397 80.6591 94.4803 80.6591 95.3245C80.6591 96.0048 82.1707 96.3425 83.4119 96.4517C83.7789 101.879 84.1411 108.99 84.3198 113.812Z" fill="black"/>
<path opacity="0.1" d="M84.2617 112.263C83.2958 112.422 82.3686 112.566 81.4993 112.685C75.221 113.534 60.293 105.911 60.293 105.911C60.293 105.911 42.0714 90.2446 36.8218 75.4269C31.5722 60.6091 43.1001 58.3845 43.1001 58.3845C47.4466 55.842 56.8931 62.9331 58.2309 64.1C59.5686 65.267 60.7036 68.2266 60.6021 70.1334C60.5007 72.0402 63.6882 74.4734 63.6882 74.4734C63.6882 74.4734 69.1455 84.2112 70.4832 85.2689C71.821 86.3266 72.1301 87.2801 72.5454 89.0826C72.9607 90.8852 76.5587 92.36 78.1041 92.2557C79.6496 92.1514 81.4848 92.787 81.4848 93.6312C81.4848 94.1278 82.3444 94.4605 83.3007 94.6244C83.3393 95.2004 83.3731 95.8112 83.4166 96.4468C83.7353 101.328 84.0637 107.555 84.2617 112.263Z" fill="black"/>
<path opacity="0.1" d="M108.144 101.601L107.753 111.115H107.333L106.463 110.619L106.57 102.42C107.077 102.114 107.603 101.84 108.144 101.601Z" fill="black"/>
<path d="M42.2744 59.2286C42.2744 59.2286 30.7465 61.4532 35.9961 76.271C41.2457 91.0887 59.4673 106.761 59.4673 106.761C59.4673 106.761 74.3952 114.378 80.6784 113.534C86.9615 112.69 96.5287 110.465 97.765 110.783C99.0014 111.101 107.342 111.101 107.342 111.101L107.752 101.169L98.0934 100.638L93.1529 99.5801C93.1529 99.5801 91.3998 98.0904 90.3711 98.3089C89.3424 98.5274 87.1837 97.0376 87.1837 97.0376C87.1837 97.0376 85.532 95.6621 84.286 95.6621C83.04 95.6621 80.6832 95.3443 80.6832 94.5002C80.6832 93.656 78.8287 93.0104 77.3026 93.1246C75.7765 93.2389 72.1302 91.7491 71.7052 89.9267C71.2802 88.1043 70.9856 87.1757 69.6479 86.118C68.3101 85.0603 62.8528 75.3175 62.8528 75.3175C62.8528 75.3175 59.6605 72.8843 59.7619 70.9825C59.8633 69.0806 58.7333 66.1111 57.3955 64.9441C56.0577 63.7772 46.592 56.6911 42.2744 59.2286Z" fill="#DCE6F2"/>
<path opacity="0.1" d="M71.9275 93.3132C71.9275 93.3132 67.4988 97.8669 68.6289 98.7111L71.9275 93.3132Z" fill="black"/>
<path opacity="0.1" d="M76.6603 96.9135C76.6603 96.9135 70.894 101.467 72.4394 101.785C73.9848 102.103 76.6603 96.9135 76.6603 96.9135Z" fill="black"/>
<path opacity="0.1" d="M66.876 103.667C67.7018 104.094 79.9493 111.612 84.5856 111.503L66.876 103.667Z" fill="black"/>
<path opacity="0.1" d="M67.7068 53.4089C67.7068 53.4089 65.5432 60.7135 64.7173 60.7135C64.0702 60.7135 53.2038 51.6659 48.6689 47.8622L48.867 47.6933C48.867 47.6933 49.2775 44.411 50.9243 42.7276C52.5712 41.0442 67.7068 53.4089 67.7068 53.4089Z" fill="black"/>
<path d="M67.2911 52.5597C67.2911 52.5597 65.1324 59.8643 64.3065 59.8643C63.6546 59.8643 52.7883 50.8167 48.2534 47.013L48.4514 46.8442C48.4514 46.8442 48.8668 43.5618 50.5136 41.8785C52.1604 40.1951 67.2911 52.5597 67.2911 52.5597Z" fill="#DCE6F2"/>
<g opacity="0.15">
<path opacity="0.15" d="M38.1357 28.9526C39.5846 32.3541 43.5738 34.0027 45.8871 36.714C44.5107 33.382 40.4877 31.7483 38.1357 28.9526Z" fill="black"/>
<path opacity="0.15" d="M52.8996 36.7885C52.3249 37.9257 50.9678 38.4769 49.7315 38.452C48.6323 38.371 47.5561 38.0884 46.5537 37.6178C46.9174 38.169 47.1944 38.7756 47.3747 39.4154C48.5022 39.9725 49.7206 40.3093 50.9678 40.4085C52.2187 40.4383 53.5613 39.8871 54.136 38.745C55.0584 36.9325 54.0973 35.3832 52.9721 33.9183C53.1818 34.3685 53.2846 34.8634 53.272 35.3624C53.2594 35.8614 53.1318 36.3502 52.8996 36.7885Z" fill="black"/>
<path opacity="0.15" d="M70.8219 11.9002C70.6142 10.9468 69.9091 10.197 69.5469 9.29818C69.3251 8.60273 69.1492 7.89266 69.0205 7.17284C68.7461 6.15499 68.2376 5.21996 67.5379 4.44666C67.6351 4.69108 67.7173 4.9415 67.7842 5.19648C67.9195 5.91948 68.1002 6.63272 68.3251 7.33174C68.6873 8.23054 69.3924 8.98037 69.6 9.93379C69.7224 10.6073 69.5909 11.3035 69.232 11.8809C68.8732 12.4583 68.3141 12.8735 67.6683 13.0423C65.8814 13.4446 63.8433 11.8555 62.3076 12.8785C61.3658 13.4992 61.1485 14.7952 61.0229 15.9374C60.8072 17.9236 60.5883 19.8984 60.3661 21.8615C60.3225 22.5579 60.1793 23.2439 59.9411 23.8974C59.1829 25.6851 57.1014 26.5243 55.2034 26.4945C54.4618 26.5454 53.7303 26.2959 53.1654 25.7993C52.8908 25.3995 52.5958 25.0149 52.2816 24.6473C49.8668 22.5616 49.1328 27.6615 49.7702 29.1164C50.0895 29.7709 50.4852 30.3829 50.9486 30.9388C50.4174 29.3001 51.1611 24.5827 53.5179 26.6038C53.832 26.9702 54.1255 27.3549 54.3969 27.7558C54.9641 28.2518 55.6968 28.5011 56.4398 28.451C58.3377 28.4808 60.4192 27.6416 61.1775 25.8539C61.4161 25.1989 61.5593 24.5111 61.6024 23.813C61.8214 21.8267 62.0403 19.8537 62.2593 17.8939C62.3848 16.7517 62.6021 15.4557 63.5391 14.835C65.0797 13.812 67.1177 15.4011 68.9046 14.9939C69.5454 14.8231 70.0995 14.409 70.4552 13.8349C70.811 13.2609 70.942 12.5696 70.8219 11.9002Z" fill="black"/>
</g>
<path opacity="0.1" d="M177.746 43.6213C177.232 43.7197 176.704 43.7062 176.196 43.5816C174.251 43.1776 172.499 42.1017 171.231 40.5326C170.531 39.6586 169.98 38.4669 170.405 37.4241C170.743 36.5849 171.632 36.0585 171.854 35.1845C171.954 34.651 171.926 34.1003 171.772 33.5806L171.25 31.1325C171.1 30.4373 170.84 29.618 170.168 29.4541C169.497 29.2902 168.937 29.8563 168.41 30.2834C167.121 31.3311 164.643 32.0462 163.098 31.1822C161.553 30.3181 161.982 27.4479 161.731 25.8937C161.727 25.7596 161.695 25.628 161.636 25.508C161.578 25.3879 161.495 25.2824 161.393 25.1985C161.167 25.1174 160.924 25.0986 160.688 25.1438C159.853 25.1438 159.186 24.3742 158.94 23.5499C158.772 22.7078 158.68 21.8518 158.665 20.9925C158.568 20.1384 158.268 19.2247 157.549 18.7828C156.981 18.5081 156.352 18.3965 155.728 18.46L152.145 18.4997C151.261 18.4997 150.213 18.4401 149.73 17.6853C149.247 16.9306 149.604 15.858 150.111 15.0883C150.619 14.3186 151.261 13.5539 151.304 12.6054C151.348 11.657 150.749 10.8376 150.261 10.0431C149.981 9.60862 149.776 9.12837 149.653 8.62291L148.624 8.55835C148.223 9.40252 148.624 10.4106 149.107 11.21C149.59 12.0095 150.194 12.8289 150.15 13.7674C150.107 14.7059 149.464 15.4607 148.957 16.2502C148.45 17.0398 148.078 18.0727 148.581 18.8473C149.083 19.622 150.102 19.6766 150.995 19.6667L154.579 19.622C155.203 19.5598 155.833 19.6731 156.399 19.9497C157.119 20.3917 157.423 21.3053 157.515 22.1594C157.53 23.019 157.624 23.8753 157.795 24.7168C158.037 25.5361 158.708 26.3207 159.543 26.3058C159.778 26.2632 160.019 26.282 160.244 26.3604C160.346 26.4451 160.429 26.5515 160.487 26.6724C160.546 26.7933 160.578 26.9257 160.582 27.0606C160.833 28.6099 160.369 31.4851 161.949 32.3491C163.528 33.2131 165.991 32.4981 167.261 31.4503C167.787 31.0233 168.372 30.4572 169.024 30.6161C169.676 30.775 169.956 31.6092 170.101 32.2945L170.627 34.7475C170.78 35.2676 170.807 35.8184 170.704 36.3515C170.463 37.2205 169.569 37.7518 169.231 38.586C168.811 39.6288 169.357 40.8256 170.057 41.6946C171.334 43.2705 173.099 44.347 175.056 44.7435C175.564 44.8682 176.092 44.8817 176.606 44.7833C177.436 44.5231 178.149 43.9666 178.615 43.2141C178.351 43.4022 178.057 43.5401 177.746 43.6213Z" fill="black"/>
<defs>
<linearGradient id="paint0_linear_1728:337" x1="112.389" y1="291.649" x2="112.389" y2="0.906275" gradientUnits="userSpaceOnUse">
<stop stop-color="#808080" stop-opacity="0.25"/>
<stop offset="0.54" stop-color="#808080" stop-opacity="0.12"/>
<stop offset="1" stop-color="#808080" stop-opacity="0.1"/>
</linearGradient>
</defs>
</svg>
