<svg width="44" height="44" viewBox="0 0 44 44" fill="none" xmlns="http://www.w3.org/2000/svg">
<g clip-path="url(#clip0_1755:287)">
<path d="M34.418 0.549858C31.7195 1.67564 28.7289 3.15376 25.9961 4.70923C23.8648 5.92954 23.6414 6.06704 23.5297 6.31626C23.332 6.74595 23.6844 7.30454 24.1484 7.30454C24.3289 7.30454 25.0594 6.93501 26.4516 6.1358C29.1672 4.58033 32.8883 2.73267 35.1313 1.83033C35.2172 1.79595 35.2344 4.64048 35.2172 16.0272L35.1914 30.267L33.6875 30.8514C30.8602 31.9428 27.2938 33.6272 24.0625 35.3975L22.8164 36.0764L22.7734 21.9741C22.7477 14.1881 22.6961 7.79439 22.6531 7.70845C22.4641 7.32173 20.1695 6.49673 18.3047 6.15298C15.4 5.61158 9.46172 5.9897 4.96719 7.00376C3.60938 7.30454 3.39453 7.37329 3.1625 7.55376L2.96484 7.71704L2.93906 24.0452C2.93047 34.3663 2.94766 40.4592 2.99922 40.5967C3.05078 40.717 3.18828 40.8803 3.30859 40.9577C3.53203 41.1038 3.575 41.1038 4.32266 40.9233C9.04063 39.7975 15.0992 39.3077 17.8664 39.8233C18.7172 39.978 20.3328 40.4334 20.857 40.6569L21.2266 40.8116V41.6795V42.5389H12.2891C3.575 42.5389 3.34297 42.5389 2.89609 42.367C2.32891 42.1522 1.85625 41.6795 1.63281 41.0952C1.46094 40.6569 1.46094 40.3733 1.46094 26.0733V11.4983L1.21172 11.2491C1.05703 11.103 0.867969 10.9999 0.730469 10.9999C0.592969 10.9999 0.403906 11.103 0.249219 11.2491L0 11.4983V26.0217C0 35.3889 0.034375 40.6999 0.0859375 41.0006C0.360938 42.453 1.54688 43.6389 3.00781 43.9139C3.63516 44.0342 40.3648 44.0342 41.0008 43.9139C42.4531 43.6389 43.6391 42.453 43.9141 40.992C43.9656 40.6999 44 35.4147 44 26.0217V11.4983L43.7508 11.2491C43.5961 11.103 43.407 10.9999 43.2695 10.9999C43.132 10.9999 42.943 11.103 42.7883 11.2491L42.5391 11.4983V26.0733C42.5391 40.4163 42.5391 40.6483 42.3672 41.1038C42.1523 41.6709 41.6797 42.1436 41.0953 42.367C40.657 42.5303 40.3992 42.5389 31.7109 42.5389H22.7734V41.6881V40.8374L23.3148 40.6569C25.3859 39.9866 27.0359 39.703 29.107 39.6428C32.1836 39.5483 35.8445 39.9608 38.9898 40.7428C40.2273 41.0522 40.4164 41.078 40.6227 40.9749C40.7516 40.9147 40.9062 40.7686 40.9664 40.6483C41.0523 40.4764 41.0781 37.1163 41.0781 24.217C41.0781 14.1538 41.0438 7.92329 40.9922 7.78579C40.9492 7.66548 40.8289 7.52798 40.7172 7.46783C40.4852 7.33892 39.1703 7.05532 38.818 7.04673C38.5 7.04673 38.0703 7.46783 38.0703 7.7772C38.0703 8.12954 38.4656 8.47329 38.9641 8.54205C39.1961 8.57642 39.4367 8.62798 39.4969 8.65376C39.6 8.68814 39.6172 11.1202 39.6172 24.0366C39.6172 38.603 39.6086 39.3678 39.4711 39.3249C38.3539 39.0155 35.7328 38.5686 33.8594 38.3624C31.9 38.1475 27.8781 38.1389 26.5977 38.3538C25.532 38.5342 23.6672 38.9983 22.6789 39.3249L22.0258 39.5397L21.5617 39.3592C19.4133 38.5084 17.4711 38.1561 14.9961 38.1561C12.0141 38.1561 8.34453 38.5514 5.35391 39.1874C4.91563 39.2819 4.52031 39.3592 4.46875 39.3592C4.40859 39.3592 4.38281 34.3577 4.38281 23.9936V8.62798L5.0875 8.48189C7.88906 7.88033 10.6906 7.51939 13.5438 7.39907C16.6461 7.26157 18.4336 7.49361 20.7367 8.34439L21.2266 8.52486V22.8936C21.2266 32.5788 21.2609 37.3569 21.3211 37.5717C21.407 37.8897 21.7336 38.1561 22.0172 38.1561C22.0773 38.1561 22.6531 37.8639 23.2891 37.503C27.7578 35.0022 31.625 33.1631 35.1055 31.8827C35.7672 31.642 36.3859 31.367 36.4805 31.2725C36.6523 31.1092 36.6523 30.9889 36.6523 15.7608V0.412357L36.4117 0.206108C36.2742 0.0943871 36.068 -0.000141144 35.9391 0.00844955C35.8102 0.00844955 35.1313 0.257671 34.418 0.549858Z" fill="#634794"/>
<path d="M30.7655 8.58491C28.1701 9.63335 25.2569 11.0513 25.042 11.3865C24.7756 11.7904 25.1537 12.4607 25.6522 12.4607C25.7553 12.4607 26.3225 12.2287 26.9069 11.9365C28.4967 11.1544 30.5076 10.2521 31.6248 9.82241C32.6647 9.4271 32.9998 9.17788 32.9998 8.79976C32.9998 8.49897 32.5615 8.07788 32.2522 8.07788C32.1233 8.07788 31.453 8.30991 30.7655 8.58491Z" fill="#634794"/>
<path d="M31.1952 12.813C30.1381 13.2083 27.9381 14.2052 26.2967 15.0216C25.0678 15.6318 24.8444 15.8466 24.9561 16.2849C25.0334 16.5857 25.3428 16.8435 25.6178 16.8435C25.7553 16.8435 26.4686 16.5513 27.2162 16.1904C29.0467 15.3138 30.7998 14.5318 31.8225 14.1365C32.6991 13.8013 32.9998 13.5521 32.9998 13.174C32.9998 12.9076 32.5616 12.4607 32.2952 12.4607C32.1834 12.4607 31.6936 12.624 31.1952 12.813Z" fill="#634794"/>
<path d="M11.9452 13.2858C9.95142 13.5093 8.13814 13.8444 7.72564 14.0593C7.27017 14.2913 7.21861 14.8929 7.63111 15.2108C7.89752 15.4257 8.02642 15.4257 8.98033 15.2194C10.7335 14.8327 11.7303 14.7382 13.9217 14.7468C15.5374 14.7554 16.1905 14.7897 16.7147 14.8929C17.6428 15.0905 17.8405 15.0819 18.0897 14.8241C18.4678 14.4546 18.3046 13.7757 17.8147 13.6296C17.0413 13.4061 16.0186 13.303 14.2225 13.2772C13.1397 13.26 12.1085 13.2686 11.9452 13.2858Z" fill="#634794"/>
<path d="M31.4102 17.1357C30.2844 17.5396 28.1789 18.4763 26.5461 19.3013C25.3344 19.9029 25.1023 20.049 25.0078 20.2724C24.9219 20.4872 24.9219 20.5904 25.0078 20.7966C25.257 21.3982 25.6695 21.3724 27.1391 20.6333C28.5227 19.9458 30.9203 18.8802 31.9946 18.4763C32.5875 18.2529 32.7766 18.1411 32.8797 17.9521C33.0516 17.6169 33.0344 17.4021 32.811 17.1529C32.5102 16.8177 32.2696 16.8177 31.4102 17.1357Z" fill="#634794"/>
<path d="M12.2463 17.6685C12.1088 17.6857 11.5846 17.7459 11.0862 17.7974C10.0893 17.9005 8.17288 18.2529 7.79476 18.4076C7.3221 18.5966 7.21897 19.1638 7.58851 19.5677C7.80335 19.8084 8.06116 19.817 9.06663 19.6021C10.7338 19.2412 11.9026 19.1295 13.9651 19.1295C15.4346 19.138 16.1221 19.181 16.6291 19.2841C17.583 19.4732 17.8408 19.4646 18.0901 19.2068C18.3651 18.9404 18.3651 18.5623 18.1158 18.2701C17.8752 18.0037 17.1362 17.8318 15.701 17.7029C14.7987 17.6255 12.8307 17.6084 12.2463 17.6685Z" fill="#634794"/>
<path d="M30.9804 21.6905C29.7601 22.1718 27.3882 23.2546 26.1163 23.8991C25.3343 24.2944 25.0937 24.4663 25.0163 24.6554C24.8101 25.1366 25.1195 25.6265 25.6265 25.6265C25.807 25.6265 26.4601 25.3601 27.371 24.9218C29.1499 24.0624 30.7828 23.3405 31.8999 22.9108C32.3554 22.7304 32.7765 22.5327 32.8281 22.4726C32.8796 22.4124 32.9484 22.2234 32.9742 22.0601C33.0085 21.8109 32.9828 21.7163 32.8023 21.5359C32.4843 21.2179 32.0976 21.2523 30.9804 21.6905Z" fill="#634794"/>
<path d="M12.332 22.0515C10.9484 22.1976 9.60777 22.3867 8.77417 22.5585C7.5023 22.8249 7.23589 23.0484 7.40777 23.7015C7.45933 23.9077 7.56246 24.0195 7.76011 24.1054C8.00074 24.1999 8.15542 24.1913 9.00621 24.0195C10.8109 23.6413 12.0484 23.521 13.9218 23.521C15.1765 23.521 15.9156 23.564 16.4828 23.6585C17.6257 23.8648 17.9093 23.8562 18.1242 23.5812C18.4593 23.1515 18.296 22.6101 17.7632 22.4382C17.1015 22.2234 15.8382 22.0773 14.3085 22.0515C13.4148 22.0343 12.521 22.0343 12.332 22.0515Z" fill="#634794"/>
<path d="M31.1522 26.0305C29.0811 26.8211 25.3515 28.6086 25.0937 28.9352C24.8616 29.2359 24.9132 29.6055 25.2398 29.8891C25.5577 30.1727 25.6952 30.1297 27.6718 29.1844C29.803 28.1617 30.6796 27.775 31.7538 27.3797C32.9225 26.95 33.1804 26.6406 32.871 26.0477C32.6389 25.5922 32.3124 25.5836 31.1522 26.0305Z" fill="#634794"/>
<path d="M12.2976 26.477C10.553 26.5887 8.08662 27.0184 7.67412 27.2848C7.22725 27.5856 7.26162 28.2473 7.74287 28.4965C7.9749 28.6168 8.08662 28.6082 9.04912 28.4106C10.553 28.1098 11.2062 28.0239 12.7616 27.9379C14.2827 27.852 15.9499 27.9379 16.9124 28.1356C17.7288 28.316 17.7288 28.316 18.0382 28.0496C18.3733 27.766 18.4077 27.3364 18.1069 27.0356C17.8577 26.7949 16.7749 26.5715 15.2538 26.4598C14.0937 26.3824 13.8015 26.3824 12.2976 26.477Z" fill="#634794"/>
<path d="M11.7305 30.9117C10.0376 31.0663 7.87195 31.5046 7.57976 31.7539C7.27039 32.0203 7.27898 32.5273 7.60555 32.8023C7.88054 33.0429 7.93211 33.0429 8.89461 32.8367C10.6907 32.4499 11.5759 32.364 13.793 32.3554C15.5376 32.3554 16.1048 32.3898 16.7837 32.5187C17.6946 32.6906 18.0469 32.639 18.2188 32.3039C18.3477 32.0632 18.3219 31.6593 18.1587 31.4617C17.8493 31.0835 16.1305 30.8515 13.793 30.8687C12.8477 30.8773 11.9196 30.8945 11.7305 30.9117Z" fill="#634794"/>
</g>
<defs>
<clipPath id="clip0_1755:287">
<rect width="44" height="44" fill="white"/>
</clipPath>
</defs>
</svg>
