<svg width="44" height="44" viewBox="0 0 44 44" fill="none" xmlns="http://www.w3.org/2000/svg">
<path d="M20.367 0.0602074C17.11 0.369583 14.6865 1.05708 11.9451 2.44927C8.69668 4.10786 5.7834 6.72036 3.65215 9.88286C2.7584 11.2235 1.6584 13.4836 1.12559 15.0821C0.704492 16.3711 0.360742 17.8407 0.154492 19.293C0.00839844 20.3071 0.00839844 23.693 0.154492 24.7071C0.51543 27.2422 1.18574 29.4594 2.23418 31.5821C3.41152 33.9883 4.57168 35.604 6.47949 37.5204C8.37871 39.411 10.0201 40.5883 12.3318 41.7227C13.9475 42.5133 14.9873 42.9001 16.6287 43.3126C20.9256 44.3954 25.2396 44.1891 29.4334 42.7024C30.7139 42.2469 32.9311 41.1383 34.074 40.3735C36.6436 38.6633 38.9982 36.2485 40.6826 33.6016C41.3014 32.6305 42.2982 30.568 42.7021 29.4251C44.7217 23.736 44.3693 17.6344 41.7139 12.2977C40.6482 10.1493 39.4537 8.4563 37.7779 6.72896C35.9217 4.80396 34.0998 3.48052 31.6678 2.2774C29.124 1.02271 26.7521 0.343803 23.9334 0.0859909C23.0568 0.0086441 21.0717 -0.00854111 20.367 0.0602074ZM24.4318 1.98521C32.2264 2.93911 38.7662 8.36177 41.1982 15.8727C42.2725 19.2157 42.4443 22.9368 41.6709 26.4086C41.0436 29.2532 39.6342 32.1922 37.7607 34.5641C37.1248 35.3719 35.3717 37.1251 34.5639 37.761C31.599 40.0985 28.1014 41.5594 24.3373 42.0321C22.4295 42.2727 19.6279 42.1266 17.5998 41.6711C15.5803 41.2243 13.1826 40.2532 11.4381 39.1618C9.66777 38.0618 7.4248 36.0766 6.23887 34.5641C3.89277 31.5821 2.44902 28.1102 1.96777 24.3375C1.83027 23.2633 1.83027 20.7368 1.96777 19.6368C2.32012 16.7836 3.38574 13.7672 4.88105 11.361C6.35059 8.99771 8.7998 6.51411 11.1029 5.03599C12.5209 4.13364 14.2225 3.33443 15.8982 2.79302C17.4107 2.30318 18.8631 2.02818 20.8826 1.8563C21.4584 1.80474 23.624 1.88208 24.4318 1.98521Z" fill="#833AB4"/>
<path d="M21.5958 7.44228C21.0286 7.72588 21.0544 7.4165 21.0544 15.1079C21.0544 19.7743 21.0802 22.1548 21.1489 22.3181C21.2434 22.5845 31.1606 32.5618 31.6075 32.8454C32.3122 33.2837 33.1974 32.5876 32.9567 31.7798C32.9223 31.6767 30.6536 29.3392 27.9208 26.5978L22.945 21.6134V14.8759C22.945 7.4165 22.9708 7.71728 22.3864 7.44228C22.0341 7.27041 21.9395 7.27041 21.5958 7.44228Z" fill="#833AB4"/>
</svg>
