<svg width="44" height="39" viewBox="0 0 44 39" fill="none" xmlns="http://www.w3.org/2000/svg">
<path d="M3.78852 0.370468C3.08383 0.533749 2.10414 1.07515 1.58852 1.57359C0.995548 2.14078 0.471329 2.94859 0.22211 3.67047L0.0330479 4.23766L0.00726661 19.4056C-0.00992089 34.3244 -0.00992089 34.5822 0.161954 35.2439C0.505704 36.6103 1.41664 37.7877 2.61977 38.415C3.8143 39.0423 2.27602 38.9994 21.9901 38.9994C41.7041 38.9994 40.1659 39.0423 41.3604 38.415C42.5635 37.7877 43.4745 36.6103 43.8182 35.2439C43.9901 34.5822 43.9901 34.3244 43.9729 19.4056L43.9471 4.23766L43.7581 3.67047C43.5088 2.94859 42.9846 2.13219 42.3916 1.565C41.8588 1.05797 40.7674 0.482185 40.0541 0.336094C39.3409 0.189999 4.39867 0.215778 3.78852 0.370468ZM40.2174 1.94312C41.1799 2.32984 41.919 3.06891 42.2799 3.99703C42.4518 4.4525 42.4776 4.67594 42.512 6.57516L42.5463 8.66344H21.9987H1.45102V6.96188C1.45102 6.03375 1.48539 5.02828 1.52836 4.7361C1.73461 3.32672 2.73149 2.21812 4.12367 1.84C4.52758 1.72828 7.00258 1.71109 22.162 1.72828L39.7362 1.74547L40.2174 1.94312ZM42.5291 22.0869C42.5291 28.6955 42.4948 34.2127 42.4518 34.5048C42.2971 35.5447 41.7299 36.4213 40.8362 36.997C39.9252 37.5728 41.2057 37.5384 21.9901 37.5384C2.77445 37.5384 4.05492 37.5728 3.14399 36.997C2.25024 36.4213 1.68305 35.5447 1.52836 34.5048C1.48539 34.2127 1.45102 28.6955 1.45102 22.0869V10.2103H21.9901H42.5291V22.0869Z" fill="#634794"/>
<path d="M4.51043 3.0775C3.96902 3.29234 3.48777 3.75641 3.25574 4.30641C2.98074 4.95094 3.0323 5.81891 3.38464 6.39469C3.88308 7.2025 4.88855 7.64937 5.79949 7.46031C6.90808 7.22828 7.63855 6.30875 7.63855 5.14859C7.63855 3.57594 5.99714 2.49312 4.51043 3.0775ZM5.70496 4.49547C6.48699 4.87359 6.21199 5.99937 5.33543 5.99937C4.46746 5.99937 4.25261 4.77906 5.06043 4.46109C5.35261 4.34937 5.37839 4.34937 5.70496 4.49547Z" fill="#634794"/>
<path d="M10.002 3.01747C8.67854 3.5245 8.0512 4.93387 8.61838 6.12841C9.02229 6.99637 9.77854 7.49481 10.6895 7.48622C11.9871 7.48622 12.9926 6.50653 13.0012 5.22606C13.0012 4.58153 12.8379 4.15184 12.4168 3.69637C11.7809 3.00028 10.7754 2.72528 10.002 3.01747ZM11.0332 4.487C11.5574 4.71044 11.6864 5.36356 11.2824 5.77606C10.8528 6.19716 10.1567 6.02528 9.95901 5.4495C9.82151 5.02841 10.0449 4.58153 10.4746 4.42684C10.6723 4.35809 10.7153 4.35809 11.0332 4.487Z" fill="#634794"/>
<path d="M15.1582 3.10316C14.2645 3.53285 13.7918 4.27191 13.8004 5.24301C13.8004 6.36879 14.5137 7.21957 15.6395 7.4516C16.4387 7.61488 17.1348 7.40004 17.702 6.79847C18.209 6.27426 18.3293 5.95629 18.3379 5.22582C18.3379 4.47816 18.1832 4.08285 17.6934 3.59301C17.0231 2.92269 15.966 2.71644 15.1582 3.10316ZM16.6106 4.60707C16.8598 4.8391 16.9371 5.13129 16.834 5.44926C16.7137 5.81879 16.4559 5.99926 16.052 5.99926C15.2184 5.99926 14.9778 4.83051 15.7426 4.48676C16.052 4.34926 16.3699 4.40082 16.6106 4.60707Z" fill="#634794"/>
<path d="M5.97148 15.6761L5.74805 15.9081V24.2612V32.6144L5.97148 32.8206L6.19492 33.0269H13.2418H20.2887L20.4949 32.7862L20.7012 32.5456V24.2269V15.9081L20.4777 15.6761L20.2457 15.4526H13.2246H6.20352L5.97148 15.6761ZM19.223 24.2354L19.1973 31.5659L13.2074 31.5917L7.20898 31.6089V24.2612V16.9136H13.2246H19.2402L19.223 24.2354Z" fill="#634794"/>
<path d="M25.1181 15.6589C24.7829 15.9425 24.7829 16.4237 25.1181 16.7073L25.3501 16.9136H31.4517H37.5532L37.7595 16.6987C37.9056 16.5612 37.9743 16.3979 37.9743 16.1831C37.9743 15.9683 37.9056 15.805 37.7595 15.6675L37.5532 15.4526H31.4517H25.3501L25.1181 15.6589Z" fill="#634794"/>
<path d="M25.29 20.9011C24.6627 21.1761 24.74 22.044 25.4017 22.2417C25.6337 22.3105 27.5072 22.3276 31.6322 22.3105L37.5275 22.2847L37.7509 22.0784C38.0603 21.7862 38.0603 21.3222 37.7509 21.03L37.5275 20.8237L31.5462 20.8065C26.665 20.7894 25.5048 20.8065 25.29 20.9011Z" fill="#634794"/>
<path d="M25.1184 26.4011C24.8004 26.6675 24.7918 27.1229 25.084 27.4409L25.2816 27.6558H31.4004C37.459 27.6558 37.5277 27.6558 37.7512 27.4753C37.9746 27.2948 38.0519 26.9167 37.923 26.5815C37.7684 26.1948 37.734 26.1948 31.366 26.1948H25.3504L25.1184 26.4011Z" fill="#634794"/>
<path d="M25.1439 31.7289C24.8946 31.918 24.7915 32.3305 24.929 32.6141C25.1525 33.0782 25.0064 33.0696 31.4259 33.0696C37.7337 33.0696 37.7681 33.0696 37.9228 32.6829C38.0345 32.3735 37.9743 31.9782 37.7767 31.7977L37.579 31.6086H31.4345C26.4587 31.6172 25.2728 31.6344 25.1439 31.7289Z" fill="#634794"/>
</svg>
