<svg width="44" height="39" viewBox="0 0 44 39" fill="none" xmlns="http://www.w3.org/2000/svg">
<path d="M3.78852 0.370358C3.08383 0.533642 2.10414 1.07505 1.58852 1.57349C0.995548 2.14067 0.471329 2.94849 0.22211 3.67037L0.0330479 4.23756L0.00726661 19.4056C-0.00992089 34.3244 -0.00992089 34.5822 0.161954 35.2439C0.505704 36.6103 1.41664 37.7877 2.61977 38.415C3.8143 39.0423 2.27602 38.9994 21.9901 38.9994C41.7041 38.9994 40.1659 39.0423 41.3604 38.415C42.5635 37.7877 43.4745 36.6103 43.8182 35.2439C43.9901 34.5822 43.9901 34.3244 43.9729 19.4056L43.9471 4.23756L43.7581 3.67037C43.5088 2.94849 42.9846 2.13208 42.3916 1.56489C41.8588 1.05786 40.7674 0.482079 40.0541 0.335983C39.3409 0.189888 4.39867 0.215672 3.78852 0.370358ZM40.2174 1.94302C41.1799 2.32974 41.919 3.06881 42.2799 3.99693C42.4518 4.4524 42.4776 4.67584 42.512 6.57507L42.5463 8.66335H21.9987H1.45102V6.96178C1.45102 6.03366 1.48539 5.02819 1.52836 4.736C1.73461 3.32662 2.73149 2.21802 4.12367 1.83989C4.52758 1.72818 7.00258 1.71099 22.162 1.72818L39.7362 1.74536L40.2174 1.94302ZM42.5291 22.0868C42.5291 28.6954 42.4948 34.2126 42.4518 34.5048C42.2971 35.5447 41.7299 36.4212 40.8362 36.997C39.9252 37.5728 41.2057 37.5384 21.9901 37.5384C2.77445 37.5384 4.05492 37.5728 3.14399 36.997C2.25024 36.4212 1.68305 35.5447 1.52836 34.5048C1.48539 34.2126 1.45102 28.6954 1.45102 22.0868V10.2102H21.9901H42.5291V22.0868Z" fill="#833AB4"/>
<path d="M4.51042 3.07739C3.96902 3.29224 3.48777 3.75631 3.25574 4.30632C2.98074 4.95087 3.0323 5.81886 3.38464 6.39466C3.88308 7.20249 4.88855 7.64938 5.79949 7.46031C6.90808 7.22827 7.63855 6.30872 7.63855 5.14853C7.63855 3.57584 5.99714 2.493 4.51042 3.07739ZM5.70496 4.49539C6.48699 4.87353 6.21199 5.99934 5.33542 5.99934C4.46746 5.99934 4.25261 4.77899 5.06042 4.46102C5.35261 4.34929 5.37839 4.34929 5.70496 4.49539Z" fill="#833AB4"/>
<path d="M10.002 3.01747C8.67854 3.5245 8.0512 4.93387 8.61838 6.12841C9.02229 6.99637 9.77854 7.49481 10.6895 7.48622C11.9871 7.48622 12.9926 6.50653 13.0012 5.22606C13.0012 4.58153 12.8379 4.15184 12.4168 3.69637C11.7809 3.00028 10.7754 2.72528 10.002 3.01747ZM11.0332 4.487C11.5574 4.71044 11.6864 5.36356 11.2824 5.77606C10.8528 6.19716 10.1567 6.02528 9.95901 5.4495C9.82151 5.02841 10.0449 4.58153 10.4746 4.42684C10.6723 4.35809 10.7153 4.35809 11.0332 4.487Z" fill="#833AB4"/>
<path d="M15.1582 3.1033C14.2645 3.53297 13.7918 4.27201 13.8004 5.24308C13.8004 6.36882 14.5137 7.21958 15.6395 7.4516C16.4387 7.61488 17.1348 7.40004 17.702 6.7985C18.209 6.27429 18.3293 5.95634 18.3379 5.22589C18.3379 4.47826 18.1832 4.08296 17.6934 3.59313C17.0231 2.92284 15.966 2.71659 15.1582 3.1033ZM16.6106 4.60716C16.8598 4.83918 16.9371 5.13136 16.834 5.44932C16.7137 5.81884 16.4559 5.9993 16.052 5.9993C15.2184 5.9993 14.9778 4.83059 15.7426 4.48685C16.052 4.34935 16.3699 4.40092 16.6106 4.60716Z" fill="#833AB4"/>
<path d="M5.97148 15.6761L5.74805 15.9081V24.2612V32.6144L5.97148 32.8206L6.19492 33.0269H13.2418H20.2887L20.4949 32.7862L20.7012 32.5456V24.2269V15.9081L20.4777 15.6761L20.2457 15.4526H13.2246H6.20352L5.97148 15.6761ZM19.223 24.2354L19.1973 31.5659L13.2074 31.5917L7.20898 31.6089V24.2612V16.9136H13.2246H19.2402L19.223 24.2354Z" fill="#833AB4"/>
<path d="M25.1181 15.6589C24.7829 15.9425 24.7829 16.4237 25.1181 16.7073L25.3501 16.9136H31.4517H37.5532L37.7595 16.6987C37.9056 16.5612 37.9743 16.3979 37.9743 16.1831C37.9743 15.9683 37.9056 15.805 37.7595 15.6675L37.5532 15.4526H31.4517H25.3501L25.1181 15.6589Z" fill="#833AB4"/>
<path d="M25.29 20.901C24.6627 21.176 24.74 22.044 25.4017 22.2417C25.6337 22.3105 27.5072 22.3276 31.6322 22.3105L37.5275 22.2847L37.7509 22.0784C38.0603 21.7862 38.0603 21.3221 37.7509 21.0299L37.5275 20.8236L31.5462 20.8064C26.665 20.7892 25.5048 20.8064 25.29 20.901Z" fill="#833AB4"/>
<path d="M25.1184 26.4011C24.8004 26.6675 24.7918 27.1229 25.084 27.4409L25.2816 27.6558H31.4004C37.459 27.6558 37.5277 27.6558 37.7512 27.4753C37.9746 27.2948 38.0519 26.9167 37.923 26.5815C37.7684 26.1948 37.734 26.1948 31.366 26.1948H25.3504L25.1184 26.4011Z" fill="#833AB4"/>
<path d="M25.1439 31.7289C24.8946 31.918 24.7915 32.3305 24.929 32.6141C25.1525 33.0782 25.0064 33.0696 31.4259 33.0696C37.7337 33.0696 37.7681 33.0696 37.9228 32.6829C38.0345 32.3735 37.9743 31.9782 37.7767 31.7977L37.579 31.6086H31.4345C26.4587 31.6172 25.2728 31.6344 25.1439 31.7289Z" fill="#833AB4"/>
</svg>
