<svg width="45" height="39" viewBox="0 0 45 39" fill="none" xmlns="http://www.w3.org/2000/svg">
<path d="M3.9385 0.370358C3.23325 0.533642 2.25278 1.07505 1.73675 1.57349C1.14331 2.14067 0.618676 2.94849 0.369259 3.67037L0.180047 4.23756L0.154245 19.4056C0.137044 34.3244 0.137044 34.5822 0.309055 35.2439C0.653078 36.6103 1.56474 37.7877 2.76882 38.415C3.9643 39.0423 2.4248 38.9994 22.1545 38.9994C41.8842 38.9994 40.3447 39.0423 41.5402 38.415C42.7443 37.7877 43.6559 36.6103 44 35.2439C44.172 34.5822 44.172 34.3244 44.1548 19.4056L44.129 4.23756L43.9398 3.67037C43.6903 2.94849 43.1657 2.13208 42.5723 1.56489C42.039 1.05786 40.9468 0.482079 40.2329 0.335983C39.5191 0.189888 4.54914 0.215672 3.9385 0.370358ZM40.3963 1.94302C41.3596 2.32974 42.0992 3.06881 42.4605 3.99693C42.6325 4.4524 42.6583 4.67584 42.6927 6.57507L42.7271 8.66335H22.1631H1.59914V6.96178C1.59914 6.03366 1.63354 5.02819 1.67655 4.736C1.88296 3.32662 2.88063 2.21802 4.27392 1.83989C4.67815 1.72818 7.15511 1.71099 22.3265 1.72818L39.9147 1.74536L40.3963 1.94302ZM42.7099 22.0868C42.7099 28.6954 42.6755 34.2126 42.6325 34.5048C42.4777 35.5447 41.91 36.4212 41.0156 36.997C40.1039 37.5728 41.3854 37.5384 22.1545 37.5384C2.92363 37.5384 4.20511 37.5728 3.29345 36.997C2.39899 36.4212 1.83136 35.5447 1.67655 34.5048C1.63354 34.2126 1.59914 28.6954 1.59914 22.0868V10.2102H22.1545H42.7099V22.0868Z" fill="#634794"/>
<path d="M4.66097 3.07739C4.11914 3.29224 3.63751 3.75631 3.40529 4.30632C3.13007 4.95087 3.18168 5.81886 3.5343 6.39466C4.03313 7.20249 5.0394 7.64938 5.95106 7.46031C7.06053 7.22827 7.79158 6.30872 7.79158 5.14853C7.79158 3.57584 6.14887 2.493 4.66097 3.07739ZM5.85645 4.49539C6.6391 4.87353 6.36389 5.99934 5.48663 5.99934C4.61797 5.99934 4.40296 4.77899 5.21141 4.46102C5.50383 4.34929 5.52963 4.34929 5.85645 4.49539Z" fill="#634794"/>
<path d="M10.1566 3.01738C8.83207 3.52442 8.20423 4.93382 8.77187 6.12838C9.1761 6.99637 9.93295 7.49481 10.8446 7.48622C12.1433 7.48622 13.1496 6.50651 13.1582 5.22602C13.1582 4.58147 12.9947 4.15178 12.5733 3.6963C11.9369 3.00019 10.9306 2.72518 10.1566 3.01738ZM11.1886 4.48694C11.7133 4.71038 11.8423 5.36352 11.438 5.77603C11.008 6.19713 10.3114 6.02525 10.1136 5.44946C9.97595 5.02836 10.1996 4.58147 10.6296 4.42678C10.8274 4.35803 10.8704 4.35803 11.1886 4.48694Z" fill="#634794"/>
<path d="M15.317 3.1033C14.4226 3.53297 13.9495 4.27201 13.9581 5.24308C13.9581 6.36882 14.672 7.21958 15.7986 7.4516C16.5985 7.61488 17.2951 7.40004 17.8628 6.7985C18.3702 6.27429 18.4906 5.95634 18.4992 5.22589C18.4992 4.47826 18.3444 4.08296 17.8542 3.59313C17.1833 2.92284 16.1255 2.71659 15.317 3.1033ZM16.7705 4.60716C17.0199 4.83918 17.0973 5.13136 16.9941 5.44932C16.8737 5.81884 16.6157 5.9993 16.2115 5.9993C15.3772 5.9993 15.1364 4.83059 15.9019 4.48685C16.2115 4.34935 16.5297 4.40092 16.7705 4.60716Z" fill="#634794"/>
<path d="M6.12303 15.6761L5.89941 15.9081V24.2612V32.6144L6.12303 32.8206L6.34664 33.0269H13.3991H20.4516L20.658 32.7862L20.8644 32.5456V24.2269V15.9081L20.6408 15.6761L20.4086 15.4526H13.3819H6.35524L6.12303 15.6761ZM19.3851 24.2354L19.3593 31.5659L13.3647 31.5917L7.36151 31.6089V24.2612V16.9136H13.3819H19.4023L19.3851 24.2354Z" fill="#634794"/>
<path d="M25.2853 15.6589C24.9498 15.9425 24.9498 16.4237 25.2853 16.7073L25.5175 16.9136H31.6239H37.7303L37.9367 16.6987C38.0829 16.5612 38.1517 16.3979 38.1517 16.1831C38.1517 15.9683 38.0829 15.805 37.9367 15.6675L37.7303 15.4526H31.6239H25.5175L25.2853 15.6589Z" fill="#634794"/>
<path d="M25.4573 20.901C24.8295 21.176 24.9069 22.044 25.5691 22.2417C25.8014 22.3105 27.6763 22.3276 31.8045 22.3105L37.7045 22.2847L37.9282 22.0784C38.2378 21.7862 38.2378 21.3221 37.9282 21.0299L37.7045 20.8236L31.7185 20.8064C26.8334 20.7892 25.6723 20.8064 25.4573 20.901Z" fill="#634794"/>
<path d="M25.285 26.4011C24.9668 26.6675 24.9582 27.1229 25.2506 27.4409L25.4485 27.6558H31.5721C37.6355 27.6558 37.7043 27.6558 37.9279 27.4753C38.1515 27.2948 38.2289 26.9167 38.0999 26.5815C37.9451 26.1948 37.9107 26.1948 31.5377 26.1948H25.5173L25.285 26.4011Z" fill="#634794"/>
<path d="M25.3106 31.729C25.0612 31.918 24.958 32.3305 25.0956 32.6141C25.3192 33.0782 25.173 33.0696 31.5976 33.0696C37.9104 33.0696 37.9448 33.0696 38.0996 32.6829C38.2114 32.3735 38.1512 31.9782 37.9534 31.7977L37.7556 31.6086H31.6062C26.6265 31.6172 25.4396 31.6344 25.3106 31.729Z" fill="#634794"/>
</svg>
