<svg width="24" height="24" viewBox="0 0 24 24" fill="none" xmlns="http://www.w3.org/2000/svg">
<path fill-rule="evenodd" clip-rule="evenodd" d="M12.2181 0C5.7108 0 0.435743 5.23411 0.435743 11.6912C0.435743 13.8998 1.05349 15.9654 2.12637 17.7276L0 24L6.52319 21.9275C8.21108 22.8538 10.1523 23.3817 12.2181 23.3817C18.7249 23.3817 24 18.1478 24 11.6913C24.0001 5.23411 18.7251 0 12.2181 0ZM12.2181 21.5198C10.2059 21.5198 8.33242 20.9209 6.76819 19.8942L2.96152 21.1039L4.1987 17.4536C3.01292 15.8332 2.31227 13.8421 2.31227 11.6908C2.31227 6.27101 6.75597 1.86173 12.2181 1.86173C17.6799 1.86173 22.1237 6.27101 22.1237 11.6908C22.1237 17.1105 17.68 21.5198 12.2181 21.5198ZM9.45469 6.85525C9.26383 6.39883 9.11764 6.38336 8.82283 6.36946C8.72171 6.36465 8.61206 6.36005 8.49209 6.36005C8.11228 6.36005 7.71846 6.47105 7.48115 6.71196C7.19234 7.00512 6.47021 7.69179 6.47021 9.10169C6.47021 10.5118 7.50517 11.8744 7.64936 12.0656C7.79398 12.2567 9.66787 15.1926 12.5834 16.3913C14.859 17.3266 15.5347 17.2433 16.0538 17.1306C16.8092 16.967 17.7578 16.4149 17.9985 15.746C18.2392 15.0767 18.2392 14.503 18.167 14.3839C18.0948 14.2642 17.9022 14.1928 17.6134 14.0491C17.3246 13.9058 15.9045 13.2126 15.6398 13.1172C15.375 13.0216 15.1302 13.0508 14.9266 13.3302C14.6456 13.7161 14.3753 14.1128 14.1515 14.3479C13.9758 14.5325 13.6931 14.5582 13.45 14.4557C13.1303 14.3205 12.2305 14.0094 11.1272 13.0334C10.2688 12.274 9.68904 11.3359 9.52052 11.0489C9.35199 10.7623 9.50567 10.5912 9.63554 10.4353C9.78363 10.2573 9.92024 10.1295 10.0646 9.96237C10.2091 9.79494 10.2897 9.70579 10.386 9.51432C10.4823 9.32327 10.4175 9.12605 10.3452 8.98255C10.2729 8.83905 9.69463 7.42935 9.45469 6.85525Z" fill="#3F3D56"/>
</svg>
